<?xml version="1.0" encoding="utf-8"?>
<!DOCTYPE svg PUBLIC "-//W3C//DTD SVG 1.1//EN" "http://www.w3.org/Graphics/SVG/1.1/DTD/svg11.dtd">
<svg version="1.1" id="Layer_1" xmlns="http://www.w3.org/2000/svg" xmlns:xlink="http://www.w3.org/1999/xlink" x="0px" y="0px"
	 viewBox="0 0 121.7 81.3" style="enable-background:new 0 0 121.7 81.3;" xml:space="preserve">
<path d="M93.2,44.7c-2.5,0-4.7,0.6-6.6,1.5c-0.7-1.3-1.4-2.5-1.5-3.4c-0.1-1-0.3-1.6-0.1-2.9c0.2-1.2,0.9-3,0.9-3.1
	c0-0.1-0.2-0.8-1.6-0.8c-1.5,0-2.7,0.3-2.9,0.7c-0.1,0.4-0.4,1.3-0.6,2.2c-0.3,1.3-2.9,6.1-4.4,8.6c-0.5-1-0.9-1.8-1-2.5
	c-0.1-1-0.3-1.6-0.1-2.9c0.2-1.2,0.9-3,0.9-3.1c0-0.1-0.2-0.8-1.6-0.8c-1.5,0-2.7,0.3-2.9,0.7c-0.1,0.4-0.3,1.3-0.6,2.2
	c-0.3,0.9-3.9,8.8-4.8,10.8c-0.5,1-0.9,1.9-1.2,2.5c0,0,0,0,0,0s0,0,0,0.1c-0.2,0.5-0.4,0.8-0.4,0.8s0,0,0,0
	c-0.2,0.4-0.4,0.7-0.5,0.7c-0.1,0-0.2-1,0-2.3c0.5-2.7,1.8-7,1.8-7.2c0-0.1,0.2-0.8-0.8-1.2c-1-0.4-1.4,0.3-1.5,0.3
	c-0.1,0-0.2,0.2-0.2,0.2s1.2-4.8-2.2-4.8c-2.1,0-5,2.3-6.4,4.4c-0.9,0.5-2.8,1.5-4.9,2.7c-0.8,0.4-1.6,0.9-2.4,1.3
	c-0.1-0.1-0.1-0.1-0.2-0.2c-4.1-4.3-11.6-7.4-11.3-13.2c0.1-2.1,0.9-7.7,14.4-14.5c11.1-5.5,20-4,21.6-0.6
	c2.2,4.8-4.8,13.8-16.3,15.1c-4.4,0.5-6.7-1.2-7.3-1.8c-0.6-0.7-0.7-0.7-0.9-0.6c-0.4,0.2-0.1,0.8,0,1.1c0.3,0.9,1.8,2.5,4.2,3.3
	c2.1,0.7,7.3,1.1,13.5-1.3c7-2.7,12.5-10.2,10.9-16.5c-1.6-6.4-12.3-8.5-22.3-4.9c-6,2.1-12.5,5.5-17.1,9.8
	c-5.5,5.2-6.4,9.7-6.1,11.6c1.3,6.7,10.5,11,14.2,14.3c-0.2,0.1-0.4,0.2-0.5,0.3c-1.9,0.9-8.9,4.6-10.6,8.5c-2,4.4,0.3,7.6,1.8,8
	c4.7,1.3,9.6-1.1,12.2-5c2.6-3.9,2.3-9,1.1-11.3c0,0,0-0.1,0-0.1c0.5-0.3,1-0.6,1.4-0.9c0.9-0.6,1.9-1.1,2.7-1.5
	c-0.4,1.2-0.8,2.7-0.9,4.8c-0.2,2.5,0.8,5.7,2.2,7c0.6,0.6,1.3,0.6,1.8,0.6c1.6,0,2.3-1.3,3.1-2.8c1-1.9,1.8-4.1,1.8-4.1
	s-1.1,5.9,1.8,5.9c1.1,0,2.1-1.4,2.6-2.1c0,0,0,0,0,0s0,0,0.1-0.1c0.1-0.2,0.2-0.3,0.2-0.3s0,0,0,0c0.4-0.7,1.4-2.4,2.8-5.2
	c1.8-3.6,3.6-8.1,3.6-8.1s0.2,1.1,0.7,2.9c0.3,1.1,1,2.3,1.5,3.4c-0.4,0.6-0.7,0.9-0.7,0.9s0,0,0,0c-0.3,0.5-0.7,0.9-1.1,1.4
	c-1.5,1.7-3.2,3.7-3.4,4.3c-0.3,0.7-0.2,1.2,0.3,1.6c0.4,0.3,1.1,0.3,1.8,0.3c1.3-0.1,2.2-0.4,2.7-0.6c0.7-0.2,1.5-0.6,2.3-1.2
	c1.4-1,2.3-2.5,2.2-4.5c0-1.1-0.4-2.2-0.8-3.2c0.1-0.2,0.3-0.4,0.4-0.6c2.2-3.3,4-6.9,4-6.9s0.2,1.1,0.7,2.9
	c0.3,0.9,0.8,1.9,1.3,2.9c-2.1,1.7-3.4,3.7-3.9,5c-0.8,2.4-0.2,3.5,1.1,3.8c0.6,0.1,1.3-0.1,1.9-0.4c0.7-0.2,1.6-0.7,2.5-1.3
	c1.4-1,2.8-2.5,2.7-4.5c0-0.9-0.3-1.8-0.6-2.7c1.8-0.7,4.1-1.2,7.1-0.8c6.3,0.7,7.6,4.7,7.3,6.3c-0.2,1.7-1.6,2.6-2,2.8
	c-0.4,0.3-0.6,0.4-0.5,0.6c0.1,0.3,0.3,0.3,0.6,0.2c0.5-0.1,3.3-1.3,3.4-4.4C103.5,49,99.8,44.7,93.2,44.7z M44.5,61.2
	c-2.1,2.3-5,3.1-6.3,2.4c-1.4-0.8-0.8-4.2,1.8-6.6c1.6-1.5,3.6-2.8,4.9-3.7c0.3-0.2,0.8-0.5,1.3-0.8c0.1-0.1,0.1-0.1,0.1-0.1l0,0
	c0.1-0.1,0.2-0.1,0.3-0.2C47.6,55.7,46.7,58.8,44.5,61.2z M59.7,50.8c-0.7,1.8-2.3,6.3-3.2,6.1c-0.8-0.2-1.3-3.7-0.2-7.1
	c0.6-1.7,1.8-3.8,2.5-4.6c1.1-1.3,2.4-1.7,2.7-1.2C62,44.7,60.2,49.7,59.7,50.8z M72.3,56.8C72,57,71.8,57.1,71.6,57
	c-0.1-0.1,0.1-0.3,0.1-0.3s1.6-1.7,2.2-2.5c0.4-0.4,0.8-1,1.2-1.6c0,0.1,0,0.1,0,0.2C75.2,54.9,73.2,56.3,72.3,56.8z M82.1,54.6
	c-0.2-0.2-0.2-0.7,0.6-2.3c0.3-0.6,1-1.7,2.2-2.8c0.1,0.4,0.2,0.8,0.2,1.2C85,53.3,83.2,54.2,82.1,54.6z"/>
</svg>
