<?xml version="1.0" encoding="utf-8"?>
<svg version="1.1" id="logo-sass" xmlns="http://www.w3.org/2000/svg" viewBox="0 0 10.4 7.78">
  <path d="M8.917,4.436c-0.356,0-0.67,0.086-0.941,0.214c-0.1-0.185-0.2-0.356-0.214-0.485
    C7.748,4.023,7.72,3.937,7.748,3.752C7.777,3.581,7.876,3.324,7.876,3.31c0-0.014-0.029-0.114-0.228-0.114
    c-0.214,0-0.385,0.043-0.413,0.1C7.221,3.353,7.178,3.481,7.149,3.609c-0.043,0.185-0.413,0.87-0.627,1.226
    C6.451,4.693,6.394,4.579,6.38,4.479C6.365,4.336,6.337,4.251,6.365,4.066c0.029-0.171,0.128-0.428,0.128-0.442
    c0-0.014-0.029-0.114-0.228-0.114c-0.214,0-0.385,0.043-0.413,0.1C5.838,3.666,5.809,3.795,5.767,3.923
    c-0.043,0.128-0.556,1.255-0.684,1.54C5.011,5.605,4.954,5.733,4.911,5.819l0,0c0,0,0,0,0,0.014
    C4.883,5.905,4.854,5.947,4.854,5.947l0,0c-0.029,0.057-0.057,0.1-0.071,0.1s-0.029-0.143,0-0.328
    C4.854,5.334,5.04,4.721,5.04,4.693c0-0.014,0.029-0.114-0.114-0.171c-0.143-0.057-0.2,0.043-0.214,0.043S4.683,4.593,4.683,4.593
    S4.854,3.909,4.37,3.909c-0.299,0-0.713,0.328-0.912,0.627C3.329,4.607,3.058,4.75,2.759,4.921C2.645,4.978,2.531,5.049,2.416,5.106
    C2.402,5.092,2.402,5.092,2.388,5.078C1.803,4.465,0.734,4.023,0.777,3.196C0.791,2.897,0.905,2.098,2.83,1.129
    c1.582-0.784,2.851-0.57,3.079-0.086c0.314,0.684-0.684,1.967-2.324,2.153C2.958,3.267,2.63,3.025,2.545,2.939
    c-0.086-0.1-0.1-0.1-0.128-0.086c-0.057,0.029-0.014,0.114,0,0.157c0.043,0.128,0.257,0.356,0.599,0.47
    c0.299,0.1,1.041,0.157,1.925-0.185c0.998-0.385,1.782-1.454,1.554-2.352C6.266,0.031,4.74-0.268,3.315,0.245
    C2.459,0.544,1.533,1.029,0.877,1.642c-0.784,0.741-0.912,1.383-0.87,1.654c0.185,0.955,1.497,1.568,2.024,2.039
    C2.003,5.349,1.975,5.363,1.96,5.377C1.689,5.505,0.692,6.033,0.449,6.589c-0.285,0.627,0.043,1.083,0.257,1.14
    c0.67,0.185,1.369-0.157,1.739-0.713s0.328-1.283,0.157-1.611V5.391c0.071-0.043,0.143-0.086,0.2-0.128
    C2.93,5.178,3.072,5.106,3.186,5.049C3.129,5.22,3.072,5.434,3.058,5.733C3.029,6.09,3.172,6.546,3.372,6.731
    c0.086,0.086,0.185,0.086,0.257,0.086c0.228,0,0.328-0.185,0.442-0.399c0.143-0.271,0.257-0.584,0.257-0.584S4.17,6.674,4.583,6.674
    c0.157,0,0.299-0.2,0.371-0.299l0,0c0,0,0,0,0.014-0.014c0.014-0.029,0.029-0.043,0.029-0.043l0,0c0.057-0.1,0.2-0.342,0.399-0.741
    c0.257-0.513,0.513-1.155,0.513-1.155s0.029,0.157,0.1,0.413C6.052,4.992,6.152,5.163,6.223,5.32c-0.057,0.086-0.1,0.128-0.1,0.128
    l0,0c-0.043,0.071-0.1,0.128-0.157,0.2C5.752,5.89,5.51,6.175,5.482,6.261c-0.043,0.1-0.029,0.171,0.043,0.228
    c0.057,0.043,0.157,0.043,0.257,0.043c0.185-0.014,0.314-0.057,0.385-0.086c0.1-0.029,0.214-0.086,0.328-0.171
    c0.2-0.143,0.328-0.356,0.314-0.642c0-0.157-0.057-0.314-0.114-0.456C6.708,5.149,6.736,5.12,6.75,5.092
    c0.314-0.47,0.57-0.984,0.57-0.984s0.029,0.157,0.1,0.413C7.463,4.65,7.534,4.793,7.606,4.935C7.306,5.178,7.121,5.463,7.05,5.648
    C6.936,5.99,7.021,6.147,7.206,6.19c0.086,0.014,0.185-0.014,0.271-0.057c0.1-0.029,0.228-0.1,0.356-0.185
    c0.2-0.143,0.399-0.356,0.385-0.642c0-0.128-0.043-0.257-0.086-0.385c0.257-0.1,0.584-0.171,1.012-0.114
    c0.898,0.1,1.083,0.67,1.041,0.898c-0.029,0.242-0.228,0.371-0.285,0.399C9.844,6.147,9.815,6.161,9.83,6.19
    c0.014,0.043,0.043,0.043,0.086,0.029c0.071-0.014,0.47-0.185,0.485-0.627C10.386,5.049,9.858,4.436,8.917,4.436z M1.975,6.788
    C1.675,7.116,1.262,7.23,1.076,7.131c-0.2-0.114-0.114-0.599,0.257-0.941c0.228-0.214,0.513-0.399,0.699-0.527
    c0.043-0.029,0.114-0.071,0.185-0.114c0.014-0.014,0.014-0.014,0.014-0.014l0,0C2.245,5.52,2.26,5.52,2.274,5.505
    C2.416,6.004,2.288,6.446,1.975,6.788z M4.141,5.306c-0.1,0.257-0.328,0.898-0.456,0.87C3.571,6.147,3.5,5.648,3.657,5.163
    c0.086-0.242,0.257-0.542,0.356-0.656C4.17,4.322,4.355,4.265,4.398,4.336C4.469,4.436,4.213,5.149,4.141,5.306z M5.938,6.161
    C5.895,6.19,5.866,6.204,5.838,6.19C5.824,6.175,5.852,6.147,5.852,6.147S6.08,5.905,6.166,5.791
    C6.223,5.733,6.28,5.648,6.337,5.562c0,0.014,0,0.014,0,0.029C6.351,5.89,6.066,6.09,5.938,6.161z M7.335,5.848
    C7.306,5.819,7.306,5.748,7.42,5.52C7.463,5.434,7.563,5.277,7.734,5.12c0.014,0.057,0.029,0.114,0.029,0.171
    C7.748,5.662,7.492,5.791,7.335,5.848z"/>
</svg>
