<?xml version="1.0" encoding="utf-8"?>
<svg version="1.1" id="logo-stylus-color-padded" xmlns="http://www.w3.org/2000/svg" viewBox="0 0 121.7 81.3">
  <path fill="#A1BC06" d="M36.7 34.9c0.7 0 1.3 0.1 1.7 0.3 0.4 0.2 0.7 0.4 0.7 0.7 0 0.4-0.1 0.8-0.3 1.2 -0.2 0.5-0.4 0.8-0.5 1.1 -0.1 0.1-0.1 0.1-0.2 0 -0.1 0-0.1-0.1-0.1-0.3 0.1-0.2 0.1-0.6 0.1-1 0-0.5-0.1-0.8-0.4-1.1 -0.2-0.3-0.6-0.4-1-0.4 -0.6 0-1 0.2-1.3 0.5 -0.3 0.3-0.5 0.8-0.5 1.4 0 0.5 0.1 1 0.4 1.5 0.3 0.5 0.6 0.9 0.9 1.4 0.3 0.5 0.7 1 1 1.5 0.3 0.5 0.4 1.1 0.4 1.8 0 1.2-0.5 2.1-1.4 2.7 -0.9 0.7-2.2 1-3.7 1 -1.1 0-2-0.2-2.6-0.5 -0.6-0.4-1-0.7-1-1.2 0-0.1 0-0.3 0.1-0.5 0.1-0.2 0.2-0.5 0.4-0.7 0.2-0.3 0.3-0.5 0.5-0.8 0.2-0.3 0.4-0.5 0.6-0.6 0.1-0.1 0.2 0 0.3 0 0.1 0.1 0.1 0.2 0 0.3 -0.2 0.2-0.3 0.4-0.4 0.6 -0.1 0.2-0.1 0.5-0.1 0.9 0 0.6 0.2 1.1 0.6 1.4 0.4 0.4 0.9 0.6 1.5 0.6 0.8 0 1.5-0.2 2-0.7 0.5-0.5 0.7-1 0.7-1.7 0-0.6-0.1-1.2-0.4-1.7 -0.3-0.5-0.6-1.1-0.9-1.6 -0.3-0.5-0.6-1-0.9-1.5 -0.3-0.5-0.4-1.1-0.4-1.7 0-0.8 0.4-1.6 1.1-2.1C34.2 35.1 35.3 34.9 36.7 34.9zM50 35.1c0.2 0.1 0.2 0.2 0.2 0.3 0 0.1-0.2 0.2-0.4 0.3 -0.5 0-1 0-1.7 0 -0.6 0-1.3 0.1-2 0.1 -0.7 1.6-1.2 3.1-1.6 4.7 -0.4 1.5-0.6 2.7-0.6 3.7 0 1.1 0.4 1.7 1.3 1.7 0.8 0 1.8-0.7 2.8-2.2 0.1-0.1 0.2-0.1 0.3 0 0.1 0.1 0.1 0.2 0.1 0.3 -0.6 0.9-1.3 1.7-2.1 2.4 -0.8 0.7-1.7 1-2.5 1 -0.8 0-1.5-0.2-1.9-0.6 -0.4-0.4-0.6-1-0.6-1.7 0-0.9 0.2-2.2 0.7-3.9 0.5-1.7 1-3.4 1.8-5.1 -0.8 0.1-1.6 0.2-2.3 0.4 -0.2 0-0.2-0.1-0.1-0.2 0.1-0.1 0.2-0.3 0.4-0.4 0.2-0.1 0.5-0.3 0.8-0.4 0.3-0.1 0.6-0.2 0.8-0.2 0.1 0 0.3 0 0.4 0 0.1 0 0.3 0 0.4 0 0.4-0.9 0.9-1.9 1.3-2.7 0.5-0.9 0.9-1.7 1.4-2.4 0.2-0.2 0.5-0.4 0.8-0.6 0.3-0.2 0.7-0.3 1-0.4 0.3-0.1 0.6-0.2 0.8-0.2 0.2 0 0.3 0 0.3 0.2 -0.6 0.8-1.1 1.8-1.6 2.8 -0.5 1-1 2.1-1.5 3.3 0.6 0 1.2 0 1.9 0C48.9 35.1 49.4 35.1 50 35.1zM79.6 10.7c0.5 0 0.9 0.1 1.2 0.4 0.3 0.2 0.5 0.6 0.6 1 0.1 0.4 0.1 0.9 0 1.4 -0.1 0.5-0.3 1-0.6 1.6 -0.1 0.1-0.1 0.1-0.2 0 -0.1-0.1-0.2-0.1-0.2-0.2 0.1-0.4-0.1-0.7-0.4-1 -0.3-0.3-0.9-0.4-1.6-0.4 -1.3 0-2.7 0.5-4 1.5 -1.4 1-2.7 2.3-3.9 3.9 -1.3 1.6-2.5 3.5-3.6 5.6 -1.1 2.1-2.1 4.3-2.9 6.5 -0.8 2.2-1.5 4.5-1.9 6.7 -0.5 2.2-0.7 4.2-0.7 6.1 0 1 0.3 1.5 0.8 1.5 0.4 0 0.8-0.2 1.1-0.5 0.4-0.3 0.8-0.8 1.3-1.5 0.1-0.1 0.2-0.1 0.3 0 0.1 0.1 0.1 0.2 0.1 0.3 -0.7 1-1.4 1.8-2.3 2.4 -0.9 0.7-1.7 1-2.4 1 -0.6 0-1-0.2-1.3-0.5 -0.2-0.4-0.4-0.8-0.4-1.4 0-1.5 0.3-3.4 1-5.7 0.7-2.3 1.5-4.7 2.6-7.3 1.1-2.6 2.4-5.1 3.8-7.6 1.4-2.5 2.9-4.8 4.5-6.9 1.5-2 3.1-3.7 4.7-5C76.8 11.3 78.3 10.7 79.6 10.7zM36.3 70.7c-0.5 0-0.9-0.1-1.2-0.4 -0.3-0.2-0.5-0.6-0.6-1 -0.1-0.4-0.1-0.9 0-1.4 0.1-0.5 0.3-1 0.6-1.6 0.1-0.1 0.1-0.1 0.2 0 0.1 0.1 0.2 0.1 0.2 0.2 -0.1 0.4 0.1 0.7 0.4 1 0.3 0.3 0.9 0.4 1.6 0.4 1.3 0 2.7-0.5 4-1.5 1.4-1 2.7-2.3 3.9-3.9 1.3-1.6 2.5-3.5 3.6-5.6 1.1-2.1 2.1-4.3 2.9-6.5 0.8-2.2 1.5-4.5 1.9-6.7 0.5-2.2 0.7-4.2 0.7-6.1 0-1-0.3-1.5-0.8-1.5 -0.4 0-0.8 0.2-1.1 0.5 -0.4 0.3-0.8 0.8-1.3 1.5 -0.1 0.1-0.2 0.1-0.3 0 -0.1-0.1-0.1-0.2-0.1-0.3 0.7-1 1.4-1.8 2.3-2.4 0.9-0.7 1.7-1 2.4-1 0.6 0 1 0.2 1.3 0.5 0.2 0.4 0.4 0.8 0.4 1.4 0 1.5-0.3 3.4-1 5.7 -0.7 2.3-1.5 4.7-2.6 7.3 -1.1 2.6-2.4 5.1-3.8 7.6 -1.4 2.5-2.9 4.8-4.5 6.9 -1.5 2-3.1 3.7-4.7 5C39.1 70 37.6 70.7 36.3 70.7zM69.3 47.4c-1.4 0-2.1-0.7-2.1-2.2 0-0.5 0.1-1.1 0.2-1.8 0.1-0.7 0.3-1.4 0.5-2.1s0.5-1.5 0.9-2.2c0.3-0.7 0.7-1.5 1.2-2.1 -0.4 0.2-0.7 0.5-1 0.7 -0.3 0.2-0.6 0.5-0.9 0.8 -0.1 0.1-0.2 0-0.3-0.1 -0.1-0.1-0.1-0.2 0-0.3 0.6-0.6 1.3-1.2 2.4-1.8 1-0.6 2-1.1 3-1.5 0.2 0 0.3 0 0.4 0.1 0.1 0.1 0.1 0.2 0 0.3 -1 1.4-1.9 2.8-2.5 4.4 -0.6 1.6-1 3.1-1 4.6 0 0.9 0.3 1.4 0.9 1.4 0.4 0 0.9-0.3 1.6-0.9 0.6-0.6 1.3-1.3 2-2.2 0.7-0.9 1.4-2 2.1-3.1 0.7-1.2 1.3-2.4 1.9-3.6 0.1-0.2 0.4-0.4 0.9-0.6 0.5-0.2 1-0.3 1.4-0.3 0.5 0 0.6 0.1 0.4 0.4 -0.5 0.8-0.9 1.6-1.2 2.4 -0.3 0.7-0.6 1.5-0.9 2.2 -0.2 0.7-0.4 1.4-0.5 2.2 -0.1 0.7-0.2 1.5-0.2 2.4 0 1 0.3 1.6 0.8 1.6 0.6 0 1.2-0.5 1.9-1.5 0.1-0.1 0.2-0.1 0.3 0 0.1 0.1 0.1 0.2 0.1 0.3 -0.6 0.8-1.2 1.5-1.8 1.9 -0.7 0.4-1.3 0.7-1.8 0.7 -1.4 0-2.1-0.8-2.1-2.4 0-1.7 0.3-3.3 0.9-4.9 -1.2 2.2-2.5 4-3.9 5.3C71.4 46.7 70.2 47.4 69.3 47.4zM89.4 34.9c0.7 0 1.3 0.1 1.7 0.3 0.4 0.2 0.7 0.4 0.7 0.7 0 0.4-0.1 0.8-0.3 1.2 -0.2 0.5-0.4 0.8-0.5 1.1 -0.1 0.1-0.1 0.1-0.2 0 -0.1 0-0.1-0.1-0.1-0.3 0.1-0.2 0.1-0.6 0.1-1 0-0.5-0.1-0.8-0.4-1.1 -0.2-0.3-0.6-0.4-1-0.4 -0.6 0-1 0.2-1.3 0.5 -0.3 0.3-0.5 0.8-0.5 1.4 0 0.5 0.1 1 0.4 1.5 0.3 0.5 0.6 0.9 0.9 1.4 0.3 0.5 0.7 1 1 1.5 0.3 0.5 0.4 1.1 0.4 1.8 0 1.2-0.5 2.1-1.4 2.7 -0.9 0.7-2.2 1-3.7 1 -1.1 0-2-0.2-2.6-0.5 -0.6-0.4-1-0.7-1-1.2 0-0.1 0-0.3 0.1-0.5 0.1-0.2 0.2-0.5 0.4-0.7 0.2-0.3 0.3-0.5 0.5-0.8 0.2-0.3 0.4-0.5 0.6-0.6 0.1-0.1 0.2 0 0.3 0 0.1 0.1 0.1 0.2 0 0.3 -0.2 0.2-0.3 0.4-0.4 0.6 -0.1 0.2-0.1 0.5-0.1 0.9 0 0.6 0.2 1.1 0.6 1.4 0.4 0.4 0.9 0.6 1.5 0.6 0.8 0 1.5-0.2 2-0.7 0.5-0.5 0.7-1 0.7-1.7 0-0.6-0.1-1.2-0.4-1.7 -0.3-0.5-0.6-1.1-0.9-1.6 -0.3-0.5-0.6-1-0.9-1.5 -0.3-0.5-0.4-1.1-0.4-1.7 0-0.8 0.4-1.6 1.1-2.1C87 35.1 88 34.9 89.4 34.9z"/>
</svg>
