<?xml version="1.0" encoding="utf-8"?>
<svg version="1.1" id="logo-stylus" xmlns="http://www.w3.org/2000/svg" viewBox="0 0 62.9 60">
  <path d="M7.8,24.2c0.7,0,1.3,0.1,1.7,0.3s0.7,0.4,0.7,0.7c0,0.4-0.1,0.8-0.3,1.2c-0.2,0.5-0.4,0.8-0.5,1.1 c-0.1,0.1-0.1,0.1-0.2,0c-0.1,0-0.1-0.1-0.1-0.3c0.1-0.2,0.1-0.6,0.1-1c0-0.5-0.1-0.8-0.4-1.1c-0.2-0.3-0.6-0.4-1-0.4 c-0.6,0-1,0.2-1.3,0.5S6,26,6,26.6c0,0.5,0.1,1,0.4,1.5C6.7,28.6,7,29,7.3,29.5c0.3,0.5,0.7,1,1,1.5s0.4,1.1,0.4,1.8 c0,1.2-0.5,2.1-1.4,2.7c-0.9,0.7-2.2,1-3.7,1c-1.1,0-2-0.2-2.6-0.5c-0.6-0.4-1-0.7-1-1.2c0-0.1,0-0.3,0.1-0.5s0.2-0.5,0.4-0.7 c0.2-0.3,0.3-0.5,0.5-0.8s0.4-0.5,0.6-0.6c0.1-0.1,0.2,0,0.3,0c0.1,0.1,0.1,0.2,0,0.3c-0.2,0.2-0.3,0.4-0.4,0.6 c-0.1,0.2-0.1,0.5-0.1,0.9c0,0.6,0.2,1.1,0.6,1.4C2.4,35.8,2.9,36,3.5,36c0.8,0,1.5-0.2,2-0.7s0.7-1,0.7-1.7c0-0.6-0.1-1.2-0.4-1.7 c-0.3-0.5-0.6-1.1-0.9-1.6c-0.3-0.5-0.6-1-0.9-1.5c-0.3-0.5-0.4-1.1-0.4-1.7c0-0.8,0.4-1.6,1.1-2.1C5.3,24.4,6.4,24.2,7.8,24.2z M21.1,24.4c0.2,0.1,0.2,0.2,0.2,0.3s-0.2,0.2-0.4,0.3c-0.5,0-1,0-1.7,0c-0.6,0-1.3,0.1-2,0.1c-0.7,1.6-1.2,3.1-1.6,4.7 c-0.4,1.5-0.6,2.7-0.6,3.7c0,1.1,0.4,1.7,1.3,1.7c0.8,0,1.8-0.7,2.8-2.2c0.1-0.1,0.2-0.1,0.3,0s0.1,0.2,0.1,0.3 c-0.6,0.9-1.3,1.7-2.1,2.4s-1.7,1-2.5,1s-1.5-0.2-1.9-0.6c-0.4-0.4-0.6-1-0.6-1.7c0-0.9,0.2-2.2,0.7-3.9s1-3.4,1.8-5.1 c-0.8,0.1-1.6,0.2-2.3,0.4c-0.2,0-0.2-0.1-0.1-0.2c0.1-0.1,0.2-0.3,0.4-0.4c0.2-0.1,0.5-0.3,0.8-0.4c0.3-0.1,0.6-0.2,0.8-0.2 c0.1,0,0.3,0,0.4,0c0.1,0,0.3,0,0.4,0c0.4-0.9,0.9-1.9,1.3-2.7c0.5-0.9,0.9-1.7,1.4-2.4c0.2-0.2,0.5-0.4,0.8-0.6s0.7-0.3,1-0.4 s0.6-0.2,0.8-0.2s0.3,0,0.3,0.2c-0.6,0.8-1.1,1.8-1.6,2.8c-0.5,1-1,2.1-1.5,3.3c0.6,0,1.2,0,1.9,0C20,24.4,20.5,24.4,21.1,24.4z M50.7,0c0.5,0,0.9,0.1,1.2,0.4c0.3,0.2,0.5,0.6,0.6,1s0.1,0.9,0,1.4s-0.3,1-0.6,1.6c-0.1,0.1-0.1,0.1-0.2,0s-0.2-0.1-0.2-0.2 c0.1-0.4-0.1-0.7-0.4-1s-0.9-0.4-1.6-0.4c-1.3,0-2.7,0.5-4,1.5c-1.4,1-2.7,2.3-3.9,3.9c-1.3,1.6-2.5,3.5-3.6,5.6s-2.1,4.3-2.9,6.5 s-1.5,4.5-1.9,6.7c-0.5,2.2-0.7,4.2-0.7,6.1c0,1,0.3,1.5,0.8,1.5c0.4,0,0.8-0.2,1.1-0.5c0.4-0.3,0.8-0.8,1.3-1.5 c0.1-0.1,0.2-0.1,0.3,0c0.1,0.1,0.1,0.2,0.1,0.3c-0.7,1-1.4,1.8-2.3,2.4c-0.9,0.7-1.7,1-2.4,1c-0.6,0-1-0.2-1.3-0.5 c-0.2-0.4-0.4-0.8-0.4-1.4c0-1.5,0.3-3.4,1-5.7s1.5-4.7,2.6-7.3s2.4-5.1,3.8-7.6S40,9,41.6,6.9c1.5-2,3.1-3.7,4.7-5 C47.9,0.6,49.4,0,50.7,0z M7.4,60c-0.5,0-0.9-0.1-1.2-0.4c-0.3-0.2-0.5-0.6-0.6-1s-0.1-0.9,0-1.4s0.3-1,0.6-1.6 c0.1-0.1,0.1-0.1,0.2,0c0.1,0.1,0.2,0.1,0.2,0.2c-0.1,0.4,0.1,0.7,0.4,1c0.3,0.3,0.9,0.4,1.6,0.4c1.3,0,2.7-0.5,4-1.5 c1.4-1,2.7-2.3,3.9-3.9c1.3-1.6,2.5-3.5,3.6-5.6s2.1-4.3,2.9-6.5c0.8-2.2,1.5-4.5,1.9-6.7c0.5-2.2,0.7-4.2,0.7-6.1 c0-1-0.3-1.5-0.8-1.5c-0.4,0-0.8,0.2-1.1,0.5c-0.4,0.3-0.8,0.8-1.3,1.5c-0.1,0.1-0.2,0.1-0.3,0S22,27.2,22,27.1 c0.7-1,1.4-1.8,2.3-2.4c0.9-0.7,1.7-1,2.4-1c0.6,0,1,0.2,1.3,0.5c0.2,0.4,0.4,0.8,0.4,1.4c0,1.5-0.3,3.4-1,5.7s-1.5,4.7-2.6,7.3 s-2.4,5.1-3.8,7.6c-1.4,2.5-2.9,4.8-4.5,6.9c-1.5,2-3.1,3.7-4.7,5C10.2,59.3,8.7,60,7.4,60z M40.4,36.7c-1.4,0-2.1-0.7-2.1-2.2 c0-0.5,0.1-1.1,0.2-1.8s0.3-1.4,0.5-2.1s0.5-1.5,0.9-2.2c0.3-0.7,0.7-1.5,1.2-2.1c-0.4,0.2-0.7,0.5-1,0.7s-0.6,0.5-0.9,0.8 c-0.1,0.1-0.2,0-0.3-0.1c-0.1-0.1-0.1-0.2,0-0.3c0.6-0.6,1.3-1.2,2.4-1.8c1-0.6,2-1.1,3-1.5c0.2,0,0.3,0,0.4,0.1s0.1,0.2,0,0.3 c-1,1.4-1.9,2.8-2.5,4.4c-0.6,1.6-1,3.1-1,4.6c0,0.9,0.3,1.4,0.9,1.4c0.4,0,0.9-0.3,1.6-0.9c0.6-0.6,1.3-1.3,2-2.2s1.4-2,2.1-3.1 c0.7-1.2,1.3-2.4,1.9-3.6c0.1-0.2,0.4-0.4,0.9-0.6c0.5-0.2,1-0.3,1.4-0.3c0.5,0,0.6,0.1,0.4,0.4c-0.5,0.8-0.9,1.6-1.2,2.4 c-0.3,0.7-0.6,1.5-0.9,2.2c-0.2,0.7-0.4,1.4-0.5,2.2c-0.1,0.7-0.2,1.5-0.2,2.4c0,1,0.3,1.6,0.8,1.6c0.6,0,1.2-0.5,1.9-1.5 c0.1-0.1,0.2-0.1,0.3,0c0.1,0.1,0.1,0.2,0.1,0.3c-0.6,0.8-1.2,1.5-1.8,1.9c-0.7,0.4-1.3,0.7-1.8,0.7c-1.4,0-2.1-0.8-2.1-2.4 c0-1.7,0.3-3.3,0.9-4.9c-1.2,2.2-2.5,4-3.9,5.3C42.5,36,41.3,36.7,40.4,36.7z M60.5,24.2c0.7,0,1.3,0.1,1.7,0.3 c0.4,0.2,0.7,0.4,0.7,0.7c0,0.4-0.1,0.8-0.3,1.2c-0.2,0.5-0.4,0.8-0.5,1.1c-0.1,0.1-0.1,0.1-0.2,0c-0.1,0-0.1-0.1-0.1-0.3 c0.1-0.2,0.1-0.6,0.1-1c0-0.5-0.1-0.8-0.4-1.1c-0.2-0.3-0.6-0.4-1-0.4c-0.6,0-1,0.2-1.3,0.5s-0.5,0.8-0.5,1.4c0,0.5,0.1,1,0.4,1.5 s0.6,0.9,0.9,1.4s0.7,1,1,1.5s0.4,1.1,0.4,1.8c0,1.2-0.5,2.1-1.4,2.7c-0.9,0.7-2.2,1-3.7,1c-1.1,0-2-0.2-2.6-0.5 c-0.6-0.4-1-0.7-1-1.2c0-0.1,0-0.3,0.1-0.5s0.2-0.5,0.4-0.7c0.2-0.3,0.3-0.5,0.5-0.8s0.4-0.5,0.6-0.6c0.1-0.1,0.2,0,0.3,0 c0.1,0.1,0.1,0.2,0,0.3c-0.2,0.2-0.3,0.4-0.4,0.6c-0.1,0.2-0.1,0.5-0.1,0.9c0,0.6,0.2,1.1,0.6,1.4c0.4,0.4,0.9,0.6,1.5,0.6 c0.8,0,1.5-0.2,2-0.7s0.7-1,0.7-1.7c0-0.6-0.1-1.2-0.4-1.7s-0.6-1.1-0.9-1.6s-0.6-1-0.9-1.5s-0.4-1.1-0.4-1.7c0-0.8,0.4-1.6,1.1-2.1 C58.1,24.4,59.1,24.2,60.5,24.2z"/>
</svg>
