<?xml version="1.0" encoding="utf-8"?>
<svg version="1.1" id="logo-jade" xmlns="http://www.w3.org/2000/svg" viewBox="0 0 20.3 11.6">
  <path d="M0,1.6c0-0.2,0.1-0.4,0.2-0.5s0.3-0.2,0.5-0.2c0.2,0,0.4,0.1,0.5,0.2c0.2,0.2,0.2,0.3,0.2,0.5
    c0,0.2-0.1,0.4-0.2,0.5C1.1,2.3,1,2.4,0.8,2.4c-0.2,0-0.4-0.1-0.5-0.2C0.1,2,0,1.8,0,1.6z M1.3,3.7v7.8H0.2V3.7H1.3z M6.6,3.7h1.2
    v5.1H6.6V8.3C6.1,8.8,5.6,9,5,9C4.3,9,3.7,8.7,3.3,8.2C2.8,7.7,2.6,7.1,2.6,6.3c0-0.8,0.2-1.4,0.7-1.9s1-0.8,1.7-0.8
    c0.6,0,1.1,0.3,1.6,0.7C6.6,4.4,6.6,3.7,6.6,3.7z M3.8,6.2c0,0.5,0.1,0.9,0.4,1.2c0.3,0.3,0.6,0.5,1,0.5c0.4,0,0.8-0.2,1.1-0.5
    c0.3-0.3,0.4-0.7,0.4-1.2S6.5,5.4,6.2,5.1C6,4.8,5.6,4.7,5.2,4.7c-0.4,0-0.7,0.2-1,0.5C3.9,5.4,3.8,5.8,3.8,6.2z M13,0h1.2v8.8H13
    V8.3C12.5,8.7,12,9,11.4,9c-0.7,0-1.3-0.3-1.7-0.8C9.2,7.7,9,7,9,6.2c0-0.8,0.2-1.4,0.7-1.9c0.5-0.5,1-0.8,1.7-0.8
    c0.6,0,1.1,0.3,1.6,0.7C13,4.3,13,0,13,0z M10.2,6.2c0,0.5,0.1,0.9,0.4,1.2c0.3,0.3,0.6,0.5,1,0.5c0.4,0,0.8-0.2,1.1-0.5
    c0.3-0.3,0.4-0.7,0.4-1.2s-0.1-0.9-0.4-1.2c-0.3-0.3-0.6-0.5-1-0.5c-0.4,0-0.7,0.2-1,0.5C10.3,5.4,10.2,5.8,10.2,6.2z M20.3,6.6
    h-3.6c0,0.4,0.2,0.8,0.4,1c0.2,0.3,0.6,0.4,0.9,0.4c0.3,0,0.5-0.1,0.7-0.2c0.2-0.1,0.4-0.4,0.6-0.8l1,0.6c-0.2,0.3-0.3,0.5-0.5,0.7
    c-0.2,0.2-0.4,0.3-0.6,0.5c-0.2,0.1-0.4,0.2-0.6,0.3C18.4,8.9,18.2,9,17.9,9c-0.8,0-1.4-0.3-1.8-0.7c-0.5-0.5-0.7-1.1-0.7-1.9
    s0.2-1.4,0.7-1.9c0.5-0.5,1-0.7,1.8-0.7s1.3,0.2,1.8,0.7s0.7,1.1,0.7,2L20.3,6.6z M19.1,5.6c-0.2-0.6-0.6-0.9-1.2-0.9
    c-0.2,0-0.3,0-0.4,0.1s-0.2,0.1-0.4,0.2C17,5,16.9,5.1,16.9,5.2c-0.1,0.1-0.1,0.3-0.2,0.4H19.1z"/>
</svg>
