<?xml version="1.0" encoding="utf-8"?>
<svg version="1.1" id="logo-jade-color-padded" xmlns="http://www.w3.org/2000/svg" viewBox="0 0 121.7 81.3">
  <path fill="#00A86B" d="M21.2 24c0-0.8 0.3-1.5 0.9-2.1 0.6-0.6 1.3-0.9 2.1-0.9 0.8 0 1.6 0.3 2.1 0.9 0.6 0.6 0.9 1.3 0.9 2.1 0 0.8-0.3 1.6-0.9 2.1 -0.6 0.6-1.3
    0.9-2.1 0.9 -0.8 0-1.6-0.3-2.1-0.9C21.5 25.6 21.2 24.9 21.2 24zM26.5 32.4v31h-4.6v-31H26.5zM47.2 32.4h4.7v20.1h-4.7v-2.1c-1.9 1.8-4 2.7-6.2 2.7
    -2.8 0-5.1-1-6.9-3 -1.8-2-2.7-4.6-2.7-7.7 0-3 0.9-5.5 2.7-7.5s4.1-3 6.8-3c2.3 0 4.4 1 6.3 2.9V32.4zM36.2 42.3c0 1.9 0.5 3.5 1.5 4.7 1.1 1.2 2.4
    1.8 4 1.8 1.7 0 3.1-0.6 4.2-1.8 1.1-1.2 1.6-2.8 1.6-4.7S47 39 45.9 37.8c-1.1-1.2-2.4-1.8-4.1-1.8 -1.6 0-2.9 0.6-4 1.8C36.7 39 36.2 40.5 36.2
    42.3zM72.5 17.6h4.7v34.8h-4.7v-2.1c-1.8 1.8-3.9 2.7-6.2 2.7 -2.7 0-5-1-6.8-3 -1.8-2-2.7-4.6-2.7-7.7 0-3 0.9-5.5 2.7-7.5 1.8-2 4-3 6.7-3 2.4 0
    4.5 1 6.3 2.9V17.6zM61.5 42.3c0 1.9 0.5 3.5 1.5 4.7 1.1 1.2 2.4 1.8 4 1.8 1.7 0 3.1-0.6 4.2-1.8 1.1-1.2 1.6-2.8
    1.6-4.7s-0.5-3.4-1.6-4.7c-1.1-1.2-2.4-1.8-4.1-1.8 -1.6 0-2.9 0.6-4 1.8C62 39 61.5 40.5 61.5 42.3zM101.3 43.5H86.9c0.1 1.6 0.7 3 1.6 3.9 0.9 1
    2.2 1.4 3.6 1.4 1.2 0 2.1-0.3 2.9-0.8 0.7-0.5 1.6-1.6 2.5-3.1l3.9 2.2c-0.6 1-1.2 1.9-1.9 2.6 -0.7 0.7-1.4 1.3-2.2 1.8 -0.8 0.5-1.6 0.8-2.5 1C94
    52.9 93.1 53 92 53c-3 0-5.4-1-7.2-2.9 -1.8-1.9-2.7-4.5-2.7-7.7 0-3.2 0.9-5.7 2.6-7.7 1.8-1.9 4.1-2.9 7.1-2.9 3 0 5.3 0.9 7 2.8 1.7 1.9 2.6 4.5
    2.6 7.8L101.3 43.5zM96.5 39.7c-0.6-2.5-2.2-3.7-4.7-3.7 -0.6 0-1.1 0.1-1.6 0.3 -0.5 0.2-0.9 0.4-1.4 0.7 -0.4 0.3-0.8 0.7-1 1.2 -0.3 0.5-0.5 1-0.7
    1.5H96.5z"/>
</svg>
