<?xml version="1.0" encoding="utf-8"?>
<svg version="1.1" id="logo-jade-color" xmlns="http://www.w3.org/2000/svg" viewBox="0 0 121.7 69.5">
  <path fill="#00A86B" d="M0,9.7c0-1.2,0.5-2.3,1.4-3.2s2-1.4,3.2-1.4c1.2,0,2.4,0.5,3.2,1.4c0.9,0.9,1.4,2,1.4,3.2c0,1.2-0.5,2.4-1.4,3.2 c-0.9,0.9-2,1.4-3.2,1.4c-1.2,0-2.4-0.5-3.2-1.4C0.5,12.1,0,11.1,0,9.7z M8,22.5v47h-7v-47H8z M39.5,22.5h7.1V53h-7.1v-3.2 c-2.9,2.7-6.1,4.1-9.4,4.1c-4.2,0-7.7-1.5-10.5-4.6c-2.7-3-4.1-7-4.1-11.7c0-4.6,1.4-8.3,4.1-11.4s6.2-4.6,10.3-4.6	c3.5,0,6.7,1.5,9.6,4.4C39.5,26.1,39.5,22.5,39.5,22.5z M22.8,37.5c0,2.9,0.8,5.3,2.3,7.1c1.7,1.8,3.6,2.7,6.1,2.7 c2.6,0,4.7-0.9,6.4-2.7c1.7-1.8,2.4-4.2,2.4-7.1c0-2.9-0.8-5-2.4-6.8c-1.7-1.8-3.6-2.7-6.2-2.7c-2.4,0-4.4,0.9-6.1,2.7 C23.5,32.5,22.8,34.7,22.8,37.5z M77.8,0H85v52.8h-7.1v-3.2c-2.7,2.7-5.9,4.1-9.4,4.1c-4.1,0-7.6-1.5-10.3-4.6 c-2.7-3-4.1-7-4.1-11.7c0-4.6,1.4-8.3,4.1-11.4c2.7-3,6.1-4.6,10.2-4.6c3.6,0,6.8,1.5,9.6,4.4C77.8,25.9,77.8,0,77.8,0z M61.2,37.5 c0,2.9,0.8,5.3,2.3,7.1c1.7,1.8,3.6,2.7,6.1,2.7c2.6,0,4.7-0.9,6.4-2.7c1.7-1.8,2.4-4.2,2.4-7.1c0-2.9-0.8-5.2-2.4-7.1 c-1.7-1.8-3.6-2.7-6.2-2.7c-2.4,0-4.4,0.9-6.1,2.7C61.9,32.5,61.2,34.7,61.2,37.5z M121.5,39.3H99.7c0.2,2.4,1.1,4.6,2.4,5.9 c1.4,1.5,3.3,2.1,5.5,2.1c1.8,0,3.2-0.5,4.4-1.2c1.1-0.8,2.4-2.4,3.8-4.7l5.9,3.3c-0.9,1.5-1.8,2.9-2.9,3.9c-1.1,1.1-2.1,2-3.3,2.7 c-1.2,0.8-2.4,1.2-3.8,1.5c-1.2,0.6-2.6,0.8-4.2,0.8c-4.6,0-8.2-1.5-10.9-4.4c-2.7-2.9-4.1-6.8-4.1-11.7s1.4-8.6,3.9-11.7 c2.7-2.9,6.2-4.4,10.8-4.4c4.6,0,8,1.4,10.6,4.2c2.6,2.9,3.9,6.8,3.9,11.8L121.5,39.3z M114.3,33.5c-0.9-3.8-3.3-5.6-7.1-5.6 c-0.9,0-1.7,0.2-2.4,0.5c-0.8,0.3-1.4,0.6-2.1,1.1c-0.6,0.5-1.2,1.1-1.5,1.8c-0.5,0.8-0.8,1.5-1.1,2.3H114.3z"/>
</svg>
