<?xml version="1.0" encoding="utf-8"?>
<svg version="1.1" id="logo-jade-knockout" xmlns="http://www.w3.org/2000/svg" viewBox="0 0 80.2 45.8">
  <path fill="#FFF" d="M0,6.4c0-0.8,0.3-1.5,0.9-2.1S2.2,3.4,3,3.4c0.8,0,1.6,0.3,2.1,0.9C5.7,4.9,6,5.6,6,6.4C6,7.2,5.7,8,5.1,8.5 C4.5,9.1,3.8,9.4,3,9.4c-0.8,0-1.6-0.3-2.1-0.9C0.3,8,0,7.3,0,6.4z M5.3,14.8v31H0.7v-31H5.3z M26,14.8h4.7v20.1H26v-2.1 c-1.9,1.8-4,2.7-6.2,2.7c-2.8,0-5.1-1-6.9-3c-1.8-2-2.7-4.6-2.7-7.7c0-3,0.9-5.5,2.7-7.5s4.1-3,6.8-3c2.3,0,4.4,1,6.3,2.9 C26,17.2,26,14.8,26,14.8z M15,24.7c0,1.9,0.5,3.5,1.5,4.7c1.1,1.2,2.4,1.8,4,1.8c1.7,0,3.1-0.6,4.2-1.8c1.1-1.2,1.6-2.8,1.6-4.7 s-0.5-3.3-1.6-4.5s-2.4-1.8-4.1-1.8c-1.6,0-2.9,0.6-4,1.8C15.5,21.4,15,22.9,15,24.7z M51.3,0H56v34.8h-4.7v-2.1 c-1.8,1.8-3.9,2.7-6.2,2.7c-2.7,0-5-1-6.8-3s-2.7-4.6-2.7-7.7c0-3,0.9-5.5,2.7-7.5s4-3,6.7-3c2.4,0,4.5,1,6.3,2.9 C51.3,17.1,51.3,0,51.3,0z M40.3,24.7c0,1.9,0.5,3.5,1.5,4.7c1.1,1.2,2.4,1.8,4,1.8c1.7,0,3.1-0.6,4.2-1.8s1.6-2.8,1.6-4.7 S51.1,21.3,50,20c-1.1-1.2-2.4-1.8-4.1-1.8c-1.6,0-2.9,0.6-4,1.8C40.8,21.4,40.3,22.9,40.3,24.7z M80.1,25.9H65.7 c0.1,1.6,0.7,3,1.6,3.9c0.9,1,2.2,1.4,3.6,1.4c1.2,0,2.1-0.3,2.9-0.8c0.7-0.5,1.6-1.6,2.5-3.1l3.9,2.2c-0.6,1-1.2,1.9-1.9,2.6 c-0.7,0.7-1.4,1.3-2.2,1.8c-0.8,0.5-1.6,0.8-2.5,1c-0.8,0.4-1.7,0.5-2.8,0.5c-3,0-5.4-1-7.2-2.9c-1.8-1.9-2.7-4.5-2.7-7.7 s0.9-5.7,2.6-7.7c1.8-1.9,4.1-2.9,7.1-2.9s5.3,0.9,7,2.8s2.6,4.5,2.6,7.8L80.1,25.9z M75.3,22.1c-0.6-2.5-2.2-3.7-4.7-3.7 c-0.6,0-1.1,0.1-1.6,0.3s-0.9,0.4-1.4,0.7c-0.4,0.3-0.8,0.7-1,1.2c-0.3,0.5-0.5,1-0.7,1.5H75.3z"/>
</svg>
