<svg xmlns="http://www.w3.org/2000/svg" viewBox="0 0 240 106" enable-background="new 0 0 240 106"><path d="M46.6 24.3c.9 0 1.3.4 1.3 1.3v44.8c0 1.7-.3 3.2-1 4.7s-1.5 2.7-2.6 3.8c-1.1 1.1-2.4 2-3.8 2.6-1.4.6-3 1-4.7 1h-3.7c-1.7 0-3.2-.3-4.7-1-1.5-.6-2.7-1.5-3.8-2.6-1.1-1.1-2-2.4-2.6-3.8-.7-1.5-1-3-1-4.7v-10.2c0-.9.4-1.5 1.2-1.7l8.7-2.3c.8-.2 1.2.1 1.2 1v12.9c0 .7.2 1.2.7 1.6.4.4 1 .7 1.6.7h.8c.6 0 1.2-.2 1.6-.7.4-.4.7-1 .7-1.6v-44.5c0-.9.4-1.3 1.3-1.3h8.8zm37.4 56.2l-7.3-54.9c-.1-.9-.6-1.3-1.5-1.3h-12.7c-.9 0-1.4.4-1.5 1.3l-7.2 54.9c-.1.9.3 1.3 1.2 1.3h8.7c.8 0 1.3-.4 1.4-1.3l.8-9.4h6l.8 9.4c.1.9.6 1.3 1.4 1.3h8.7c1 0 1.3-.4 1.2-1.3zm-17.3-20.1l1.8-21.2h.8l1.8 21.2h-4.4zm50.5-28.7c-.6-1.4-1.5-2.7-2.6-3.8-1.1-1.1-2.3-1.9-3.8-2.6s-3-1-4.7-1h-14.4c-.9 0-1.3.4-1.3 1.3v55c0 .9.4 1.3 1.3 1.3h14.4c1.7 0 3.2-.3 4.7-1 1.4-.6 2.7-1.5 3.8-2.6 1.1-1.1 1.9-2.3 2.6-3.8s1-3 1-4.7v-33.4c0-1.7-.4-3.3-1-4.7zm-10.3 37.7c0 .6-.3 1.2-.7 1.6-.4.5-1 .7-1.6.7h-3.1v-37.1h3.1c.6 0 1.2.3 1.6.7.5.4.7 1 .7 1.6v32.5zm42.5 2.6v8.6c0 .9-.4 1.3-1.3 1.3h-20.8c-.9 0-1.3-.4-1.3-1.3v-55c0-.9.4-1.3 1.3-1.3h20.8c.9 0 1.3.4 1.3 1.3v8.6c0 .9-.4 1.3-1.3 1.3h-11v11h9.5c.9 0 1.3.4 1.3 1.3v8.6c0 .9-.4 1.3-1.3 1.3h-9.5v13h11c.8-.1 1.3.4 1.3 1.3zm52.6-17.5c-1.2-.2-2.4-.6-3.6-.4-.6.1-2.4.5-1.3 1.1l.1.1c.8 1.6 2.8 1.6 4.5 1.8 1 .1 2.1.2 2.9-.4.3-.3.3-.7 0-1-.7-.7-1.6-1-2.6-1.2zm17.2 26.3c-.8-.4-.4-.6-.2-1.3.2-.5.1-1.1 0-1.6 0 0 0-.1-.1-.1-.2-.9.4-1.5.4-2.5 0-1.1-.6-2-.4-3.1.1-.7.6-1 .4-1.7-.2-.8-1.1-.6-.5-1.8.1-.4.2-.6.2-1 0 0 0-.1-.1-.1-1.2-.4-.3-2.4-.1-3.2.1-.8 0-1.6-.2-2.4-.3-1.5.1-2.7.2-4.1 0-1.1-.3-2.2-.2-3.4.1-.4.2-1.1-.1-1.5-.6-.6-1.8-.1-1.6-1.2.4-2 2.2-3.3 1.8-5.5-.1-.7-.3-1.2-.3-1.9l.5-2.5c.2-1.2.2-2.6.3-3.9 0-1.2 0-2.3-.2-3.4l-.7-1.5c-.3-.8.1-1.7.3-2.4.4-1.1.3-2.3.2-3.5-.1-1.1-.7-1.7-1.3-2.5-.5-.7.2-1.5-.5-2.1-.3-.3-.7-.3-1.1-.2l-3.7-.9c-1-.2-1.7-.5-2.7-.2l-1.4.5c-.7.2-1.6 0-2.3 0l-4.9-.2c-3.2-.1-6.3-.2-9.4 0-1.5.1-2.9.1-4.3 0s-2.8-.5-4.3-.6c-1.3-.1-2.4.1-3.6.3-1.7.4-3.4.4-5.1.4-3 0-5.9-.3-8.9-.2-2.3.1-4.8-.1-6.9 1.1-1.3.8-1.2 3.7-1.2 4.1 0 2.3 0 4.7-.1 7.1 0 1.5-.1 2.8-.2 4.2-.1 1.6.2 3.1.4 4.7.2 1.4.1 2.8 0 4.2-.1 1.2-.5 2.5-.1 3.7.2.6.3.9-.1 1.4-.2.3-.1.6-.1.9.1.6.2 1.2.2 1.8 0 .8-.1 1.6-.2 2.4-.1 1.1-.3 2.2-.2 3.3 0 .2.1.4.2.6.5.5.8 1.1.4 1.8-.5.9-.5 2.2-.6 3.2-.1 1.6 0 3.1.1 4.6.3 2.9.5 5.8.6 8.8 0 1.2-.1 2.4.1 3.6.1.5.2.9.4 1.3.3.6 2.7 1 3.5.7.3-.1.5-.3.7-.5.1-.2.2-.3.4-.4.7-.6.9.3 1 .8 0 .1.1.2.2.2 1.2.1 2.4.1 3.5-.3.4-.2.7-.5 1-.8.2-.2 1.3.7 1.5.8 1.3.6 2.2-.5 3-1.5.5-.3.9-.5 1.4-.7.8-.3 1.6.1 2.3.5.1 0 1.5.8 1.5.9s.1.2.2.2.2-.1.2-.2c0-2.1 1.3-1.4 1.9-.4.3.5.9.5 1.4.5.1 0 .2 0 .2-.1.1-1-.3-2.5.9-3 .2-.1.5-.4.3-.3l-.2-.2c-.5-.2-1.3-.1-1.8 0-1 .2-1.8.1-2.8-.1s-1.7.1-2.5.4c-.1.3-1 .3-1 .3-.6 0-1.3-.3-1.8-.5-.5-.1-1.1-.2-1.7-.2-.7 0-1.5.1-2.3.2-2.2.2-4.3.4-6.4.3-.8 0-1.8-.2-2.5-.6-1.3-.8 0-2.8.2-4 .5-3.5-.1-7-.2-10.5-.2-3.8.1-7.6.2-11.3l.3-11.2c0-1.1 0-2.4-.5-3.5-.3-.6-.8-1-1-1.7-.4-1 .1-2.4.3-3.4.4-1.9.6-3.7.6-5.6l.1-1.3c0-.5.7-1.5.5-1.7 0-.2.1-.5.9-.8.5-.2 1.2 0 1.7.1.6.1 1.2.1 1.8.1 2.8.1 5.7-.1 8.5-.1 1.3 0 2.5-.2 3.8-.3 1.4-.1 2.6.1 3.8.5 2.1.6 4.5-1.6 6.3-.1.1.1.2.1.3 0 1-.8 3.1-.3 4.2-.2 1.9.2 3.9.1 5.8-.1 2.1-.1 4.1-.4 6.2-.3 1.5.1 3.2-.1 4.6.4l.3.6.2.3c-.1.2-.3.4-.6.5-1.3.5-2.8.4-4.1.4-2.2 0-4.5.3-6.7.2-.4-.1-.7-.2-1.1-.1-.4-.1-.7-.2-1.1-.2l-2.2.1c-1.4 0-2.9.3-4.1-.5-.8-.6-1.4 1-2.3.8-1.2-.3-2.6-.7-3.9-.8-.5 0-1.1.2-1.6.4-1 .3-2 .3-3 .3-2.9.1-5.7.3-8.6.3 0-.1 0-.1-.1-.1h-1.8c0-.1-.1-.1-.1-.1-1.4-.4-3 0-4.5.1h-.1c-.1 0-.2 0-.2.1.2 5.5-.3 10.9-.2 16.4.1 2.7.1 5.4-.4 8.1-.4 2.5-.4 4.9-.3 7.4.2 4.9.8 9.9.6 14.8 0 .7-.2 3.3.5 4.1-.1.1 0 .5.1.5h.2c.2 0 .4-.2.6-.3 5.4-.1 10.7-.7 16-.4.2 0 .3-.3.2-.4.9-.2 1.6-.1 2.4.2.4.2.8.3 1.2.2.5-.2.9-.4 1.3-.6 1.1-.5 1.8 0 2.8.4.9.3 1.8.5 2.6.1 1.5-.6 3.1-.5 4.7-.3l1.8.3 1.3.6c.4.1.9-.1 1.2-.3.9-.3 2-.3 2.9-.2 3.7.2 7.3.1 10.9-.6.1 0 .1-.1.1-.2.3-1.8 0-3.5.1-5.2.1-1.6.7-3.1.4-4.7-.7-3.9 0-7.8 0-11.7 0 0 .2-4.3.2-6.6l.5-2.2c0-1.8-.6-3.5-.7-5.3l-.1-.1c-.1-1.5-.2-3.1-.3-4.7-.1-1.9-.1-3.8-.1-5.7 0-.7-.1-1.6.3-2.3.2-.4.6-.8.7-1.2.2-.6-.3-1-.8-1.1-.6-.1-1.3.1-1.9.1-.5 0-1-.1-1.5-.3l-.3-.4c.2-.5.1-1 .1-1.4 2-1.3 4.1.1 6.2.3.9.1.7.8.3 1.2-.3.3-.2.8-.2 1.1-.1.6 0 1.3 0 1.9 0 .7-.3 1.6-.5 2.3-.3 1.2-.5 2.4-.3 3.6l1.1 3.7c.1 1.5-.1 3-.2 4.5-.1 1.6 0 3.2 0 4.8 0 3.1.1 6.1-.3 9.1-.3 3 0 6.1.2 9.2.2 3.2.5 6.4.3 9.6 0 1.2-.2 2.5-.9 3.5-.9 1.1-2.3.5-3.4.1-.1 0-.3.1-.3.2 0 .9-1 1-1.1.2 0-.2 0-.3-.1-.5-.2-.4-.5-.5-.9-.5-1.4-.1-2.7 1.7-3.8.1 0-.1-.2-.1-.3 0-.7.9-1.6 1.9-2.9 1.4 0 0-.1-.1-.2-.1-3 .1-6 .3-9.1.1-2.1-.1-4.1.1-5.7 1.4-1 .9-.7 1.8.5 2.2 1.2.4 2.2 0 3.4-.3 1.5-.5 3 .4 4.6.1 1.5-.3 2.8-1.3 4.2-.2.7.5 1.2-.4 1.9-.7.7-.3 1.3.7 1.9 1 .2.1.6 0 .8-.1.8-.1 1.5-.2 2.2-.3 3-.2 5.9 0 8.9 0 .7 0 2 0 2.6-.6.6-.7.2-1.6 1-2.2.1-.1.2-.3-.7.1zm-12-22.2c.6 3.6-.7 7.2-5.1 6.5-.8-.1-1.9-.9-2.6-.6-.6.2-2.3 2.9-2.6 3.4-.9 1.4-1 4.4-2.7 4.8-2.5-.1-5 .1-7.3-.7-10.5-3.6-5.2-.3-5.2-.3-3 .3-6 1.3-9.1 1-2.4-.2-2.6-.2-3.4-2.8-.8-2.6-1.9-5.1-3-7.6-.5-1.1-1.9-4.4-.8-5.5 1.2-1.2.7.9 1.6 1.1-.2 0 1.4-4.7 1.6-5.2.9-2.1 2-4.1 3.8-5.6 3.6-3 8-3.6 12.6-3 1.7.1 3.4.3 4.7 1.3 1.6 1.3 2.8 2.6 5.3 1.7 2.3-.9.7-2.3-.4-3.8-1.5-2.1-2.7-4.5-3.9-6.8-.5-1.1-4.3-7-3.1-7.8.5-.4 3.5.3 4.1.7 1.2.9 3.1 4.6 3.7 6.2 1.5 3.5 2.7 8.1 6.2 10.2 2.1 1.2 1.3-.6.9-2.2-.6-2.2-.7-4.6-1.1-6.9-.2-1.5-.9-3 1-2.7 1.4.2 1.7 1.6 2.1 2.8 1 3 1.3 6.1 1.8 9.2.1.8 1.1 2.7 1.1 3.7-.4 2.4-.8 5.8-.2 8.9zm-20.6 24.9l-1.7-1c-.2-.3-.3-.6-.3-.9-.3-.6.4-1.2 1-.9.3.1.7.3.7.7 0 .4-.2.7-.3 1.2.3.2.6.6.8.8.2.1 0 .3-.2.1"/></svg>