<?xml version="1.0" encoding="utf-8"?>
<svg version="1.1" id="logo-less" xmlns="http://www.w3.org/2000/svg" viewBox="0 0 121.7 52.1" enable-background="new 0 0 121.7 52.1">
	<path d="M116.7,19c0-3.9,0.6-6.2,0.6-10.4c0-6.5-2.4-8.6-7.7-8.6h-3.9v4.6h1.2c2.7,0,3.3,0.9,3.3,4.2c0,3.1-0.3,6.2-0.3,9.8 c0,4.6,1.5,6.4,4.5,7.1V26c-3,0.7-4.5,2.5-4.5,7.1c0,3.6,0.3,6.5,0.3,9.8c0,3.4-0.7,4.3-3.3,4.3v0.1h-1.2v4.8h3.9 c5.3,0,7.7-2.1,7.7-8.6c0-4.3-0.6-6.5-0.6-10.4c0-2.1,1.3-4.3,5.2-4.5v-5.2C118,23.3,116.7,21.1,116.7,19z M96.6,25.1c-3-1.2-5.8-1.9-5.8-3.9c0-1.5,1.2-2.4,3.4-2.4s4.2,0.9,6.4,2.5l4-5.3c-2.5-1.9-5.9-3.9-10.5-3.9 c-6.8,0-11.4,3.9-11.4,9.4c0,4.9,4.3,7.4,7.9,8.8c3.1,1.2,6.1,2.2,6.1,4.2c0,1.5-1.2,2.5-3.9,2.5c-2.5,0-5-1-7.7-3.1l-4,5.8 c3,2.5,7.6,4.2,11.4,4.2c8,0,12.3-4.2,12.3-9.7C104.8,28.7,100.5,26.4,96.6,25.1z M28.3,36.4c-0.7,0-1.6-0.6-1.6-2.5V4.8V0.4V0H12.5C7.1,0,4.7,2.1,4.7,8.6c0,4.3,0.6,6.7,0.6,10.4c0,2.1-1.3,4.3-5.2,4.5 v5.2C4,28.8,5.3,31,5.3,33.1c0,3.7-0.6,5.9-0.6,10.2c0,6.5,2.4,8.6,7.7,8.6h3.9v-4.6h-1.2c-2.5,0-3.3-1-3.3-4.3 c0-3.3,0.3-6.1,0.3-9.8c0-4.6-1.5-6.4-4.5-7.1v-0.3c3-0.7,4.5-2.5,4.5-7.1c0-3.6-0.3-6.5-0.3-9.8s0.7-4.2,3.3-4.2h2.7 c0,6.5,0,28.7,0,28.7c0,6.1,2.1,10.1,8.2,10.1c1.9,0,3.4-0.3,4.5-0.7l-1-6.5C28.9,36.4,28.6,36.4,28.3,36.4z M72.4,25.1c-3.1-1.2-5.9-1.9-5.9-3.9c0-1.5,1.2-2.4,3.4-2.4c2.2,0,4.2,0.9,6.4,2.5l4-5.3c-2.5-1.9-5.9-3.9-10.5-3.9 c-6.8,0-11.4,3.9-11.4,9.4c0,4.9,4.3,7.4,7.9,8.8c3.1,1.2,6.1,2.2,6.1,4.2c0,1.5-1.2,2.5-3.9,2.5c-2.5,0-5-1-7.7-3.1l-3.9,5.8 c3,2.5,7.6,4.2,11.4,4.2c8,0,12.3-4.2,12.3-9.7C80.6,28.7,76.3,26.4,72.4,25.1z M42.9,12c-7.3,0-14.3,6.1-14.1,15.7c0,9.9,6.5,15.7,15.1,15.7c3.6,0,7.6-1.3,10.7-3.4l-3-5.3c-2.2,1.3-4.3,1.9-6.5,1.9 c-4,0-7.1-1.9-7.9-6.5h18.1c0.1-0.7,0.3-2.1,0.3-3.7C55.7,18.3,51.3,12,42.9,12z M37.2,24.6c0.6-4,3-5.9,5.8-5.9c3.6,0,5,2.5,5,5.9 H37.2z"/>
</svg>
