<?xml version="1.0" encoding="utf-8"?>
<svg version="1.1" id="logo-less" xmlns="http://www.w3.org/2000/svg" viewBox="0 0 121.7 81.3">
  <path d="M98.5,35.8c0-2.6,0.4-4.2,0.4-7c0-4.4-1.6-5.8-5.2-5.8h-2.6v3.1h0.8c1.8,0,2.2,0.6,2.2,2.8c0,2.1-0.2,4.2-0.2,6.6 c0,3.1,1,4.3,3,4.8v0.2c-2,0.5-3,1.7-3,4.8c0,2.4,0.2,4.4,0.2,6.6c0,2.3-0.5,2.9-2.2,2.9v0.1h-0.8v3.2h2.6c3.6,0,5.2-1.4,5.2-5.8 c0-2.9-0.4-4.4-0.4-7c0-1.4,0.9-2.9,3.5-3v-3.5C99.4,38.7,98.5,37.2,98.5,35.8z M85,39.9c-2-0.8-3.9-1.3-3.9-2.6c0-1,0.8-1.6,2.3-1.6s2.8,0.6,4.3,1.7l2.7-3.6c-1.7-1.3-4-2.6-7.1-2.6 c-4.6,0-7.7,2.6-7.7,6.3c0,3.3,2.9,5,5.3,5.9c2.1,0.8,4.1,1.5,4.1,2.8c0,1-0.8,1.7-2.6,1.7c-1.7,0-3.4-0.7-5.2-2.1l-2.7,3.9 c2,1.7,5.1,2.8,7.7,2.8c5.4,0,8.3-2.8,8.3-6.5C90.5,42.3,87.6,40.8,85,39.9z M39,47.5c-0.5,0-1.1-0.4-1.1-1.7V26.2v-2.9V23h-9.6c-3.6,0-5.2,1.4-5.2,5.8c0,2.9,0.4,4.5,0.4,7c0,1.4-0.9,2.9-3.5,3v3.5 c2.6,0.1,3.5,1.6,3.5,3c0,2.5-0.4,4-0.4,6.9c0,4.4,1.6,5.8,5.2,5.8h2.6v-3.1h-0.8c-1.7,0-2.2-0.7-2.2-2.9c0-2.2,0.2-4.1,0.2-6.6 c0-3.1-1-4.3-3-4.8v-0.2c2-0.5,3-1.7,3-4.8c0-2.4-0.2-4.4-0.2-6.6s0.5-2.8,2.2-2.8h1.8c0,4.4,0,19.3,0,19.3c0,4.1,1.4,6.8,5.5,6.8 c1.3,0,2.3-0.2,3-0.5l-0.7-4.4C39.4,47.5,39.2,47.5,39,47.5z M68.7,39.9c-2.1-0.8-4-1.3-4-2.6c0-1,0.8-1.6,2.3-1.6s2.8,0.6,4.3,1.7l2.7-3.6c-1.7-1.3-4-2.6-7.1-2.6 c-4.6,0-7.7,2.6-7.7,6.3c0,3.3,2.9,5,5.3,5.9c2.1,0.8,4.1,1.5,4.1,2.8c0,1-0.8,1.7-2.6,1.7c-1.7,0-3.4-0.7-5.2-2.1l-2.6,3.9 c2,1.7,5.1,2.8,7.7,2.8c5.4,0,8.3-2.8,8.3-6.5C74.2,42.3,71.3,40.8,68.7,39.9z M48.8,31.1c-4.9,0-9.6,4.1-9.5,10.6c0,6.7,4.4,10.6,10.2,10.6c2.4,0,5.1-0.9,7.2-2.3l-2-3.6c-1.5,0.9-2.9,1.3-4.4,1.3 c-2.7,0-4.8-1.3-5.3-4.4h12.2c0.1-0.5,0.2-1.4,0.2-2.5C57.4,35.3,54.5,31.1,48.8,31.1z M45,39.6c0.4-2.7,2-4,3.9-4 c2.4,0,3.4,1.7,3.4,4H45z"/>
</svg>
