<?xml version="1.0" encoding="utf-8"?>
<svg version="1.1" id="logo-haml-knockout" xmlns="http://www.w3.org/2000/svg" viewBox="0 0 121.7 51">
	<path fill="#FFF" d="M21.4,17.8l0.2-1.2h-9l-0.2,1.2c1.1,0.1,2.2,0.3,3.1,0.8v7.1H6v-7.1c0.9-0.5,1.9-0.7,3-0.8l0.2-1.2h-9 L0,17.8c1.1,0.1,2.2,0.3,3.1,0.8V35c-0.9,0.5-1.9,0.7-3,0.8L0,37.1h9l0.2-1.2C8.1,35.8,6.9,35.6,6,35v-7.6h9.6V35 c-0.9,0.5-1.9,0.7-3,0.8L12.5,37h9l0.2-1.2c-1.1-0.1-2.2-0.3-3.1-0.8V18.6C19.4,18.1,20.3,17.9,21.4,17.8z M34.7,26c0-2.8-2.1-4.4-5.5-4.4c-3.3,0-5.4,1.4-5.4,3.7c0,1.1,0.8,1.9,1.9,1.9c1.2,0,1.9-0.6,1.9-1.6 c-0.6-0.2-1-0.7-1-1.2c0-0.9,0.9-1.5,2.6-1.5c1.9,0,2.7,0.9,2.7,3.1v2.7l-2.6,0.2c-3.8,0.3-5.9,2-5.9,4.8c0,2.4,1.5,3.8,4.1,3.8 c1.7,0,3.1-0.4,4.5-1.7l0.3,1.5h4.5L37,36c-0.9-0.2-1.9-0.6-2.3-0.9V26z M31.9,34.1c-1.3,1.4-2.4,1.9-3.5,1.9c-1.4,0-2-0.9-2-2.7 s1.2-2.9,3.1-3.1l2.5-0.2V34.1z M61.1,26.4c0-3.6-2.3-4.9-4.9-4.9c-1.8,0-3.2,1.1-4.3,2.1c-0.8-1.4-2.2-2.1-4.2-2.1c-2.2,0-3.7,1.7-3.9,2 l-0.2-1.7L43,21.5c-1.3,0.4-2.6,0.9-4,1.1l-0.1,1c1.7,0.1,2.3,0.5,2.3,2.2v9.3c-0.7,0.5-1.2,0.7-2.2,0.8l-0.2,1.2h7.3l0.1-1.1 c-0.9-0.2-1.7-0.5-2.3-0.9v-9.5c0.3-1.1,1.7-2.5,3.3-2.5c1.6,0,2.5,1,2.5,3.3v8.7c-0.6,0.5-1.3,0.8-2.2,0.9l-0.1,1.1h7.2l0.1-1.1 c-0.9-0.2-1.9-0.6-2.3-0.9v-9.5c0.3-1.1,1.7-2.5,3.3-2.5c1.6,0,2.5,1,2.5,3.3v8.7c-0.6,0.5-1.3,0.8-2.2,0.9L56,37.1h7.2l0.1-1.1 c-0.9-0.2-1.9-0.6-2.3-0.9V26.4z M70.4,15.2l-0.6-0.3c-1.3,0.4-2.9,0.9-4.3,1.1l-0.1,1c1.7,0.1,2.3,0.5,2.3,2.2v15.9 c-0.7,0.5-1.2,0.7-2.2,0.8L65.3,37h7.3l0.1-1.1c-0.9-0.2-1.7-0.5-2.3-0.9V15.2z M121.2,28.1c-0.3-0.5-0.6-1-1-1.5c-0.8-0.9-1.7-1.6-2.7-2.2c-0.9-0.6-2-1.1-3.1-1.4l-0.4-0.1 c-0.1,0-0.2-0.1-0.3-0.1c-0.2-0.1-0.4-0.2-0.6-0.3c-0.4-0.2-0.6-0.5-0.8-0.8c-0.4-0.6-0.4-1.4-0.2-2.4c0-0.2,0.1-0.5,0.2-0.7 c0.1-0.2,0.2-0.5,0.2-0.7c0.1-0.3,0.1-0.7,0.1-1.1l0.2-0.2l2.3-1.9c0.4-0.3,0.8-0.7,1.3-1.1c0.2,0.1,0.3,0.2,0.4,0.3 c0,0,1.2,0.1,1.8-1.7l-0.3-0.2l0.2-0.2l0.6-0.5c0.2-0.2,0.3-0.3,0.4-0.7c-0.3,0-0.6,0.1-0.8,0.2l-0.6,0.5l-0.4,0.3l-5.2-3.6 c0.3-0.2,0.5-0.4,0.8-0.6l1.1-1c0,0,0.1-0.1,0.1-0.1c0.1,0.1,0.2,0.2,0.3,0.2c0.3,0.2,0.6,0.4,0.8,0.5l1.7,0.9 c0.5,0.3,1.1,0.6,1.7,0.9c0.3,0.2,0.6,0.3,0.9,0.4c0.2,0,0.3,0.1,0.5,0.2c0.1,0,0.2,0,0.3,0c0,0,0.1,0,0.2,0c0.1,0,0.2,0,0.2-0.2v0 c0,0,0-0.1,0-0.1c0-0.1,0-0.1,0-0.2c0-0.1,0-0.1-0.1-0.2c0-0.1-0.1-0.2-0.2-0.2c-0.1-0.1-0.2-0.3-0.3-0.3c-0.2-0.2-0.5-0.4-0.7-0.6 c-0.5-0.4-1-0.7-1.6-1.1c-0.5-0.3-1.1-0.6-1.6-0.9c-0.3-0.2-0.6-0.3-0.9-0.4c-0.1,0-0.2-0.1-0.3-0.1c0,0,0,0,0,0v0v0c0,0,0,0,0,0 V5.3c0,0-0.1,0-0.2,0c-0.1,0-0.2,0-0.3,0c-0.1,0-0.1,0-0.2,0c-0.1,0-0.2,0.1-0.3,0.2c-0.3,0.1-0.5,0.2-0.7,0.4l-1.1,0.6 c-0.3,0.3-0.7,0.6-1.1,0.8L110.9,7c0,0-1.6,0.2-1.1,1.2c0,0,0,0,0.2,0.2c-1.5,1.3-3,2.5-4.5,3.8c-1.5,1.3-3,2.6-4.5,3.9l-2.2,2 c-0.1,0.1-0.2,0.2-0.4,0.3c-0.1-0.2-0.2-0.4-0.3-0.6l-0.5-1.1l-1-2.3c-0.7-1.5-1.4-3-2.1-4.6l-2.1-4.5C92.2,5,92.1,4.8,92,4.6 c0.2,0,0.3,0,0.5,0c0,0,0.2-1.3-0.8-1.5c0,0-0.2,0-0.4,0c-0.3-0.7-0.6-1.4-1-2l-0.2-0.6c0-0.2-0.2-0.3-0.2-0.3 c-0.1,0-0.2-0.1-0.2-0.1c-0.1,0-0.2,0-0.3-0.1c-0.2,0-0.3,0-0.5,0c-0.3,0-0.6,0-0.9,0.1c-0.6,0.1-1.3,0.2-1.9,0.3 c-0.6,0.2-1.2,0.3-1.8,0.5C84,1,83.7,1.1,83.5,1.3c-0.2,0.1-0.3,0.2-0.5,0.2c-0.1,0-0.2,0.1-0.2,0.2c0,0-0.1,0.1-0.1,0.1 s0,0.1-0.1,0.1c0,0,0,0.1,0,0.1v0c0,0.2,0.1,0.2,0.2,0.2s0.1,0.1,0.2,0.1c0.1,0,0.2,0,0.3,0.1c0.2,0,0.3,0,0.5,0 c0.3,0,0.6,0,0.9-0.1c0.6-0.1,1.3-0.2,1.9-0.3l1.9-0.3c0.3,0,0.6-0.1,0.9-0.2c0.3,0.5,0.5,1.1,0.8,1.6c-1.7,0.2-4.5,0.4-6.2,0.6 c-0.2-0.3-0.3-0.6-0.5-1c0-0.1-0.2-0.2-0.3-0.1S83,2.8,83,3c0.1,0.3,0.2,0.6,0.3,0.9c-0.5,0.1-0.9,0.2-0.9,0.2 c-0.2,0.3,0.4,2.1,1.1,2.6c0,0,0.3-0.1,0.8-0.2C84.7,7,85,7.6,85.2,8.2l2.3,5.2l2.3,5.2c0.8,1.7,1.6,3.4,2.4,5.2c0,0,0,0,0,0 c-0.1,0.4-0.2,0.8-0.3,1.1c-0.3,1.1-0.6,2.1-0.9,3.2c-0.6,2.1-1.1,4.3-1.6,6.4l-0.8,3.2L87.8,41c-0.5,2.2-1,4.3-1.6,6.4 c0,0,0,0.1,0,0.2c0.3,0.4,0.7,0.7,1.1,1c0.4,0.3,0.8,0.5,1.3,0.8c0.9,0.5,1.8,0.8,2.7,1.1c0.9,0.3,1.9,0.5,3,0.5c0.5,0,1,0,1.5-0.1 c0.5-0.1,1-0.2,1.5-0.3c0.2,0,0.3-0.2,0.3-0.3v0c0.4-2.1,0.8-4.2,1.1-6.3l1.1-6.3c0.3-2.1,0.7-4.2,1.1-6.3c0-0.2,0.1-0.5,0.1-0.7 c0.1,0.1,0.1,0.2,0.2,0.3c0.4,0.5,0.8,0.8,1.3,1.2c0.9,0.6,1.9,1.1,2.9,1.5c1,0.4,2,0.7,3,0.9c0.7,0.2,1.3,0.3,2,0.3 c-0.3,0.7-0.5,1.4-0.5,2.2c0,0.1,0,0.2,0.1,0.2h0c0.7,0.4,1.5,0.7,2.3,0.9c0.8,0.2,1.7,0.2,2.5,0.1c0.9-0.1,1.7-0.5,2.4-1 c0.7-0.6,1.2-1.3,1.5-2.1l0,0v0c0-0.3,0.1-0.7,0.1-1v0c0.4-0.2,0.8-0.5,1.1-0.8c0.5-0.4,0.9-0.8,1.2-1.3c0.3-0.5,0.5-1.2,0.5-1.8 C121.7,29.2,121.4,28.6,121.2,28.1z M116.2,6.2c0.5,0.2,1,0.5,1.6,0.8s1,0.6,1.5,1c0.2,0.2,0.5,0.3,0.7,0.6c0.1,0.1,0.2,0.2,0.3,0.3 c0,0,0,0,0.1,0.1c0,0-0.1,0-0.1,0c-0.2,0-0.3-0.1-0.4-0.1c-0.3-0.1-0.6-0.2-0.8-0.3c-0.5-0.3-1.1-0.5-1.6-0.9 c-0.5-0.3-1-0.7-1.4-1.1c-0.2-0.2-0.3-0.3-0.4-0.5C115.8,6,116,6.1,116.2,6.2z M88.1,1c-0.5,0.3-1.1,0.5-1.7,0.6 c-0.6,0.2-1.2,0.3-1.8,0.3c-0.3,0-0.6,0-0.9,0c-0.2,0-0.3,0-0.4,0c0,0-0.1,0-0.1,0c0,0,0,0,0.1,0c0.1-0.1,0.3-0.1,0.4-0.2 c0.3-0.1,0.6-0.2,0.8-0.3C85,1.3,85.6,1.1,86.2,1c0.6-0.1,1.2-0.2,1.8-0.2c0.2,0,0.4,0,0.6,0C88.5,0.8,88.3,0.9,88.1,1z M115.5,13.2 c-0.3,0.3-0.7,0.5-1,0.8l-2.4,1.8l-2.4,1.9c-0.6,0.5-1.3,1.1-1.9,1.6c0,0,0.1-0.1,0.1-0.2c0.3-0.4,0.6-0.8,0.9-1.2 c0.6-0.8,1.3-1.6,1.9-2.3c0.7-0.7,1.4-1.4,2.1-2.1c0.4-0.3,0.8-0.6,1.2-0.9c0.1-0.1,0.2-0.2,0.3-0.2 C114.7,12.6,115.1,12.9,115.5,13.2z M88.4,13l-1.8-3.7l0.2,0.2c0.4,0.4,0.8,0.8,1.1,1.2c0.3,0.4,0.6,0.9,0.7,1.3 c0.1,0.4,0.1,0.8-0.1,1.1L88.4,13z M88.5,13.2c0.1-0.1,0.2-0.3,0.3-0.5c0.1-0.3,0.1-0.6,0.1-0.8c-0.1-0.6-0.3-1.1-0.7-1.5 c-0.5-0.6-1.1-1.2-1.8-1.6l-0.4-0.9c-0.3-0.6-0.5-1.1-0.8-1.7c0.6-0.2,1.3-0.4,2-0.6c0.7,1.1,1.3,2.2,1.9,3.4c0.6,1.5,1.3,3,1.4,4.6 c0,0.4,0,0.8,0,1.2s0,0.8,0,1.3c0,0.6,0.2,1.2,0.3,1.7L88.5,13.2z M97.5,43.7c0,0.2,0,0.3-0.1,0.5c-0.1,0.2-0.2,0.3-0.3,0.4 c-0.2,0.2-0.4,0.2-0.6,0.2c-0.2,0-0.3-0.2-0.4-0.4c-0.1-0.2-0.2-0.4-0.2-0.6c0-0.5,0-0.9,0.1-1.4c0.1-0.5,0.2-0.9,0.4-1.3 c0.1-0.2,0.2-0.4,0.4-0.5c0.2-0.2,0.3-0.3,0.5-0.2c0.2,0,0.4,0.2,0.5,0.4c0.1,0.1,0.1,0.2,0.2,0.3L97.5,43.7z M100.7,25.3 c-0.1,0.1-0.1,0.2,0,0.3c0.1,0.1,0.2,0.1,0.3,0.1c-0.3,0.8-0.4,1.5-0.6,2.3c-0.2,1.1-0.5,2.1-0.6,3.2c-0.2,1.3-0.5,2.7-0.7,4 c0-0.3-0.1-0.5-0.2-0.8c-0.2-0.7-0.4-1.4-0.6-2.1c-0.5-1.4-1.1-2.7-1.7-3.9c0.4,1.4,0.9,2.7,1.4,4.1c0.3,0.7,0.5,1.4,0.7,2 c0.1,0.3,0.2,0.7,0.3,1c0,0,0,0.1,0,0.2c-0.1,0.6-0.2,1.2-0.3,1.9L98,40.8c0-0.1,0-0.2-0.1-0.2c-0.1-0.2-0.3-0.5-0.6-0.5 c-0.3-0.1-0.5,0.1-0.8,0.2c-0.2,0.2-0.3,0.4-0.5,0.6c-0.3,0.4-0.4,0.9-0.5,1.4c-0.1,0.5-0.1,1,0,1.5c0,0.2,0.1,0.5,0.3,0.7 c0.1,0.2,0.3,0.5,0.6,0.5c0.3,0,0.5-0.1,0.7-0.3c0.1-0.1,0.2-0.2,0.2-0.3c-0.3,1.8-0.6,3.6-0.8,5.4c-0.3,0.1-0.7,0.2-1,0.2 c-0.5,0.1-0.9,0.1-1.4,0.2c-0.9,0-1.9,0-2.8-0.3c-0.9-0.2-1.9-0.5-2.7-0.9c-0.8-0.4-1.6-0.9-2.2-1.6c0.6-2.1,1.2-4.2,1.9-6.3l1-3.2 l0.9-3.2c0.6-2.1,1.3-4.3,1.9-6.4c0.3-1.1,0.6-2.1,0.9-3.2c0.2-1.1,0.7-2.1,0.3-3.3v0c0,0-0.1,0-0.1,0c-0.2,0.2-0.3,0.3-0.5,0.5 c-0.4-0.9-0.9-1.9-1.3-2.8c-0.1-0.3-0.2-0.7-0.3-1.1c-0.2-0.8-0.3-1.6-0.4-2.4c0-0.4,0-0.8,0-1.2s0-0.8,0-1.3 C90.6,12,90,10.4,89.3,9c-0.6-1.2-1.3-2.3-2-3.3c1.3-0.3,2.6-0.7,3.6-0.9c0.2,0.3,0.3,0.6,0.5,1l2.3,4.5c0.8,1.5,1.5,3,2.3,4.4 l1.1,2.2l0.6,1.1c0.2,0.2,0.2,0.5,0.4,0.7c-0.5,0.5-1,0.9-1.5,1.4c0,0-0.1,0.1,0,0.2c0,0.1,0.2,0.1,0.2,0c0.8-0.6,1.6-1.2,2.4-1.8 l2.4-1.8c1.6-1.2,3.2-2.4,4.7-3.6c1.6-1.2,3.1-2.5,4.7-3.7l0,0c0.8,0.8,2.1,2,3.4,3c-0.6,0.3-1.1,0.6-1.6,1c-0.8,0.6-1.6,1.3-2.2,2 c-0.7,0.8-1.3,1.5-1.9,2.4c-0.4,0.6-0.8,1.2-1.2,1.8C105.1,21.3,102.9,23.3,100.7,25.3z M118.3,31.8c0,0.3-0.1,0.6-0.2,0.9 c0,0.2-0.1,0.4-0.1,0.6c-0.2,0.1-0.4,0.2-0.6,0.3c-0.2,0.2-0.4,0.3-0.6,0.6c0.3,0.1,0.6,0.1,0.9,0c0,0,0,0,0.1,0 c0,0.1,0,0.2-0.1,0.3c-0.3,0.6-0.8,1.1-1.3,1.6s-1.2,0.7-1.9,0.8c-0.7,0.2-1.4,0.2-2.2,0.1c-0.7-0.1-1.4-0.2-2.1-0.4 c-0.1-0.6,0-1.3,0.3-1.9c0.3,0,0.5,0,0.8,0.1c0.1,0,0.2,0,0.2-0.2c0-0.1,0-0.3-0.2-0.3c-0.2-0.1-0.3-0.1-0.5-0.2 c0.2-0.3,0.3-0.5,0.5-0.7c0.2-0.2,0.5-0.5,0.7-0.6c0.5,0.3,1,0.5,1.6,0.7c0.6,0.2,1.3,0.3,2,0.2c0.7-0.1,1.4-0.4,1.9-1 c0.4-0.5,0.6-1.1,0.6-1.7C118.4,31.4,118.4,31.6,118.3,31.8z M120.2,31.2c-0.2,0.4-0.5,0.8-0.8,1.1c-0.2,0.2-0.3,0.3-0.5,0.4 c0-0.3,0-0.7-0.1-1c0-0.2-0.1-0.3-0.2-0.5c-0.1-0.2-0.2-0.3-0.3-0.5c0,0-0.1,0-0.1,0c-0.2,0.6-0.6,1.1-1,1.4 c-0.4,0.3-0.9,0.5-1.5,0.5s-1.1-0.1-1.7-0.2c-0.6-0.2-1.1-0.3-1.7-0.5l-0.1,0c-0.1,0-0.3,0-0.3,0.1c-0.3,0.4-0.5,0.7-0.8,1.1 c-0.2,0.3-0.3,0.6-0.5,0.9c-0.7-0.3-1.3-0.5-2-0.8c-0.9-0.4-1.9-0.8-2.8-1.2c-0.9-0.4-1.8-0.9-2.5-1.5c-0.8-0.6-1.4-1.2-1.8-1.9v0 c-0.1-0.2-0.2-0.3-0.3-0.3c0-0.1,0-0.2,0-0.3c0.1-0.9,0.3-1.8,0.2-2.8c3.1-2.2,6.1-4.4,9-6.8c0,0.1-0.1,0.2-0.1,0.3 c-0.2,0.6-0.3,1.2-0.3,1.9c0,0.6,0.2,1.4,0.6,2c0.4,0.6,1,1.1,1.6,1.3c0.3,0.2,0.6,0.3,0.9,0.3c0.2,0,0.3,0.1,0.5,0.1l0.4,0.1 c1,0.3,1.9,0.6,2.8,1.1c0.9,0.5,1.7,1.1,2.4,1.8c0.7,0.7,1.2,1.6,1.3,2.4C120.5,30.4,120.4,30.8,120.2,31.2z M115.2,5.3L115.2,5.3C115.2,5.3,115.2,5.3,115.2,5.3C115.2,5.3,115.2,5.3,115.2,5.3z M95,39.9c-0.3,0.4-0.5,0.9-0.6,1.4c-0.1,0.3-0.1,0.5-0.1,0.8l0,0.8c-0.1,1,0,2,0.3,3c0.3,1,0.7,1.9,1.2,2.8 c-0.2-0.5-0.3-0.9-0.5-1.4c-0.2-0.5-0.3-0.9-0.4-1.4c-0.2-0.9-0.2-1.9-0.2-2.9l0-0.8c0-0.2,0-0.5,0.1-0.7c0.1-0.5,0.3-0.9,0.5-1.3 c0.3-0.4,0.6-0.8,0.9-1.1c0.3-0.3,0.8-0.6,1.2-0.9C96.5,38.5,95.6,39.1,95,39.9z"/>
</svg>
