<svg xmlns="http://www.w3.org/2000/svg" viewBox="0 0 600 600">
    <path fill="#FFF" d="M88.97 333.15c3.8-.4 7.3-1.08 10.56-2.98v-58.62c-3.25-1.9-7.3-2.57-11.1-2.98l.54-4.33h32.08l-.68 4.33c-3.8.4-7.3 1.08-10.56 2.98v25.3h34v-25.3c-3.26-1.9-7.32-2.57-11.1-2.98l.53-4.33h32.08l-.67 4.33c-3.8.4-7.3 1.08-10.56 2.98v58.48c3.25 1.9 7.3 2.57 11.1 2.98l-.54 4.34H132.7l.68-4.33c3.8-.4 7.3-1.07 10.56-2.97v-27.07h-34.1v27.2c3.24 1.9 7.3 2.58 11.1 3l-.55 4.32H88.3l.67-4.33zM202.55 332.34c-4.87 4.6-10.02 6.1-15.97 6.1-9.2 0-14.62-5.02-14.62-13.4 0-10.03 7.3-16.12 20.98-17.07l9.2-.68v-9.5c0-7.84-2.97-11.1-9.74-11.1-5.82 0-9.2 1.9-9.2 5.3 0 1.9 1.34 3.5 3.5 4.32 0 3.52-2.43 5.55-6.76 5.55-4.06 0-6.77-2.7-6.77-6.77 0-8 7.3-13.13 19.1-13.13 12.3 0 19.75 5.82 19.75 15.84v32.63c1.35 1.08 4.74 2.44 8.12 3.1l-.4 4.07h-15.98l-1.2-5.26zm-.4-20.3l-8.8.8c-6.9.7-11.1 4.88-11.1 11.1s2.43 9.62 7.3 9.62c4.2 0 7.85-1.9 12.6-6.77v-14.76zM227.32 333.3c3.52-.55 5.28-1.23 7.72-3V297c0-5.8-2.17-7.44-8.12-7.7l.27-3.53c5-.8 9.87-2.57 14.34-3.93l2.03 1.08.8 6.1c.82-.96 6.1-7.18 13.95-7.18 6.9 0 11.9 2.44 14.9 7.58 3.78-3.8 8.8-7.58 15.3-7.58 9.33 0 17.6 4.6 17.6 17.6v30.87c1.34 1.1 4.73 2.45 8.1 3.12l-.4 4.06H288.1l.27-4.06c2.98-.4 5.55-1.5 7.72-3.1v-31.15c0-8.12-3-11.64-8.8-11.64-5.56 0-10.57 5.14-11.8 9.07v33.7c1.36 1.1 4.75 2.45 8.13 3.12l-.4 4.06H257.5l.27-4.06c2.98-.4 5.55-1.5 7.72-3.1v-31.15c0-8.12-3-11.64-8.8-11.64-5.56 0-10.57 5.14-11.8 9.07v33.7c1.9 1.36 4.75 2.45 8.13 3.12l-.4 4.06h-25.87l.56-4.2zM321.68 333.3c3.52-.55 5.28-1.23 7.72-3v-56.85c0-5.82-2.17-7.45-8.12-7.72l.27-3.52c5.14-.8 10.7-2.56 15.43-4.05l2.3 1.22v70.8c1.9 1.35 4.74 2.44 8.12 3.1l-.4 4.07h-25.87l.55-4.05zM520.4 305.4c-.94-1.9-2.16-3.66-3.5-5.28-2.72-3.1-5.97-5.7-9.5-7.72-3.37-2.17-7.16-3.93-10.96-5.14l-1.5-.4-1.2-.42c-.82-.27-1.5-.68-2.18-.95-1.35-.82-2.3-1.63-2.98-2.72-1.35-2.03-1.5-5.14-.8-8.4.13-.8.4-1.6.67-2.43.27-.8.54-1.62.8-2.57.28-1.22.42-2.44.42-3.93l.68-.54 8.12-6.76c1.5-1.22 2.98-2.57 4.47-3.8.54.28 1.08.7 1.5.96 0 0 4.2.4 6.5-5.96l-1.23-.8.82-.7 2.03-1.75c.68-.55 1.22-1.23 1.5-2.45-1.23-.14-2.04.27-2.72.8l-2.17 1.63-1.5 1.08L489 234.33l2.7-2.3 3.94-3.52.4-.4c.42.27.7.54 1.1.8.94.7 2.02 1.36 2.97 1.9l5.97 3.26c1.9 1.08 3.93 2.17 5.96 3.1.95.55 2.03.96 3.1 1.36.55.14 1.1.4 1.63.54.27 0 .68.14.95.14h.7c.26 0 .53-.14.8-.54v-.14c0-.14 0-.27.14-.4v-.55c0-.27-.14-.4-.27-.54-.14-.27-.4-.54-.54-.8-.4-.42-.8-.96-1.22-1.23-.8-.8-1.75-1.5-2.56-2.17-1.76-1.35-3.66-2.57-5.55-3.8-1.9-1.2-3.8-2.3-5.83-3.24-.95-.55-2.03-.96-3.1-1.36-.55-.14-1.1-.4-1.77-.54-.27 0-.68-.14-1.08-.14-.27 0-.4 0-.8.14-.28.14-.7.27-1.1.68-.94.4-1.75.8-2.43 1.35l-4.07 2.3c-1.22.95-2.57 2.03-3.8 2.98l-1.34-.94s-5.7.54-3.8 4.2l.54.54c-5.4 4.47-10.7 9.07-15.97 13.54-5.4 4.6-10.7 9.2-16.1 13.94l-8 7.04c-.4.4-.8.8-1.35 1.22-.27-.8-.68-1.5-.95-2.17l-1.9-4.06-3.66-8.1c-2.43-5.42-4.86-10.84-7.44-16.25l-7.58-16.1c-.4-.82-.8-1.63-1.22-2.45h1.62s.54-4.47-2.7-5.28c0 0-.55 0-1.36.14-1.22-2.44-2.3-4.87-3.52-7.3l-.54-2.04c-.14-.68-.54-.95-.8-1.22-.28-.14-.55-.27-.7-.27-.4-.14-.67-.14-1.07-.27-.7-.14-1.23-.14-1.77-.14-1.22 0-2.3.14-3.38.27-2.17.26-4.47.67-6.63 1.2-2.17.55-4.33 1.1-6.5 1.77-1.08.4-2.17.68-3.1 1.22l-1.63.8c-.28.14-.55.4-.82.54l-.4.4c-.15.15-.15.28-.28.42v.55c.14.55.4.7.68.82.27.14.4.27.54.27.4.13.68.13.95.26.54.14 1.22.14 1.76.14 1.08 0 2.3-.14 3.38-.27 2.18-.27 4.48-.54 6.64-.95l6.63-1.08c1.08-.14 2.17-.4 3.38-.68.95 1.9 1.9 3.93 2.84 5.82-6.24.54-15.98 1.35-22.08 2.03-.68-1.22-1.22-2.3-1.9-3.52-.14-.27-.54-.54-.95-.4s-.54.53-.4.94c.4 1.07.8 2.02 1.2 3.1-1.9.27-3.1.54-3.24.8-.68 1.23 1.35 7.6 4.06 9.22 0 0 1.07-.4 2.97-.8.95 2.16 1.9 4.32 2.84 6.5l8.13 18.4 8.26 18.4c2.7 6.1 5.54 12.2 8.38 18.42 0 0 0 .14.14.14-.4 1.35-.8 2.7-1.22 4.06l-3.25 11.37c-2.03 7.6-3.93 15.3-5.82 22.9L404 339.8l-2.72 11.5c-1.9 7.73-3.66 15.3-5.82 22.9 0 .13 0 .4.14.53 1.08 1.5 2.57 2.57 3.93 3.66 1.5 1.07 2.98 1.9 4.47 2.7 3.1 1.62 6.36 2.84 9.75 3.93 3.38.95 6.9 1.62 10.56 1.76 1.77.13 3.67 0 5.42-.28 1.76-.27 3.52-.54 5.4-1.08.55-.14.96-.68 1.1-1.22v-.14c1.48-7.45 2.7-15.03 4.05-22.47l3.8-22.6c1.2-7.58 2.56-15.03 3.78-22.6.14-.82.27-1.77.4-2.58.28.27.42.68.7.95 1.34 1.62 2.97 2.98 4.6 4.2 3.24 2.3 6.76 4.06 10.28 5.4 3.52 1.36 7.17 2.45 10.83 3.26 2.44.54 4.74.95 7.17 1.22-1.08 2.44-1.76 5-1.62 7.85 0 .27.15.54.42.68h.14c2.57 1.35 5.28 2.44 8.26 3.1 2.84.55 5.96.82 8.93.42 3.1-.4 6.23-1.62 8.66-3.66 2.45-2.03 4.2-4.74 5.3-7.58l.13-.14v-.14l.4-3.66v-.14c1.36-.8 2.72-1.62 4.07-2.7 1.62-1.36 3.1-2.85 4.2-4.75s1.76-4.2 1.62-6.5c-.15-2.17-.97-4.33-1.9-6.23zm-2.57-68.23s0 .14 0 0zm-9.6-7.17c1.9 1.08 3.65 2.17 5.4 3.52.8.68 1.76 1.22 2.57 2.03.4.4.8.68 1.08 1.08l.27.27h-.27c-.54-.14-.95-.27-1.5-.4-.94-.42-2.02-.82-2.97-1.23-1.9-.95-3.92-1.9-5.68-3.1-1.76-1.23-3.52-2.58-5-4.07-.55-.54-1.1-1.08-1.5-1.62l2.03.8c1.78.7 3.68 1.64 5.57 2.72zm-9.2-5.96l.13.14v.28s0-.14-.14-.14v-.28zm-114.4-11.64zm17.87-3.52c-1.9.95-4.06 1.62-6.1 2.17-2.16.54-4.2.95-6.35 1.08-1.08.14-2.17.14-3.25.14-.54 0-1.08 0-1.5-.14h-.4c.14 0 .14-.14.27-.14.4-.28.95-.42 1.35-.7.95-.4 2.03-.67 2.98-1.07 2.03-.54 4.2-1.08 6.36-1.5 2.17-.4 4.33-.67 6.36-.8.68 0 1.35 0 2.03-.14-.4.4-1.08.68-1.75 1.08zm93.95 46.16l-8.4 6.5-8.38 6.63c-2.3 1.9-4.6 3.8-6.9 5.55.14-.14.27-.4.4-.54 1.1-1.5 2.18-2.84 3.26-4.2 2.3-2.7 4.47-5.55 6.9-8.12 2.44-2.57 5-5.14 7.58-7.45 1.36-1.2 2.72-2.3 4.2-3.24l1.23-.8c1.22.94 2.57 1.9 3.8 2.83-1.1.95-2.47 1.9-3.68 2.84zm-99.23-16.65l.68.67c1.35 1.35 2.7 2.7 3.8 4.2 1.07 1.5 2.02 3.1 2.43 4.74.27 1.36.27 2.85-.4 4.07l-.15-.4-6.36-13.28zm6.63 14.07c.4-.4.68-.95.95-1.62.4-.95.4-2.03.27-2.98-.27-2.03-1.22-3.93-2.44-5.4-1.76-2.3-3.93-4.2-6.36-5.83l-1.5-3.1c-.94-2.04-1.9-4.07-2.97-5.97 2.03-.54 4.47-1.35 7.17-2.03 2.44 3.93 4.6 8 6.63 12.18 2.3 5.28 4.6 10.83 5 16.52.15 1.35 0 2.84 0 4.33s0 2.98.15 4.47c.14 2.03.54 4.2.95 6.23l-7.85-16.8zM435.8 362.8c-.4.54-.68.95-1.22 1.35-.68.54-1.35.8-2.17.68-.67-.14-1.2-.8-1.48-1.5-.27-.67-.54-1.48-.54-2.3-.14-1.6-.14-3.24.27-4.86.27-1.62.8-3.1 1.5-4.6.4-.68.8-1.35 1.34-1.9.53-.54 1.2-.95 1.9-.8.67 0 1.34.67 1.75 1.34.27.42.4.82.54 1.23l-1.63 9.6c-.14.7-.14 1.23-.27 1.77zm7.98-46.7c-.8 4.74-1.62 9.48-2.44 14.2-.14-.94-.4-1.9-.68-2.83-.68-2.57-1.5-5-2.3-7.45-1.76-4.87-3.8-9.6-6.23-14.08 1.5 5 3.25 9.75 5 14.62.96 2.44 1.77 4.87 2.58 7.17l1.23 3.66c0 .13.14.4.14.53-.4 2.17-.8 4.33-1.08 6.63l-2.04 12.32c-.14-.27-.14-.54-.27-.8-.42-.82-.96-1.63-2.04-1.9-.95-.28-1.9.26-2.7.8-.7.54-1.23 1.35-1.77 2.03-.96 1.5-1.5 3.26-1.77 4.88-.27 1.76-.4 3.52 0 5.28.14.8.4 1.76.95 2.57.4.8 1.22 1.62 2.17 1.76.95.13 1.9-.42 2.44-1.1.26-.26.53-.67.8-.94-.95 6.36-2.03 12.73-2.98 19.22-1.22.4-2.44.68-3.66.8-1.62.28-3.25.42-4.87.55-3.4.14-6.64-.14-10.03-.95-3.25-.68-6.63-1.76-9.75-3.1-2.98-1.36-5.82-3.12-8-5.56 2.04-7.45 4.34-14.9 6.64-22.34l3.52-11.24 3.38-11.37c2.3-7.58 4.6-15.16 6.77-22.74 1.08-3.8 2.03-7.58 3.1-11.37.82-3.93 2.45-7.58 1.23-11.9v-.15c-.14-.13-.27-.13-.27 0-.7.7-1.1 1.23-1.63 1.9-1.5-3.37-3.1-6.62-4.6-10-.4-1.23-.8-2.45-1.08-3.8-.7-2.84-1.23-5.7-1.36-8.53-.14-1.5-.14-2.84-.14-4.33s.14-2.98 0-4.47c-.54-5.96-2.84-11.64-5.4-16.92-2.04-4.2-4.48-8.12-7.18-11.9 4.47-1.23 9.2-2.45 13-3.12.54 1.22 1.22 2.3 1.76 3.52l8.12 15.97c2.7 5.28 5.4 10.56 8.12 15.84l4.06 7.85 2.03 3.94c.55.8.82 1.76 1.36 2.44l-5.28 4.87c-.14.14-.27.4 0 .68.14.27.54.27.68.14 2.84-2.03 5.7-4.2 8.53-6.36l8.52-6.5c5.7-4.32 11.24-8.65 16.8-13s11.1-8.8 16.64-13.26l.14-.14c2.98 2.84 7.45 7.04 12.18 10.7-2.03 1.07-3.93 2.16-5.7 3.5-2.83 2.18-5.54 4.6-7.98 7.32s-4.74 5.4-6.77 8.4c-1.5 2.02-2.84 4.2-4.2 6.5-8.26 6.76-16.38 13.66-24.23 20.84-.27.27-.27.68-.14.95.27.28.68.42.95.28-.94 2.7-1.48 5.4-2.02 8.12-.8 3.82-1.62 7.6-2.3 11.4zm59.84 18.14c-1.9 1.5-4.2 2.44-6.63 2.98-2.45.54-5.15.54-7.73.27-2.44-.28-5-.7-7.45-1.36-.27-2.17.14-4.6 1.08-6.77.95.14 1.76.14 2.7.27.42 0 .7-.14.82-.54s0-.95-.54-1.08c-.68-.27-1.22-.4-1.9-.68.54-.95 1.22-1.76 1.9-2.57.8-.8 1.62-1.62 2.44-2.3 1.76 1.08 3.52 1.9 5.55 2.57 2.3.68 4.74.95 7.3.68 2.45-.27 5.02-1.5 6.64-3.52 1.5-1.76 2.18-3.8 2.3-5.96.28.8.28 1.76.15 2.57-.14 1.1-.27 2.3-.54 3.4l-.4 2.02-2.03 1.22c-.8.54-1.5 1.08-2.17 2.3 1.22.4 2.17.27 3.1 0 .15 0 .15-.14.28-.14-.14.4-.14.68-.27 1.08-1.06 2.17-2.68 4.07-4.58 5.56zm13.4-17.74c-.68 1.5-1.76 2.84-2.98 4.06-.54.54-1.22 1.08-1.76 1.5 0-1.23-.14-2.45-.4-3.67-.15-.7-.28-1.23-.55-1.9-.27-.55-.54-1.23-1.22-1.63-.13 0-.26 0-.26.14-.8 2.04-2.17 3.8-3.66 5.02-1.5 1.22-3.38 1.76-5.28 1.9-1.9.14-3.93-.27-5.96-.8s-4.06-1.23-6.1-1.9l-.26-.15c-.4-.14-.95 0-1.22.27-1.08 1.35-1.9 2.57-2.84 3.93-.68 1.08-1.22 2.03-1.76 3.1-2.44-.94-4.74-1.75-7.17-2.7-3.4-1.35-6.78-2.7-9.9-4.33-3.24-1.5-6.35-3.25-9.06-5.28-2.7-2.03-5.14-4.2-6.36-6.9v-.14c-.27-.54-.68-.95-1.22-1.22 0-.27.14-.68.14-.95.4-3.25.95-6.5.68-9.88 10.97-7.72 21.66-15.84 32.22-24.23l-.4 1.22c-.7 2.03-.96 4.33-.96 6.63.14 2.3.8 4.86 2.3 7.03 1.5 2.17 3.52 3.8 5.55 4.74 1.07.54 2.16.95 3.1 1.22l1.62.4 1.35.27c3.52.95 6.9 2.3 10.02 4.06 3.1 1.76 6.08 3.93 8.52 6.36 2.44 2.43 4.33 5.54 4.6 8.65.15 2.18-.12 3.8-.8 5.15z"/>
    <path fill="#FFF" d="M427.13 347.64c-1.08 1.5-1.9 3.25-2.3 5-.27.96-.4 1.9-.4 2.72l-.15 2.7c-.27 3.53-.14 7.32.95 10.84 1.08 3.52 2.57 6.77 4.33 9.88-.54-1.76-1.22-3.38-1.76-5-.54-1.63-1.08-3.4-1.5-5.15-.8-3.38-.8-6.9-.67-10.42l.14-2.7c0-.8.14-1.76.27-2.57.4-1.62 1.08-3.25 1.9-4.74.95-1.5 2.03-2.85 3.38-4.07 1.22-1.22 2.7-2.3 4.33-3.1-3.37 1.33-6.5 3.5-8.52 6.6z"/>
</svg>
