<svg xmlns="http://www.w3.org/2000/svg" viewBox="0 0 600 600">
    <path fill="#ECDFA7" d="M491.62 300.36L474.4 423.3s-28.07 10.3-53.52-11.22l27.88-119.2-52.58-106.68s20.77-8.8 34.06-5.8l46.22 87.2 80.1-68.1s26.95 9.35 29.38 18.33l-94.32 82.53z"/>
    <path fill="#3F3E29" d="M.94 351.08c5.24-.56 10.1-1.5 14.6-4.12v-81.03c-4.5-2.62-10.1-3.56-15.35-4.12l.74-5.98H45.3l-.95 6c-5.24.55-10.1 1.5-14.6 4.1v35h46.97v-35c-4.5-2.6-10.1-3.55-15.35-4.1l.75-6h44.35l-.94 6c-5.24.55-10.1 1.5-14.6 4.1v80.86c4.5 2.62 10.1 3.56 15.35 4.12l-.75 6H61.38l.94-6c5.24-.56 10.1-1.5 14.6-4.12v-37.43H29.76v37.62c4.5 2.62 10.1 3.56 15.35 4.12l-.74 5.98H0l.94-6zM157.95 349.95c-6.74 6.36-13.85 8.42-22.08 8.42-12.73 0-20.2-6.92-20.2-18.53 0-13.85 10.1-22.27 29-23.58l12.73-.94v-13.1c0-10.85-4.12-15.35-13.47-15.35-8.05 0-12.73 2.62-12.73 7.3 0 2.62 1.87 4.87 4.87 6 0 4.86-3.37 7.66-9.36 7.66-5.6 0-9.35-3.74-9.35-9.36 0-11.04 10.1-18.15 26.4-18.15 17.02 0 27.3 8.05 27.3 21.9v45.1c1.88 1.5 6.56 3.37 11.24 4.3l-.57 5.6h-22.08l-1.7-7.27zm-.56-28.07L145.2 323c-9.54.94-15.35 6.74-15.35 15.35s3.37 13.3 10.1 13.3c5.8 0 10.86-2.63 17.4-9.37.02 0 .02-20.4.02-20.4zM192.2 351.26c4.86-.75 7.3-1.68 10.66-4.12V301.1c0-8.05-3-10.3-11.23-10.67l.37-4.87c6.92-1.12 13.66-3.56 19.84-5.43l2.8 1.5 1.13 8.42c1.12-1.3 8.42-9.92 19.28-9.92 9.54 0 16.47 3.37 20.6 10.48 5.23-5.23 12.15-10.47 21.14-10.47 12.9 0 24.32 6.36 24.32 24.33v42.67c1.87 1.5 6.55 3.37 11.23 4.3l-.56 5.6h-35.57l.37-5.6c4.12-.56 7.67-2.06 10.67-4.3V304.1c0-11.23-4.12-16.1-12.16-16.1-7.66 0-14.6 7.12-16.27 12.55v46.6c1.87 1.5 6.55 3.37 11.23 4.3l-.56 5.6h-35.56l.37-5.6c4.13-.56 7.68-2.06 10.68-4.3V304.1c0-11.23-4.12-16.1-12.16-16.1-7.67 0-14.6 7.12-16.28 12.55v46.6c2.62 1.87 6.55 3.37 11.23 4.3l-.56 5.6h-35.73l.72-5.8zM322.63 351.26c4.87-.75 7.3-1.68 10.67-4.12v-78.6c0-8.05-3-10.3-11.23-10.67l.37-4.87c7.1-1.12 14.78-3.56 21.33-5.6l3.18 1.67v97.88c2.62 1.87 6.55 3.37 11.23 4.3l-.56 5.6h-35.74l.75-5.6zM597.36 312.7c-1.3-2.6-3-5.04-4.87-7.3-3.75-4.3-8.24-7.85-13.1-10.66-4.7-3-9.93-5.43-15.17-7.1l-2.06-.57c-.56-.2-1.12-.37-1.68-.56-1.13-.36-2.07-.93-3-1.3-1.87-1.12-3.18-2.25-4.12-3.74-1.87-2.8-2.06-7.1-1.12-11.6.2-1.12.56-2.25.94-3.37.37-1.13.75-2.26 1.12-3.57.37-1.68.56-3.37.56-5.43l.94-.75 11.23-9.36c2.06-1.7 4.12-3.57 6.18-5.25.75.37 1.5.94 2.06 1.3 0 0 5.8.57 8.97-8.22l-1.68-1.12 1.1-.93 2.82-2.43c.94-.75 1.68-1.68 2.06-3.37-1.68-.2-2.8.37-3.74 1.12l-3 2.24-2.05 1.5-25.84-17.78c1.3-1.12 2.43-2.06 3.74-3.18l5.43-4.87c.2-.18.37-.36.56-.55.55.37.93.75 1.5 1.12 1.3.94 2.8 1.87 4.1 2.62l8.24 4.48c2.62 1.5 5.43 3 8.23 4.3 1.3.75 2.8 1.3 4.3 1.87.75.2 1.5.56 2.25.75.37 0 .94.2 1.3.2h.95c.37 0 .75-.2 1.12-.76v-.2c0-.18 0-.36.18-.55v-.76c0-.37-.2-.56-.37-.75-.18-.38-.55-.76-.74-1.13-.56-.56-1.12-1.3-1.68-1.68-1.12-1.13-2.43-2.07-3.56-3-2.43-1.87-5.05-3.56-7.67-5.24-2.62-1.68-5.24-3.18-8.05-4.5-1.3-.74-2.8-1.3-4.3-1.86-.75-.2-1.5-.56-2.43-.75-.37 0-.94-.2-1.5-.2-.37 0-.56 0-1.12.2-.37.2-.94.37-1.5.94-1.3.55-2.43 1.1-3.37 1.86l-5.6 3.18c-1.7 1.3-3.57 2.8-5.25 4.12l-1.87-1.3s-7.86.74-5.24 5.8c0 0 .2.18.75.74-7.5 6.18-14.78 12.54-22.08 18.7-7.5 6.37-14.8 12.74-22.28 19.3l-11.04 9.72c-.56.56-1.12 1.12-1.87 1.68-.36-1.12-.93-2.06-1.3-3l-2.62-5.6-5.05-11.23c-3.37-7.5-6.74-14.97-10.3-22.46l-10.47-22.26-1.68-3.37h2.25s.75-6.18-3.74-7.3c0 0-.76 0-1.88.2-1.68-3.38-3.18-6.75-4.87-10.12l-.75-2.8c-.2-.95-.75-1.32-1.12-1.7-.37-.18-.75-.36-.94-.36-.56-.2-.94-.2-1.5-.38-.94-.2-1.68-.2-2.43-.2-1.67 0-3.17.2-4.67.38-3 .37-6.18.94-9.17 1.68-3 .75-6 1.5-8.98 2.43-1.5.57-3 .95-4.3 1.7l-2.25 1.1c-.37.2-.75.57-1.12.76-.18.2-.36.37-.55.56-.2.2-.2.37-.37.56v.76c.2.74.56.93.94 1.1.37.2.56.38.75.38.56.2.94.2 1.3.37.76.18 1.7.18 2.44.18 1.5 0 3.2-.2 4.7-.37 2.98-.36 6.17-.74 9.16-1.3l9.17-1.5c1.5-.2 3-.56 4.68-.94 1.32 2.62 2.63 5.43 3.94 8.05-8.6.76-22.08 1.88-30.5 2.82-.94-1.68-1.68-3.18-2.62-4.87-.2-.37-.75-.75-1.3-.56-.57.18-.76.74-.57 1.3.56 1.5 1.12 2.8 1.68 4.3-2.62.37-4.3.75-4.5 1.12-.93 1.68 1.88 10.48 5.62 12.73 0 0 1.5-.56 4.12-1.12 1.3 3 2.62 6 3.93 8.98l11.23 25.46 11.42 25.45c3.74 8.43 7.67 16.85 11.6 25.46 0 0 0 .2.2.2l-1.7 5.6-4.48 15.72c-2.8 10.48-5.43 21.15-8.05 31.63l-3.93 15.92-3.75 15.9c-2.62 10.68-5.05 21.16-8.05 31.64 0 .2 0 .56.2.75 1.5 2.07 3.55 3.57 5.42 5.06 2.06 1.5 4.12 2.62 6.18 3.74 4.3 2.25 8.8 3.93 13.47 5.43 4.68 1.3 9.54 2.25 14.6 2.43 2.43.2 5.05 0 7.5-.37 2.42-.38 4.86-.76 7.48-1.5.75-.2 1.3-.95 1.5-1.7v-.18c2.06-10.3 3.74-20.77 5.6-31.07l5.25-31.25c1.68-10.48 3.56-20.77 5.24-31.25.2-1.12.37-2.43.56-3.56.37.36.56.93.94 1.3 1.87 2.25 4.12 4.12 6.36 5.8 4.5 3.18 9.36 5.6 14.22 7.5 4.87 1.86 9.92 3.36 14.97 4.48 3.36.75 6.54 1.3 9.9 1.68-1.5 3.37-2.42 6.92-2.24 10.85 0 .38.2.76.56.95h.2c3.55 1.87 7.3 3.37 11.4 4.3 3.94.75 8.24 1.12 12.36.56 4.3-.55 8.6-2.24 11.98-5.04s5.8-6.55 7.3-10.48l.2-.2v-.18l.55-5.05v-.2c1.88-1.1 3.75-2.24 5.62-3.73 2.25-1.87 4.3-3.93 5.8-6.55s2.43-5.8 2.25-8.98c-.28-2.97-1.4-5.97-2.7-8.6zm-3.56-94.3s0 .18 0 0zm-13.3-9.93c2.63 1.5 5.06 3 7.5 4.87 1.12.94 2.43 1.68 3.56 2.8.56.57 1.12.95 1.5 1.5l.37.38h-.37c-.75-.2-1.3-.37-2.06-.56-1.3-.56-2.8-1.12-4.12-1.68-2.62-1.3-5.43-2.62-7.86-4.3-2.43-1.68-4.87-3.56-6.92-5.6-.75-.76-1.5-1.5-2.06-2.26l2.8 1.12c2.43.93 5.05 2.24 7.67 3.73zm-12.7-8.23l.18.2v.38s0-.2-.2-.2v-.38zm-158.15-16.1zm24.7-4.86c-2.6 1.3-5.6 2.25-8.4 3-3 .74-5.8 1.3-8.8 1.5-1.5.18-3 .18-4.5.18-.75 0-1.5 0-2.06-.2h-.57c.2 0 .2-.18.37-.18.56-.37 1.3-.56 1.87-.94 1.3-.56 2.8-.94 4.12-1.5 2.8-.75 5.8-1.5 8.8-2.06 2.98-.56 5.98-.94 8.8-1.12.93 0 1.86 0 2.8-.2-.57.58-1.5.96-2.44 1.52zm129.88 63.82l-11.6 8.98-11.6 9.17c-3.18 2.62-6.36 5.24-9.54 7.67.18-.2.36-.56.55-.75 1.5-2.06 3-3.93 4.5-5.8 3.17-3.74 6.17-7.67 9.53-11.23 3.37-3.56 6.92-7.1 10.48-10.3 1.87-1.67 3.74-3.17 5.8-4.48l1.68-1.12c1.68 1.3 3.56 2.62 5.24 3.93-1.5 1.3-3.36 2.62-5.05 3.93zm-137.17-23.02l.94.94c1.87 1.87 3.74 3.74 5.24 5.8 1.5 2.06 2.8 4.3 3.37 6.55.38 1.87.38 3.93-.55 5.6l-.2-.55-8.8-18.34zm9.17 19.46c.56-.56.94-1.3 1.3-2.25.57-1.32.57-2.82.38-4.13-.36-2.8-1.67-5.43-3.36-7.5-2.43-3.17-5.43-5.8-8.8-8.04l-2.06-4.3c-1.3-2.8-2.62-5.6-4.12-8.23 2.8-.75 6.18-1.87 9.92-2.8 3.37 5.42 6.36 11.03 9.17 16.83 3.18 7.3 6.36 14.97 6.92 22.83.2 1.87 0 3.93 0 6 0 2.05 0 4.1.2 6.17.18 2.8.74 5.8 1.3 8.6l-10.84-23.2zm44.16 152.52c-.57.75-.95 1.3-1.7 1.87-.93.75-1.86 1.12-2.98.94-.94-.2-1.68-1.12-2.06-2.06-.37-.93-.75-2.05-.75-3.17-.18-2.25-.18-4.5.38-6.74.37-2.26 1.12-4.3 2.06-6.37.56-.94 1.12-1.87 1.87-2.62.76-.74 1.7-1.3 2.63-1.1.94 0 1.87.93 2.43 1.86.37.56.56 1.12.75 1.68l-2.24 13.3c-.18.92-.18 1.67-.37 2.42zm11.03-64.56l-3.37 19.65c-.2-1.3-.56-2.62-.94-3.93-.94-3.56-2.06-6.92-3.18-10.3-2.43-6.73-5.24-13.28-8.6-19.45 2.05 6.92 4.48 13.47 6.9 20.2 1.32 3.38 2.44 6.75 3.57 9.93l1.7 5.05c0 .2.18.56.18.75-.56 3-1.12 6-1.5 9.17l-2.8 17.03c-.2-.37-.2-.75-.38-1.12-.56-1.12-1.3-2.25-2.8-2.62-1.32-.37-2.63.37-3.75 1.12-.94.75-1.68 1.87-2.43 2.8-1.3 2.07-2.06 4.5-2.43 6.75-.38 2.43-.57 4.87 0 7.3.18 1.12.55 2.43 1.3 3.56.56 1.1 1.68 2.24 3 2.42 1.3.2 2.6-.56 3.36-1.5.37-.37.75-.94 1.12-1.3-1.3 8.8-2.8 17.58-4.12 26.56-1.68.56-3.37.94-5.05 1.12-2.24.37-4.48.56-6.73.75-4.68.2-9.17-.2-13.85-1.3-4.5-.95-9.17-2.44-13.47-4.3-4.12-1.88-8.05-4.3-11.04-7.68 2.82-10.3 6-20.6 9.18-30.88l4.87-15.54 4.68-15.72c3.18-10.48 6.36-20.96 9.36-31.44 1.5-5.24 2.8-10.48 4.3-15.72 1.1-5.43 3.36-10.48 1.67-16.47v-.18c-.2-.2-.37-.2-.37 0-.94.94-1.5 1.68-2.25 2.62-2.06-4.68-4.3-9.17-6.36-13.85-.57-1.7-1.13-3.38-1.5-5.25-.95-3.93-1.7-7.86-1.88-11.8-.2-2.05-.2-3.92-.2-5.98s.2-4.12 0-6.18c-.74-8.24-3.92-16.1-7.48-23.4-2.8-5.8-6.18-11.23-9.92-16.47 6.18-1.68 12.73-3.37 17.97-4.3.74 1.68 1.67 3.18 2.42 4.87l11.23 22.08c3.74 7.3 7.5 14.6 11.23 21.9l5.6 10.85 2.82 5.43c.75 1.12 1.12 2.43 1.87 3.37l-7.3 6.74c-.2.2-.37.56 0 .94.2.38.75.38.94.2 3.94-2.8 7.87-5.8 11.8-8.8l11.8-8.98c7.85-6 15.52-11.98 23.2-17.97 7.67-6 15.35-12.16 23.02-18.34l.2-.18c4.1 3.93 10.28 9.73 16.83 14.78-2.8 1.5-5.43 3-7.86 4.87-3.94 3-7.68 6.36-11.05 10.1-3.37 3.75-6.55 7.5-9.36 11.6-2.07 2.82-3.94 5.8-5.8 9-11.43 9.35-22.65 18.9-33.5 28.8-.38.38-.38.95-.2 1.32.37.36.94.55 1.3.36-1.3 3.74-2.05 7.5-2.8 11.23-1.1 5.22-2.23 10.46-3.17 15.7zm82.72 25.07c-2.62 2.06-5.8 3.37-9.17 4.12s-7.1.74-10.67.36c-3.36-.37-6.9-.94-10.28-1.87-.37-3 .2-6.37 1.5-9.37 1.3.2 2.43.2 3.74.37.56 0 .94-.2 1.12-.75s0-1.3-.75-1.5c-.94-.37-1.68-.56-2.62-.94.76-1.3 1.7-2.42 2.63-3.55 1.12-1.12 2.25-2.25 3.37-3.18 2.43 1.5 4.87 2.62 7.67 3.56 3.18.94 6.55 1.3 10.1.94 3.38-.37 6.93-2.06 9.18-4.87 2.06-2.43 3-5.24 3.18-8.23.37 1.12.37 2.43.2 3.56-.2 1.5-.38 3.18-.76 4.68-.2.95-.37 1.88-.56 2.82l-2.8 1.68c-1.12.75-2.06 1.5-3 3.18 1.7.56 3 .37 4.3 0 .2 0 .2-.2.38-.2-.2.57-.2.95-.37 1.5-1.48 3-3.73 5.63-6.35 7.7zm18.53-24.5c-.94 2.05-2.43 3.92-4.12 5.6-.75.75-1.68 1.5-2.43 2.06 0-1.68-.2-3.37-.56-5.05-.2-.94-.37-1.68-.75-2.62-.37-.75-.75-1.68-1.68-2.25-.2 0-.37 0-.37.2-1.12 2.8-3 5.24-5.05 6.92s-4.68 2.43-7.3 2.62c-2.62.2-5.43-.37-8.23-1.12s-5.62-1.68-8.43-2.62l-.37-.2c-.56-.18-1.3 0-1.68.38-1.5 1.87-2.62 3.56-3.93 5.43-.95 1.5-1.7 2.82-2.44 4.3-3.37-1.3-6.55-2.42-9.92-3.73-4.68-1.87-9.36-3.74-13.66-6-4.5-2.05-8.8-4.48-12.54-7.3-3.74-2.8-7.1-5.8-8.8-9.53v-.2c-.37-.74-.94-1.3-1.68-1.67 0-.37.2-.94.2-1.3.55-4.5 1.3-9 .93-13.67 15.15-10.67 29.93-21.9 44.53-33.5-.2.56-.37 1.12-.56 1.68-.94 2.8-1.3 6-1.3 9.17.18 3.18 1.1 6.74 3.17 9.73 2.06 3 4.87 5.24 7.67 6.55 1.5.75 3 1.3 4.3 1.68l2.26.57 1.87.37c4.87 1.3 9.54 3.18 13.85 5.6 4.3 2.44 8.42 5.44 11.8 8.8s5.98 7.68 6.35 12c.16 3-.22 5.25-1.15 7.12z"/>
    <path fill="#3F3E29" d="M468.42 371.1c-1.5 2.06-2.62 4.5-3.18 6.92-.37 1.3-.56 2.62-.56 3.74l-.2 3.74c-.36 4.87-.18 10.1 1.32 14.97 1.5 4.87 3.56 9.36 6 13.66-.76-2.43-1.7-4.68-2.44-6.92s-1.5-4.67-2.06-7.1c-1.12-4.68-1.12-9.54-.94-14.4l.2-3.75c0-1.12.18-2.43.36-3.56.56-2.26 1.5-4.5 2.62-6.56 1.3-2.06 2.8-3.93 4.68-5.6 1.68-1.7 3.74-3.2 6-4.3-4.7 1.86-9 4.86-11.8 9.16z"/>
</svg>
