<?xml version="1.0" encoding="utf-8"?>
<!-- Generator: Adobe Illustrator 18.1.1, SVG Export Plug-In . SVG Version: 6.00 Build 0)  -->
<svg version="1.1" id="logo-haml" xmlns="http://www.w3.org/2000/svg" xmlns:xlink="http://www.w3.org/1999/xlink" x="0px" y="0px"
	 viewBox="0 0 600 600" enable-background="new 0 0 600 600" xml:space="preserve">
<path fill="#ECDFA7" d="M491.62,300.36L474.4,423.31c0,0-28.07,10.29-53.52-11.23l27.88-119.21L396.18,186.2
	c0,0,20.77-8.8,34.06-5.8l46.22,87.21l80.1-68.12c0,0,26.95,9.36,29.38,18.34L491.62,300.36z"/>
<path fill="#3F3E29" d="M0.94,351.08c5.24-0.56,10.11-1.5,14.6-4.12v-81.03c-4.49-2.62-10.11-3.56-15.35-4.12l0.75-5.99h44.35
	l-0.94,5.99c-5.24,0.56-10.11,1.5-14.6,4.12v35h46.97v-35c-4.49-2.62-10.11-3.56-15.35-4.12l0.75-5.99h44.35l-0.94,5.99
	c-5.24,0.56-10.11,1.5-14.6,4.12v80.85c4.49,2.62,10.11,3.56,15.35,4.12l-0.75,5.99H61.38l0.94-5.99c5.24-0.56,10.11-1.5,14.6-4.12
	v-37.43H29.76v37.62c4.49,2.62,10.11,3.56,15.35,4.12l-0.75,5.99H0L0.94,351.08z"/>
<path fill="#3F3E29" d="M157.95,349.95c-6.74,6.36-13.85,8.42-22.08,8.42c-12.73,0-20.21-6.92-20.21-18.53
	c0-13.85,10.11-22.27,29.01-23.58l12.73-0.94v-13.1c0-10.85-4.12-15.35-13.47-15.35c-8.05,0-12.73,2.62-12.73,7.3
	c0,2.62,1.87,4.87,4.87,5.99c0,4.87-3.37,7.67-9.36,7.67c-5.61,0-9.36-3.74-9.36-9.36c0-11.04,10.11-18.15,26.39-18.15
	c17.03,0,27.32,8.05,27.32,21.9v45.1c1.87,1.5,6.55,3.37,11.23,4.3l-0.56,5.61h-22.08L157.95,349.95z M157.39,321.88L145.22,323
	c-9.54,0.94-15.35,6.74-15.35,15.35s3.37,13.29,10.11,13.29c5.8,0,10.85-2.62,17.4-9.36C157.39,342.28,157.39,321.88,157.39,321.88z
	"/>
<path fill="#3F3E29" d="M192.19,351.26c4.87-0.75,7.3-1.68,10.67-4.12v-46.04c0-8.05-2.99-10.29-11.23-10.67l0.37-4.87
	c6.92-1.12,13.66-3.56,19.84-5.43l2.81,1.5l1.12,8.42c1.12-1.31,8.42-9.92,19.28-9.92c9.54,0,16.47,3.37,20.59,10.48
	c5.24-5.24,12.16-10.48,21.15-10.48c12.91,0,24.33,6.36,24.33,24.33v42.67c1.87,1.5,6.55,3.37,11.23,4.3l-0.56,5.61h-35.56
	l0.37-5.61c4.12-0.56,7.67-2.06,10.67-4.3V304.1c0-11.23-4.12-16.09-12.16-16.09c-7.67,0-14.6,7.11-16.28,12.54v46.6
	c1.87,1.5,6.55,3.37,11.23,4.3l-0.56,5.61h-35.56l0.37-5.61c4.12-0.56,7.67-2.06,10.67-4.3V304.1c0-11.23-4.12-16.09-12.16-16.09
	c-7.67,0-14.6,7.11-16.28,12.54v46.6c2.62,1.87,6.55,3.37,11.23,4.3l-0.56,5.61h-35.74L192.19,351.26z"/>
<path fill="#3F3E29" d="M322.63,351.26c4.87-0.75,7.3-1.68,10.67-4.12v-78.6c0-8.05-2.99-10.29-11.23-10.67l0.37-4.87
	c7.11-1.12,14.78-3.56,21.33-5.61l3.18,1.68v97.88c2.62,1.87,6.55,3.37,11.23,4.3l-0.56,5.61h-35.74L322.63,351.26z"/>
<path fill="#3F3E29" d="M597.36,312.71c-1.31-2.62-2.99-5.05-4.87-7.3c-3.74-4.3-8.23-7.86-13.1-10.67
	c-4.68-2.99-9.92-5.43-15.16-7.11l-2.06-0.56c-0.56-0.19-1.12-0.37-1.68-0.56c-1.12-0.37-2.06-0.94-2.99-1.31
	c-1.87-1.12-3.18-2.25-4.12-3.74c-1.87-2.81-2.06-7.11-1.12-11.6c0.19-1.12,0.56-2.25,0.94-3.37c0.37-1.12,0.75-2.25,1.12-3.56
	c0.37-1.68,0.56-3.37,0.56-5.43l0.94-0.75l11.23-9.36c2.06-1.68,4.12-3.56,6.18-5.24c0.75,0.37,1.5,0.94,2.06,1.31
	c0,0,5.8,0.56,8.98-8.23l-1.68-1.12l1.12-0.94l2.81-2.43c0.94-0.75,1.68-1.68,2.06-3.37c-1.68-0.19-2.81,0.37-3.74,1.12l-2.99,2.25
	l-2.06,1.5l-25.83-17.78c1.31-1.12,2.43-2.06,3.74-3.18l5.43-4.87c0.19-0.19,0.37-0.37,0.56-0.56c0.56,0.37,0.94,0.75,1.5,1.12
	c1.31,0.94,2.81,1.87,4.12,2.62l8.23,4.49c2.62,1.5,5.43,2.99,8.23,4.3c1.31,0.75,2.81,1.31,4.3,1.87c0.75,0.19,1.5,0.56,2.25,0.75
	c0.37,0,0.94,0.19,1.31,0.19c0.19,0,0.56,0,0.94,0c0.37,0,0.75-0.19,1.12-0.75v-0.19l0,0l0,0l0,0c0-0.19,0-0.37,0.19-0.56
	c0-0.37,0-0.56,0-0.75c0-0.37-0.19-0.56-0.37-0.75c-0.19-0.37-0.56-0.75-0.75-1.12c-0.56-0.56-1.12-1.31-1.68-1.68
	c-1.12-1.12-2.43-2.06-3.56-2.99c-2.43-1.87-5.05-3.56-7.67-5.24c-2.62-1.68-5.24-3.18-8.05-4.49c-1.31-0.75-2.81-1.31-4.3-1.87
	c-0.75-0.19-1.5-0.56-2.43-0.75c-0.37,0-0.94-0.19-1.5-0.19c-0.37,0-0.56,0-1.12,0.19c-0.37,0.19-0.94,0.37-1.5,0.94
	c-1.31,0.56-2.43,1.12-3.37,1.87l-5.61,3.18c-1.68,1.31-3.56,2.81-5.24,4.12l-1.87-1.31c0,0-7.86,0.75-5.24,5.8
	c0,0,0.19,0.19,0.75,0.75c-7.49,6.18-14.78,12.54-22.08,18.71c-7.49,6.36-14.78,12.73-22.27,19.28l-11.04,9.73
	c-0.56,0.56-1.12,1.12-1.87,1.68c-0.37-1.12-0.94-2.06-1.31-2.99l-2.62-5.61l-5.05-11.23c-3.37-7.49-6.74-14.97-10.29-22.46
	l-10.48-22.27c-0.56-1.12-1.12-2.25-1.68-3.37c0.94,0,1.68,0,2.25,0c0,0,0.75-6.18-3.74-7.3c0,0-0.75,0-1.87,0.19
	c-1.68-3.37-3.18-6.74-4.87-10.11l0,0l-0.75-2.81c-0.19-0.94-0.75-1.31-1.12-1.68c-0.37-0.19-0.75-0.37-0.94-0.37
	c-0.56-0.19-0.94-0.19-1.5-0.37c-0.94-0.19-1.68-0.19-2.43-0.19c-1.68,0-3.18,0.19-4.68,0.37c-2.99,0.37-6.18,0.94-9.17,1.68
	c-2.99,0.75-5.99,1.5-8.98,2.43c-1.5,0.56-2.99,0.94-4.3,1.68c-0.75,0.37-1.5,0.75-2.25,1.12c-0.37,0.19-0.75,0.56-1.12,0.75
	c-0.19,0.19-0.37,0.37-0.56,0.56c-0.19,0.19-0.19,0.37-0.37,0.56c0,0.19,0,0.37,0,0.56l0,0l0,0l0,0v0.19
	c0.19,0.75,0.56,0.94,0.94,1.12c0.37,0.19,0.56,0.37,0.75,0.37c0.56,0.19,0.94,0.19,1.31,0.37c0.75,0.19,1.68,0.19,2.43,0.19
	c1.5,0,3.18-0.19,4.68-0.37c2.99-0.37,6.18-0.75,9.17-1.31l9.17-1.5c1.5-0.19,2.99-0.56,4.68-0.94c1.31,2.62,2.62,5.43,3.93,8.05
	c-8.61,0.75-22.08,1.87-30.5,2.81c-0.94-1.68-1.68-3.18-2.62-4.87c-0.19-0.37-0.75-0.75-1.31-0.56c-0.56,0.19-0.75,0.75-0.56,1.31
	c0.56,1.5,1.12,2.81,1.68,4.3c-2.62,0.37-4.3,0.75-4.49,1.12c-0.94,1.68,1.87,10.48,5.61,12.73c0,0,1.5-0.56,4.12-1.12
	c1.31,2.99,2.62,5.99,3.93,8.98l11.23,25.45l11.42,25.45c3.74,8.42,7.67,16.84,11.6,25.45l0,0c0,0,0,0.19,0.19,0.19
	c-0.56,1.87-1.12,3.74-1.68,5.61c-1.5,5.24-2.99,10.48-4.49,15.72c-2.81,10.48-5.43,21.15-8.05,31.63l-3.93,15.91l-3.74,15.91
	c-2.62,10.67-5.05,21.15-8.05,31.63c0,0.19,0,0.56,0.19,0.75c1.5,2.06,3.56,3.56,5.43,5.05c2.06,1.5,4.12,2.62,6.18,3.74
	c4.3,2.25,8.8,3.93,13.47,5.43c4.68,1.31,9.54,2.25,14.6,2.43c2.43,0.19,5.05,0,7.49-0.37c2.43-0.37,4.87-0.75,7.49-1.5
	c0.75-0.19,1.31-0.94,1.5-1.68v-0.19c2.06-10.29,3.74-20.77,5.61-31.07l5.24-31.25c1.68-10.48,3.56-20.77,5.24-31.25
	c0.19-1.12,0.37-2.43,0.56-3.56c0.37,0.37,0.56,0.94,0.94,1.31c1.87,2.25,4.12,4.12,6.36,5.8c4.49,3.18,9.36,5.61,14.22,7.49
	c4.87,1.87,9.92,3.37,14.97,4.49c3.37,0.75,6.55,1.31,9.92,1.68c-1.5,3.37-2.43,6.92-2.25,10.85c0,0.37,0.19,0.75,0.56,0.94h0.19
	c3.56,1.87,7.3,3.37,11.42,4.3c3.93,0.75,8.23,1.12,12.35,0.56c4.3-0.56,8.61-2.25,11.98-5.05s5.8-6.55,7.3-10.48l0.19-0.19v-0.19
	c0.19-1.68,0.37-3.37,0.56-5.05v-0.19c1.87-1.12,3.74-2.25,5.61-3.74c2.25-1.87,4.3-3.93,5.8-6.55s2.43-5.8,2.25-8.98
	C599.79,318.33,598.67,315.33,597.36,312.71z M593.8,218.39L593.8,218.39C593.8,218.39,593.8,218.58,593.8,218.39z M580.51,208.47
	c2.62,1.5,5.05,2.99,7.49,4.87c1.12,0.94,2.43,1.68,3.56,2.81c0.56,0.56,1.12,0.94,1.5,1.5c0.19,0.19,0.19,0.19,0.37,0.37
	c-0.19,0-0.37,0-0.37,0c-0.75-0.19-1.31-0.37-2.06-0.56c-1.31-0.56-2.81-1.12-4.12-1.68c-2.62-1.31-5.43-2.62-7.86-4.3
	c-2.43-1.68-4.87-3.56-6.92-5.61c-0.75-0.75-1.5-1.5-2.06-2.25c0.94,0.37,1.87,0.75,2.81,1.12
	C575.27,205.67,577.89,206.98,580.51,208.47z M567.79,200.24c0,0,0,0,0.19,0.19v0.19v0.19c0,0,0-0.19-0.19-0.19V200.24
	L567.79,200.24z M409.65,184.15L409.65,184.15L409.65,184.15z M434.36,179.28c-2.62,1.31-5.61,2.25-8.42,2.99
	c-2.99,0.75-5.8,1.31-8.8,1.5c-1.5,0.19-2.99,0.19-4.49,0.19c-0.75,0-1.5,0-2.06-0.19c-0.19,0-0.37,0-0.56,0
	c0.19,0,0.19-0.19,0.37-0.19c0.56-0.37,1.31-0.56,1.87-0.94c1.31-0.56,2.81-0.94,4.12-1.5c2.81-0.75,5.8-1.5,8.8-2.06
	c2.99-0.56,5.99-0.94,8.8-1.12c0.94,0,1.87,0,2.81-0.19C436.23,178.34,435.29,178.72,434.36,179.28z M564.23,243.1l-11.6,8.98
	l-11.6,9.17c-3.18,2.62-6.36,5.24-9.54,7.67c0.19-0.19,0.37-0.56,0.56-0.75c1.5-2.06,2.99-3.93,4.49-5.8
	c3.18-3.74,6.18-7.67,9.54-11.23c3.37-3.56,6.92-7.11,10.48-10.29c1.87-1.68,3.74-3.18,5.8-4.49c0.56-0.37,1.12-0.75,1.68-1.12
	c1.68,1.31,3.56,2.62,5.24,3.93C567.79,240.48,565.92,241.79,564.23,243.1z M427.06,220.08l0.94,0.94c1.87,1.87,3.74,3.74,5.24,5.8
	c1.5,2.06,2.81,4.3,3.37,6.55c0.37,1.87,0.37,3.93-0.56,5.61l-0.19-0.56L427.06,220.08z M436.23,239.54
	c0.56-0.56,0.94-1.31,1.31-2.25c0.56-1.31,0.56-2.81,0.37-4.12c-0.37-2.81-1.68-5.43-3.37-7.49c-2.43-3.18-5.43-5.8-8.8-8.05
	l-2.06-4.3c-1.31-2.81-2.62-5.61-4.12-8.23c2.81-0.75,6.18-1.87,9.92-2.81c3.37,5.43,6.36,11.04,9.17,16.84
	c3.18,7.3,6.36,14.97,6.92,22.83c0.19,1.87,0,3.93,0,5.99c0,2.06,0,4.12,0.19,6.18c0.19,2.81,0.75,5.8,1.31,8.61L436.23,239.54z
	 M480.39,392.06c-0.56,0.75-0.94,1.31-1.68,1.87c-0.94,0.75-1.87,1.12-2.99,0.94c-0.94-0.19-1.68-1.12-2.06-2.06
	c-0.37-0.94-0.75-2.06-0.75-3.18c-0.19-2.25-0.19-4.49,0.37-6.74c0.37-2.25,1.12-4.3,2.06-6.36c0.56-0.94,1.12-1.87,1.87-2.62
	c0.75-0.75,1.68-1.31,2.62-1.12c0.94,0,1.87,0.94,2.43,1.87c0.37,0.56,0.56,1.12,0.75,1.68l-2.25,13.29
	C480.58,390.56,480.58,391.31,480.39,392.06z M491.43,327.5c-1.12,6.55-2.25,13.1-3.37,19.65c-0.19-1.31-0.56-2.62-0.94-3.93
	c-0.94-3.56-2.06-6.92-3.18-10.29c-2.43-6.74-5.24-13.29-8.61-19.46c2.06,6.92,4.49,13.47,6.92,20.21c1.31,3.37,2.43,6.74,3.56,9.92
	c0.56,1.68,1.12,3.37,1.68,5.05c0,0.19,0.19,0.56,0.19,0.75c-0.56,2.99-1.12,5.99-1.5,9.17l-2.81,17.03
	c-0.19-0.37-0.19-0.75-0.37-1.12c-0.56-1.12-1.31-2.25-2.81-2.62c-1.31-0.37-2.62,0.37-3.74,1.12c-0.94,0.75-1.68,1.87-2.43,2.81
	c-1.31,2.06-2.06,4.49-2.43,6.74c-0.37,2.43-0.56,4.87,0,7.3c0.19,1.12,0.56,2.43,1.31,3.56c0.56,1.12,1.68,2.25,2.99,2.43
	c1.31,0.19,2.62-0.56,3.37-1.5c0.37-0.37,0.75-0.94,1.12-1.31c-1.31,8.8-2.81,17.59-4.12,26.57c-1.68,0.56-3.37,0.94-5.05,1.12
	c-2.25,0.37-4.49,0.56-6.74,0.75c-4.68,0.19-9.17-0.19-13.85-1.31c-4.49-0.94-9.17-2.43-13.47-4.3c-4.12-1.87-8.05-4.3-11.04-7.67
	c2.81-10.29,5.99-20.59,9.17-30.88l4.87-15.53l4.68-15.72c3.18-10.48,6.36-20.96,9.36-31.44c1.5-5.24,2.81-10.48,4.3-15.72
	c1.12-5.43,3.37-10.48,1.68-16.47v-0.19c-0.19-0.19-0.37-0.19-0.37,0c-0.94,0.94-1.5,1.68-2.25,2.62c-2.06-4.68-4.3-9.17-6.36-13.85
	c-0.56-1.68-1.12-3.37-1.5-5.24c-0.94-3.93-1.68-7.86-1.87-11.79c-0.19-2.06-0.19-3.93-0.19-5.99s0.19-4.12,0-6.18
	c-0.75-8.23-3.93-16.09-7.49-23.39c-2.81-5.8-6.18-11.23-9.92-16.47c6.18-1.68,12.73-3.37,17.97-4.3c0.75,1.68,1.68,3.18,2.43,4.87
	l11.23,22.08c3.74,7.3,7.49,14.6,11.23,21.9l5.61,10.85l2.81,5.43c0.75,1.12,1.12,2.43,1.87,3.37c-2.43,2.25-4.87,4.49-7.3,6.74
	c-0.19,0.19-0.37,0.56,0,0.94c0.19,0.37,0.75,0.37,0.94,0.19c3.93-2.81,7.86-5.8,11.79-8.8l11.79-8.98
	c7.86-5.99,15.53-11.98,23.21-17.97c7.67-5.99,15.35-12.16,23.02-18.34l0.19-0.19c4.12,3.93,10.29,9.73,16.84,14.78
	c-2.81,1.5-5.43,2.99-7.86,4.87c-3.93,2.99-7.67,6.36-11.04,10.11c-3.37,3.74-6.55,7.49-9.36,11.6c-2.06,2.81-3.93,5.8-5.8,8.98
	c-11.42,9.36-22.64,18.9-33.5,28.82c-0.37,0.37-0.37,0.94-0.19,1.31c0.37,0.37,0.94,0.56,1.31,0.37c-1.31,3.74-2.06,7.49-2.81,11.23
	C493.49,317.02,492.37,322.26,491.43,327.5z M574.15,352.57c-2.62,2.06-5.8,3.37-9.17,4.12s-7.11,0.75-10.67,0.37
	c-3.37-0.37-6.92-0.94-10.29-1.87c-0.37-2.99,0.19-6.36,1.5-9.36c1.31,0.19,2.43,0.19,3.74,0.37c0.56,0,0.94-0.19,1.12-0.75
	s0-1.31-0.75-1.5l0,0c-0.94-0.37-1.68-0.56-2.62-0.94c0.75-1.31,1.68-2.43,2.62-3.56c1.12-1.12,2.25-2.25,3.37-3.18
	c2.43,1.5,4.87,2.62,7.67,3.56c3.18,0.94,6.55,1.31,10.11,0.94c3.37-0.37,6.92-2.06,9.17-4.87c2.06-2.43,2.99-5.24,3.18-8.23
	c0.37,1.12,0.37,2.43,0.19,3.56c-0.19,1.5-0.37,3.18-0.75,4.68c-0.19,0.94-0.37,1.87-0.56,2.81c-0.94,0.56-1.87,1.12-2.81,1.68
	c-1.12,0.75-2.06,1.5-2.99,3.18c1.68,0.56,2.99,0.37,4.3,0c0.19,0,0.19-0.19,0.37-0.19c-0.19,0.56-0.19,0.94-0.37,1.5
	C579.02,347.89,576.77,350.51,574.15,352.57z M592.68,328.06c-0.94,2.06-2.43,3.93-4.12,5.61c-0.75,0.75-1.68,1.5-2.43,2.06
	c0-1.68-0.19-3.37-0.56-5.05c-0.19-0.94-0.37-1.68-0.75-2.62c-0.37-0.75-0.75-1.68-1.68-2.25l0,0c-0.19,0-0.37,0-0.37,0.19l0,0
	c-1.12,2.81-2.99,5.24-5.05,6.92s-4.68,2.43-7.3,2.62c-2.62,0.19-5.43-0.37-8.23-1.12s-5.61-1.68-8.42-2.62l-0.37-0.19
	c-0.56-0.19-1.31,0-1.68,0.37c-1.5,1.87-2.62,3.56-3.93,5.43c-0.94,1.5-1.68,2.81-2.43,4.3c-3.37-1.31-6.55-2.43-9.92-3.74
	c-4.68-1.87-9.36-3.74-13.66-5.99c-4.49-2.06-8.8-4.49-12.54-7.3c-3.74-2.81-7.11-5.8-8.8-9.54v-0.19
	c-0.37-0.75-0.94-1.31-1.68-1.68c0-0.37,0.19-0.94,0.19-1.31c0.56-4.49,1.31-8.98,0.94-13.66c15.16-10.67,29.94-21.9,44.54-33.5
	c-0.19,0.56-0.37,1.12-0.56,1.68c-0.94,2.81-1.31,5.99-1.31,9.17c0.19,3.18,1.12,6.74,3.18,9.73c2.06,2.99,4.87,5.24,7.67,6.55
	c1.5,0.75,2.99,1.31,4.3,1.68c0.75,0.19,1.5,0.37,2.25,0.56l1.87,0.37c4.87,1.31,9.54,3.18,13.85,5.61c4.3,2.43,8.42,5.43,11.79,8.8
	s5.99,7.67,6.36,11.98C593.99,323.94,593.61,326.19,592.68,328.06z"/>
<path fill="#3F3E29" d="M468.42,371.1c-1.5,2.06-2.62,4.49-3.18,6.92c-0.37,1.31-0.56,2.62-0.56,3.74l-0.19,3.74
	c-0.37,4.87-0.19,10.11,1.31,14.97c1.5,4.87,3.56,9.36,5.99,13.66c-0.75-2.43-1.68-4.68-2.43-6.92s-1.5-4.68-2.06-7.11
	c-1.12-4.68-1.12-9.54-0.94-14.41l0.19-3.74c0-1.12,0.19-2.43,0.37-3.56c0.56-2.25,1.5-4.49,2.62-6.55
	c1.31-2.06,2.81-3.93,4.68-5.61c1.68-1.68,3.74-3.18,5.99-4.3C475.53,363.8,471.22,366.8,468.42,371.1z"/>
</svg>
