<?xml version="1.0" encoding="utf-8"?>
<!-- Generator: Adobe Illustrator 18.1.1, SVG Export Plug-In . SVG Version: 6.00 Build 0)  -->
<svg version="1.1" id="logo-haml-knockout-padded" xmlns="http://www.w3.org/2000/svg" xmlns:xlink="http://www.w3.org/1999/xlink"
	 x="0px" y="0px" viewBox="0 0 600 600" enable-background="new 0 0 600 600" xml:space="preserve">
<g>
	<path fill="#FFFFFF" d="M88.97,333.15c3.79-0.41,7.31-1.08,10.56-2.98v-58.62c-3.25-1.9-7.31-2.57-11.1-2.98l0.54-4.33h32.08
		l-0.68,4.33c-3.79,0.41-7.31,1.08-10.56,2.98v25.31h33.98v-25.31c-3.25-1.9-7.31-2.57-11.1-2.98l0.54-4.33h32.08l-0.68,4.33
		c-3.79,0.41-7.31,1.08-10.56,2.98v58.48c3.25,1.9,7.31,2.57,11.1,2.98l-0.54,4.33H132.7l0.68-4.33c3.79-0.41,7.31-1.08,10.56-2.98
		v-27.07h-34.11v27.21c3.25,1.9,7.31,2.57,11.1,2.98l-0.54,4.33H88.29L88.97,333.15z"/>
</g>
<g>
	<path fill="#FFFFFF" d="M202.55,332.34c-4.87,4.6-10.02,6.09-15.97,6.09c-9.21,0-14.62-5.01-14.62-13.4
		c0-10.02,7.31-16.11,20.98-17.06l9.21-0.68v-9.48c0-7.85-2.98-11.1-9.75-11.1c-5.82,0-9.21,1.9-9.21,5.28
		c0,1.9,1.35,3.52,3.52,4.33c0,3.52-2.44,5.55-6.77,5.55c-4.06,0-6.77-2.71-6.77-6.77c0-7.99,7.31-13.13,19.09-13.13
		c12.32,0,19.76,5.82,19.76,15.84v32.62c1.35,1.08,4.74,2.44,8.12,3.11l-0.41,4.06h-15.97L202.55,332.34z M202.14,312.04l-8.8,0.81
		c-6.9,0.68-11.1,4.87-11.1,11.1s2.44,9.61,7.31,9.61c4.2,0,7.85-1.9,12.59-6.77C202.14,326.79,202.14,312.04,202.14,312.04z"/>
</g>
<g>
	<path fill="#FFFFFF" d="M227.32,333.29c3.52-0.54,5.28-1.22,7.72-2.98v-33.3c0-5.82-2.17-7.45-8.12-7.72l0.27-3.52
		c5.01-0.81,9.88-2.57,14.35-3.93l2.03,1.08l0.81,6.09c0.81-0.95,6.09-7.17,13.94-7.17c6.9,0,11.91,2.44,14.89,7.58
		c3.79-3.79,8.8-7.58,15.3-7.58c9.34,0,17.6,4.6,17.6,17.6v30.87c1.35,1.08,4.74,2.44,8.12,3.11l-0.41,4.06h-25.72l0.27-4.06
		c2.98-0.41,5.55-1.49,7.72-3.11v-31.14c0-8.12-2.98-11.64-8.8-11.64c-5.55,0-10.56,5.14-11.78,9.07v33.71
		c1.35,1.08,4.74,2.44,8.12,3.11l-0.41,4.06h-25.72l0.27-4.06c2.98-0.41,5.55-1.49,7.72-3.11v-31.14c0-8.12-2.98-11.64-8.8-11.64
		c-5.55,0-10.56,5.14-11.78,9.07v33.71c1.9,1.35,4.74,2.44,8.12,3.11l-0.41,4.06h-25.86L227.32,333.29z"/>
</g>
<g>
	<path fill="#FFFFFF" d="M321.68,333.29c3.52-0.54,5.28-1.22,7.72-2.98v-56.86c0-5.82-2.17-7.45-8.12-7.72l0.27-3.52
		c5.14-0.81,10.69-2.57,15.43-4.06l2.3,1.22v70.8c1.9,1.35,4.74,2.44,8.12,3.11l-0.41,4.06h-25.86L321.68,333.29z"/>
</g>
<path fill="#FFFFFF" d="M520.41,305.4c-0.95-1.9-2.17-3.66-3.52-5.28c-2.71-3.11-5.96-5.69-9.48-7.72
	c-3.38-2.17-7.17-3.93-10.97-5.14l-1.49-0.41c-0.41-0.14-0.81-0.27-1.22-0.41c-0.81-0.27-1.49-0.68-2.17-0.95
	c-1.35-0.81-2.3-1.62-2.98-2.71c-1.35-2.03-1.49-5.14-0.81-8.39c0.14-0.81,0.41-1.62,0.68-2.44c0.27-0.81,0.54-1.62,0.81-2.57
	c0.27-1.22,0.41-2.44,0.41-3.93l0.68-0.54l8.12-6.77c1.49-1.22,2.98-2.57,4.47-3.79c0.54,0.27,1.08,0.68,1.49,0.95
	c0,0,4.2,0.41,6.5-5.96l-1.22-0.81l0.81-0.68l2.03-1.76c0.68-0.54,1.22-1.22,1.49-2.44c-1.22-0.14-2.03,0.27-2.71,0.81l-2.17,1.62
	l-1.49,1.08L489,234.33c0.95-0.81,1.76-1.49,2.71-2.3l3.93-3.52c0.14-0.14,0.27-0.27,0.41-0.41c0.41,0.27,0.68,0.54,1.08,0.81
	c0.95,0.68,2.03,1.35,2.98,1.9l5.96,3.25c1.9,1.08,3.93,2.17,5.96,3.11c0.95,0.54,2.03,0.95,3.11,1.35
	c0.54,0.14,1.08,0.41,1.62,0.54c0.27,0,0.68,0.14,0.95,0.14c0.14,0,0.41,0,0.68,0c0.27,0,0.54-0.14,0.81-0.54v-0.14l0,0l0,0l0,0
	c0-0.14,0-0.27,0.14-0.41c0-0.27,0-0.41,0-0.54c0-0.27-0.14-0.41-0.27-0.54c-0.14-0.27-0.41-0.54-0.54-0.81
	c-0.41-0.41-0.81-0.95-1.22-1.22c-0.81-0.81-1.76-1.49-2.57-2.17c-1.76-1.35-3.66-2.57-5.55-3.79c-1.9-1.22-3.79-2.3-5.82-3.25
	c-0.95-0.54-2.03-0.95-3.11-1.35c-0.54-0.14-1.08-0.41-1.76-0.54c-0.27,0-0.68-0.14-1.08-0.14c-0.27,0-0.41,0-0.81,0.14
	c-0.27,0.14-0.68,0.27-1.08,0.68c-0.95,0.41-1.76,0.81-2.44,1.35l-4.06,2.3c-1.22,0.95-2.57,2.03-3.79,2.98l-1.35-0.95
	c0,0-5.69,0.54-3.79,4.2c0,0,0.14,0.14,0.54,0.54c-5.41,4.47-10.69,9.07-15.97,13.54c-5.41,4.6-10.69,9.21-16.11,13.94l-7.99,7.04
	c-0.41,0.41-0.81,0.81-1.35,1.22c-0.27-0.81-0.68-1.49-0.95-2.17l-1.9-4.06l-3.66-8.12c-2.44-5.41-4.87-10.83-7.45-16.24
	l-7.58-16.11c-0.41-0.81-0.81-1.62-1.22-2.44c0.68,0,1.22,0,1.62,0c0,0,0.54-4.47-2.71-5.28c0,0-0.54,0-1.35,0.14
	c-1.22-2.44-2.3-4.87-3.52-7.31l0,0l-0.54-2.03c-0.14-0.68-0.54-0.95-0.81-1.22c-0.27-0.14-0.54-0.27-0.68-0.27
	c-0.41-0.14-0.68-0.14-1.08-0.27c-0.68-0.14-1.22-0.14-1.76-0.14c-1.22,0-2.3,0.14-3.38,0.27c-2.17,0.27-4.47,0.68-6.63,1.22
	c-2.17,0.54-4.33,1.08-6.5,1.76c-1.08,0.41-2.17,0.68-3.11,1.22c-0.54,0.27-1.08,0.54-1.62,0.81c-0.27,0.14-0.54,0.41-0.81,0.54
	c-0.14,0.14-0.27,0.27-0.41,0.41c-0.14,0.14-0.14,0.27-0.27,0.41c0,0.14,0,0.27,0,0.41l0,0l0,0l0,0v0.14
	c0.14,0.54,0.41,0.68,0.68,0.81c0.27,0.14,0.41,0.27,0.54,0.27c0.41,0.14,0.68,0.14,0.95,0.27c0.54,0.14,1.22,0.14,1.76,0.14
	c1.08,0,2.3-0.14,3.38-0.27c2.17-0.27,4.47-0.54,6.63-0.95l6.63-1.08c1.08-0.14,2.17-0.41,3.38-0.68c0.95,1.9,1.9,3.93,2.84,5.82
	c-6.23,0.54-15.97,1.35-22.07,2.03c-0.68-1.22-1.22-2.3-1.9-3.52c-0.14-0.27-0.54-0.54-0.95-0.41s-0.54,0.54-0.41,0.95
	c0.41,1.08,0.81,2.03,1.22,3.11c-1.9,0.27-3.11,0.54-3.25,0.81c-0.68,1.22,1.35,7.58,4.06,9.21c0,0,1.08-0.41,2.98-0.81
	c0.95,2.17,1.9,4.33,2.84,6.5l8.12,18.41l8.26,18.41c2.71,6.09,5.55,12.18,8.39,18.41l0,0c0,0,0,0.14,0.14,0.14
	c-0.41,1.35-0.81,2.71-1.22,4.06c-1.08,3.79-2.17,7.58-3.25,11.37c-2.03,7.58-3.93,15.3-5.82,22.88l-2.84,11.51l-2.71,11.51
	c-1.9,7.72-3.66,15.3-5.82,22.88c0,0.14,0,0.41,0.14,0.54c1.08,1.49,2.57,2.57,3.93,3.66c1.49,1.08,2.98,1.9,4.47,2.71
	c3.11,1.62,6.36,2.84,9.75,3.93c3.38,0.95,6.9,1.62,10.56,1.76c1.76,0.14,3.66,0,5.41-0.27c1.76-0.27,3.52-0.54,5.41-1.08
	c0.54-0.14,0.95-0.68,1.08-1.22v-0.14c1.49-7.45,2.71-15.03,4.06-22.47l3.79-22.61c1.22-7.58,2.57-15.03,3.79-22.61
	c0.14-0.81,0.27-1.76,0.41-2.57c0.27,0.27,0.41,0.68,0.68,0.95c1.35,1.62,2.98,2.98,4.6,4.2c3.25,2.3,6.77,4.06,10.29,5.41
	c3.52,1.35,7.17,2.44,10.83,3.25c2.44,0.54,4.74,0.95,7.17,1.22c-1.08,2.44-1.76,5.01-1.62,7.85c0,0.27,0.14,0.54,0.41,0.68h0.14
	c2.57,1.35,5.28,2.44,8.26,3.11c2.84,0.54,5.96,0.81,8.93,0.41c3.11-0.41,6.23-1.62,8.66-3.66c2.44-2.03,4.2-4.74,5.28-7.58
	l0.14-0.14v-0.14c0.14-1.22,0.27-2.44,0.41-3.66v-0.14c1.35-0.81,2.71-1.62,4.06-2.71c1.62-1.35,3.11-2.84,4.2-4.74
	s1.76-4.2,1.62-6.5C522.17,309.46,521.35,307.3,520.41,305.4z M517.83,237.17L517.83,237.17
	C517.83,237.17,517.83,237.31,517.83,237.17z M508.22,230c1.9,1.08,3.66,2.17,5.41,3.52c0.81,0.68,1.76,1.22,2.57,2.03
	c0.41,0.41,0.81,0.68,1.08,1.08c0.14,0.14,0.14,0.14,0.27,0.27c-0.14,0-0.27,0-0.27,0c-0.54-0.14-0.95-0.27-1.49-0.41
	c-0.95-0.41-2.03-0.81-2.98-1.22c-1.9-0.95-3.93-1.9-5.69-3.11c-1.76-1.22-3.52-2.57-5.01-4.06c-0.54-0.54-1.08-1.08-1.49-1.62
	c0.68,0.27,1.35,0.54,2.03,0.81C504.43,227.97,506.33,228.92,508.22,230z M499.02,224.04c0,0,0,0,0.14,0.14v0.14v0.14
	c0,0,0-0.14-0.14-0.14V224.04L499.02,224.04z M384.63,212.4L384.63,212.4L384.63,212.4z M402.5,208.88
	c-1.9,0.95-4.06,1.62-6.09,2.17c-2.17,0.54-4.2,0.95-6.36,1.08c-1.08,0.14-2.17,0.14-3.25,0.14c-0.54,0-1.08,0-1.49-0.14
	c-0.14,0-0.27,0-0.41,0c0.14,0,0.14-0.14,0.27-0.14c0.41-0.27,0.95-0.41,1.35-0.68c0.95-0.41,2.03-0.68,2.98-1.08
	c2.03-0.54,4.2-1.08,6.36-1.49c2.17-0.41,4.33-0.68,6.36-0.81c0.68,0,1.35,0,2.03-0.14C403.85,208.2,403.17,208.48,402.5,208.88z
	 M496.45,255.04l-8.39,6.5l-8.39,6.63c-2.3,1.9-4.6,3.79-6.9,5.55c0.14-0.14,0.27-0.41,0.41-0.54c1.08-1.49,2.17-2.84,3.25-4.2
	c2.3-2.71,4.47-5.55,6.9-8.12c2.44-2.57,5.01-5.14,7.58-7.45c1.35-1.22,2.71-2.3,4.2-3.25c0.41-0.27,0.81-0.54,1.22-0.81
	c1.22,0.95,2.57,1.9,3.79,2.84C499.02,253.15,497.66,254.1,496.45,255.04z M397.22,238.39l0.68,0.68c1.35,1.35,2.71,2.71,3.79,4.2
	c1.08,1.49,2.03,3.11,2.44,4.74c0.27,1.35,0.27,2.84-0.41,4.06l-0.14-0.41L397.22,238.39z M403.85,252.47
	c0.41-0.41,0.68-0.95,0.95-1.62c0.41-0.95,0.41-2.03,0.27-2.98c-0.27-2.03-1.22-3.93-2.44-5.41c-1.76-2.3-3.93-4.2-6.36-5.82
	l-1.49-3.11c-0.95-2.03-1.9-4.06-2.98-5.96c2.03-0.54,4.47-1.35,7.17-2.03c2.44,3.93,4.6,7.99,6.63,12.18
	c2.3,5.28,4.6,10.83,5.01,16.52c0.14,1.35,0,2.84,0,4.33s0,2.98,0.14,4.47c0.14,2.03,0.54,4.2,0.95,6.23L403.85,252.47z
	 M435.8,362.8c-0.41,0.54-0.68,0.95-1.22,1.35c-0.68,0.54-1.35,0.81-2.17,0.68c-0.68-0.14-1.22-0.81-1.49-1.49
	c-0.27-0.68-0.54-1.49-0.54-2.3c-0.14-1.62-0.14-3.25,0.27-4.87c0.27-1.62,0.81-3.11,1.49-4.6c0.41-0.68,0.81-1.35,1.35-1.9
	c0.54-0.54,1.22-0.95,1.9-0.81c0.68,0,1.35,0.68,1.76,1.35c0.27,0.41,0.41,0.81,0.54,1.22l-1.62,9.61
	C435.93,361.72,435.93,362.26,435.8,362.8z M443.78,316.1c-0.81,4.74-1.62,9.48-2.44,14.21c-0.14-0.95-0.41-1.9-0.68-2.84
	c-0.68-2.57-1.49-5.01-2.3-7.45c-1.76-4.87-3.79-9.61-6.23-14.08c1.49,5.01,3.25,9.75,5.01,14.62c0.95,2.44,1.76,4.87,2.57,7.17
	c0.41,1.22,0.81,2.44,1.22,3.66c0,0.14,0.14,0.41,0.14,0.54c-0.41,2.17-0.81,4.33-1.08,6.63l-2.03,12.32
	c-0.14-0.27-0.14-0.54-0.27-0.81c-0.41-0.81-0.95-1.62-2.03-1.9c-0.95-0.27-1.9,0.27-2.71,0.81c-0.68,0.54-1.22,1.35-1.76,2.03
	c-0.95,1.49-1.49,3.25-1.76,4.87c-0.27,1.76-0.41,3.52,0,5.28c0.14,0.81,0.41,1.76,0.95,2.57c0.41,0.81,1.22,1.62,2.17,1.76
	c0.95,0.14,1.9-0.41,2.44-1.08c0.27-0.27,0.54-0.68,0.81-0.95c-0.95,6.36-2.03,12.73-2.98,19.22c-1.22,0.41-2.44,0.68-3.66,0.81
	c-1.62,0.27-3.25,0.41-4.87,0.54c-3.38,0.14-6.63-0.14-10.02-0.95c-3.25-0.68-6.63-1.76-9.75-3.11c-2.98-1.35-5.82-3.11-7.99-5.55
	c2.03-7.45,4.33-14.89,6.63-22.34l3.52-11.24l3.38-11.37c2.3-7.58,4.6-15.16,6.77-22.74c1.08-3.79,2.03-7.58,3.11-11.37
	c0.81-3.93,2.44-7.58,1.22-11.91v-0.14c-0.14-0.14-0.27-0.14-0.27,0c-0.68,0.68-1.08,1.22-1.62,1.9c-1.49-3.38-3.11-6.63-4.6-10.02
	c-0.41-1.22-0.81-2.44-1.08-3.79c-0.68-2.84-1.22-5.69-1.35-8.53c-0.14-1.49-0.14-2.84-0.14-4.33s0.14-2.98,0-4.47
	c-0.54-5.96-2.84-11.64-5.41-16.92c-2.03-4.2-4.47-8.12-7.17-11.91c4.47-1.22,9.21-2.44,13-3.11c0.54,1.22,1.22,2.3,1.76,3.52
	l8.12,15.97c2.71,5.28,5.41,10.56,8.12,15.84l4.06,7.85l2.03,3.93c0.54,0.81,0.81,1.76,1.35,2.44c-1.76,1.62-3.52,3.25-5.28,4.87
	c-0.14,0.14-0.27,0.41,0,0.68c0.14,0.27,0.54,0.27,0.68,0.14c2.84-2.03,5.69-4.2,8.53-6.36l8.53-6.5c5.69-4.33,11.24-8.66,16.79-13
	s11.1-8.8,16.65-13.27l0.14-0.14c2.98,2.84,7.45,7.04,12.18,10.69c-2.03,1.08-3.93,2.17-5.69,3.52c-2.84,2.17-5.55,4.6-7.99,7.31
	s-4.74,5.41-6.77,8.39c-1.49,2.03-2.84,4.2-4.2,6.5c-8.26,6.77-16.38,13.67-24.23,20.85c-0.27,0.27-0.27,0.68-0.14,0.95
	c0.27,0.27,0.68,0.41,0.95,0.27c-0.95,2.71-1.49,5.41-2.03,8.12C445.27,308.52,444.46,312.31,443.78,316.1z M503.62,334.24
	c-1.9,1.49-4.2,2.44-6.63,2.98c-2.44,0.54-5.14,0.54-7.72,0.27c-2.44-0.27-5.01-0.68-7.45-1.35c-0.27-2.17,0.14-4.6,1.08-6.77
	c0.95,0.14,1.76,0.14,2.71,0.27c0.41,0,0.68-0.14,0.81-0.54s0-0.95-0.54-1.08l0,0c-0.68-0.27-1.22-0.41-1.9-0.68
	c0.54-0.95,1.22-1.76,1.9-2.57c0.81-0.81,1.62-1.62,2.44-2.3c1.76,1.08,3.52,1.9,5.55,2.57c2.3,0.68,4.74,0.95,7.31,0.68
	c2.44-0.27,5.01-1.49,6.63-3.52c1.49-1.76,2.17-3.79,2.3-5.96c0.27,0.81,0.27,1.76,0.14,2.57c-0.14,1.08-0.27,2.3-0.54,3.38
	c-0.14,0.68-0.27,1.35-0.41,2.03c-0.68,0.41-1.35,0.81-2.03,1.22c-0.81,0.54-1.49,1.08-2.17,2.3c1.22,0.41,2.17,0.27,3.11,0
	c0.14,0,0.14-0.14,0.27-0.14c-0.14,0.41-0.14,0.68-0.27,1.08C507.14,330.85,505.52,332.75,503.62,334.24z M517.02,316.5
	c-0.68,1.49-1.76,2.84-2.98,4.06c-0.54,0.54-1.22,1.08-1.76,1.49c0-1.22-0.14-2.44-0.41-3.66c-0.14-0.68-0.27-1.22-0.54-1.9
	c-0.27-0.54-0.54-1.22-1.22-1.62l0,0c-0.14,0-0.27,0-0.27,0.14l0,0c-0.81,2.03-2.17,3.79-3.66,5.01c-1.49,1.22-3.38,1.76-5.28,1.9
	c-1.9,0.14-3.93-0.27-5.96-0.81s-4.06-1.22-6.09-1.9l-0.27-0.14c-0.41-0.14-0.95,0-1.22,0.27c-1.08,1.35-1.9,2.57-2.84,3.93
	c-0.68,1.08-1.22,2.03-1.76,3.11c-2.44-0.95-4.74-1.76-7.17-2.71c-3.38-1.35-6.77-2.71-9.88-4.33c-3.25-1.49-6.36-3.25-9.07-5.28
	c-2.71-2.03-5.14-4.2-6.36-6.9v-0.14c-0.27-0.54-0.68-0.95-1.22-1.22c0-0.27,0.14-0.68,0.14-0.95c0.41-3.25,0.95-6.5,0.68-9.88
	c10.97-7.72,21.66-15.84,32.22-24.23c-0.14,0.41-0.27,0.81-0.41,1.22c-0.68,2.03-0.95,4.33-0.95,6.63c0.14,2.3,0.81,4.87,2.3,7.04
	c1.49,2.17,3.52,3.79,5.55,4.74c1.08,0.54,2.17,0.95,3.11,1.22c0.54,0.14,1.08,0.27,1.62,0.41l1.35,0.27
	c3.52,0.95,6.9,2.3,10.02,4.06c3.11,1.76,6.09,3.93,8.53,6.36c2.44,2.44,4.33,5.55,4.6,8.66
	C517.97,313.53,517.7,315.15,517.02,316.5z"/>
<path fill="#FFFFFF" d="M427.13,347.64c-1.08,1.49-1.9,3.25-2.3,5.01c-0.27,0.95-0.41,1.9-0.41,2.71l-0.14,2.71
	c-0.27,3.52-0.14,7.31,0.95,10.83c1.08,3.52,2.57,6.77,4.33,9.88c-0.54-1.76-1.22-3.38-1.76-5.01c-0.54-1.62-1.08-3.38-1.49-5.14
	c-0.81-3.38-0.81-6.9-0.68-10.42l0.14-2.71c0-0.81,0.14-1.76,0.27-2.57c0.41-1.62,1.08-3.25,1.9-4.74c0.95-1.49,2.03-2.84,3.38-4.06
	c1.22-1.22,2.71-2.3,4.33-3.11C432.28,342.36,429.16,344.53,427.13,347.64z"/>
</svg>
