<svg xmlns="http://www.w3.org/2000/svg" viewBox="0 0 600 600">
    <path fill="#FFF" d="M105.55 261.8l.94-5.98H62.12l-.75 6c5.24.55 10.85 1.5 15.35 4.1v35H29.76v-35c4.5-2.6 9.36-3.55 14.6-4.1l.94-6H.94l-.75 6c5.23.55 10.84 1.5 15.34 4.1v81.04c-4.5 2.62-9.36 3.56-14.6 4.12L0 357.06h44.35l.75-6c-5.24-.55-10.85-1.5-15.35-4.1v-37.63H76.9v37.43c-4.48 2.62-9.35 3.56-14.6 4.12l-.93 6h44.17l.75-6c-5.25-.56-10.86-1.5-15.36-4.12V265.9c4.5-2.6 9.37-3.53 14.6-4.1zM171.05 302.23c0-13.85-10.3-21.9-27.32-21.9-16.28 0-26.4 7.1-26.4 18.15 0 5.6 3.75 9.36 9.37 9.36 6 0 9.36-2.8 9.36-7.67-3-1.12-4.87-3.37-4.87-6 0-4.67 4.67-7.3 12.72-7.3 9.36 0 13.47 4.5 13.47 15.36v13.1l-12.74.94c-18.9 1.3-29 9.73-29 23.58 0 11.6 7.48 18.53 20.2 18.53 8.23 0 15.35-2.06 22.08-8.42l1.68 7.3h22.08l.56-5.6c-4.68-.95-9.36-2.82-11.23-4.3v-45.13zm-31.07 49.4c-6.74 0-10.1-4.67-10.1-13.28s5.8-14.4 15.34-15.35l12.16-1.12v20.4c-6.54 6.74-11.6 9.36-17.4 9.36zM301.1 304.48c0-17.97-11.4-24.33-24.32-24.33-8.98 0-15.9 5.24-21.15 10.48-4.12-7.1-11.04-10.48-20.6-10.48-10.84 0-18.14 8.6-19.27 9.92l-1.12-8.42-2.8-1.5c-6.2 1.87-12.92 4.3-19.85 5.43l-.38 4.87c8.23.37 11.23 2.62 11.23 10.67v46.04c-3.37 2.43-5.8 3.37-10.67 4.12l-.75 5.8h35.74l.56-5.6c-4.68-.95-8.6-2.44-11.23-4.3v-46.6c1.68-5.44 8.6-12.55 16.28-12.55 8.05 0 12.16 4.87 12.16 16.1v43.03c-3 2.25-6.55 3.74-10.67 4.3l-.37 5.6h35.56l.56-5.6c-4.68-.94-9.36-2.8-11.23-4.3v-46.6c1.67-5.43 8.6-12.54 16.27-12.54 8.05 0 12.16 4.87 12.16 16.1v43.03c-3 2.25-6.55 3.74-10.67 4.3l-.37 5.6h35.55l.56-5.6c-4.67-.94-9.35-2.8-11.22-4.3v-42.67zM346.96 249.08l-3.18-1.68c-6.55 2.06-14.22 4.5-21.33 5.6l-.37 4.88c8.23.37 11.23 2.62 11.23 10.67v78.6c-3.36 2.43-5.8 3.37-10.66 4.12l-.75 5.6h35.73l.56-5.6c-4.7-.94-8.62-2.43-11.24-4.3v-97.9zM599.98 321.32c-.2-3-1.3-6-2.62-8.6-1.3-2.63-3-5.06-4.87-7.3-3.75-4.3-8.24-7.87-13.1-10.68-4.7-3-9.93-5.43-15.17-7.1l-2.06-.57c-.56-.2-1.12-.37-1.68-.56-1.13-.36-2.07-.93-3-1.3-1.87-1.12-3.18-2.25-4.12-3.74-1.87-2.8-2.06-7.1-1.12-11.6.2-1.12.56-2.25.94-3.37.37-1.13.75-2.26 1.12-3.57.37-1.68.56-3.37.56-5.43l.94-.75 11.23-9.36c2.06-1.7 4.12-3.57 6.18-5.25.75.37 1.5.94 2.06 1.3 0 0 5.8.57 8.97-8.22l-1.68-1.12 1.1-.93 2.82-2.43c.94-.75 1.68-1.68 2.06-3.37-1.68-.2-2.8.37-3.74 1.12l-3 2.24-2.05 1.5-25.84-17.78c1.3-1.12 2.43-2.06 3.74-3.18l5.43-4.87c.2-.18.37-.36.56-.55.55.37.93.75 1.5 1.12 1.3.94 2.8 1.87 4.1 2.62l8.24 4.48c2.62 1.5 5.43 3 8.23 4.3 1.3.75 2.8 1.3 4.3 1.87.75.2 1.5.56 2.25.75.37 0 .94.2 1.3.2h.95c.37 0 .75-.2 1.12-.76v-.2c0-.18 0-.36.18-.55v-.76c0-.37-.2-.56-.37-.75-.18-.38-.55-.76-.74-1.13-.56-.56-1.12-1.3-1.68-1.68-1.12-1.13-2.43-2.07-3.56-3-2.43-1.87-5.05-3.56-7.67-5.24-2.62-1.68-5.24-3.18-8.05-4.5-1.3-.74-2.8-1.3-4.3-1.86-.53-.13-1.07-.36-1.67-.55l.17.17v.38s0-.2-.2-.2v-.36c-.23-.07-.47-.14-.74-.2-.37 0-.94-.2-1.5-.2-.37 0-.56 0-1.12.2-.37.2-.94.37-1.5.94-1.3.56-2.43 1.12-3.37 1.87l-5.6 3.18c-1.7 1.3-3.57 2.8-5.25 4.12l-1.87-1.3s-7.86.74-5.24 5.8c0 0 .2.18.76.74-7.5 6.17-14.78 12.53-22.08 18.7-7.5 6.36-14.78 12.73-22.27 19.28l-11.03 9.73c-.56.57-1.12 1.13-1.87 1.7-.37-1.13-.94-2.07-1.3-3l-2.63-5.6-5.05-11.24c-3.37-7.5-6.74-14.97-10.3-22.46l-10.47-22.27-1.68-3.37h2.25s.75-6.18-3.74-7.3c0 0-.75 0-1.87.2-1.67-3.38-3.17-6.75-4.86-10.12l-.75-2.8c-.2-.95-.76-1.32-1.13-1.7-.37-.18-.75-.36-.94-.36-.56-.2-.94-.2-1.5-.37-.94-.18-1.68-.18-2.43-.18-1.68 0-3.18.2-4.68.37-3 .36-6.18.93-9.17 1.67-3 .75-6 1.5-8.98 2.43-1.5.56-3 .94-4.3 1.68l-2.25 1.12c-.37.2-.75.56-1.12.75l-.56.56s-.2.38-.37.57v.76c.2.74.56.93.94 1.1.38.2.57.38.76.38.56.2.94.2 1.3.38.76.2 1.7.2 2.44.2 1.5 0 3.18-.2 4.68-.38 3-.37 6.18-.75 9.17-1.3l9.17-1.5c1.5-.2 3-.57 4.68-.95 1.3 2.62 2.62 5.43 3.93 8.05-8.6.75-22.08 1.87-30.5 2.8-.94-1.67-1.68-3.17-2.62-4.86-.18-.37-.74-.75-1.3-.56-.56.2-.75.75-.56 1.3.56 1.5 1.12 2.82 1.68 4.3-2.62.38-4.3.76-4.5 1.13-.93 1.7 1.88 10.5 5.62 12.74 0 0 1.5-.56 4.12-1.12 1.3 3 2.62 6 3.93 8.98l11.22 25.45 11.42 25.45c3.74 8.42 7.67 16.84 11.6 25.45 0 0 0 .2.2.2l-1.7 5.6-4.48 15.72c-2.8 10.48-5.43 21.15-8.05 31.63l-3.92 15.9-3.74 15.92c-2.62 10.67-5.05 21.15-8.05 31.63 0 .2 0 .56.18.75 1.5 2.06 3.56 3.56 5.43 5.05 2.07 1.5 4.13 2.62 6.2 3.74 4.3 2.24 8.8 3.92 13.46 5.42 4.68 1.3 9.54 2.25 14.6 2.43 2.43.2 5.05 0 7.5-.37s4.86-.75 7.48-1.5c.75-.2 1.3-.94 1.5-1.68v-.2c2.06-10.28 3.74-20.76 5.6-31.06l5.25-31.25c1.67-10.5 3.55-20.78 5.23-31.26.2-1.12.37-2.43.56-3.56.36.37.55.94.93 1.3 1.87 2.26 4.12 4.13 6.36 5.8 4.48 3.2 9.35 5.62 14.2 7.5 4.88 1.87 9.93 3.37 14.98 4.5 3.37.74 6.55 1.3 9.92 1.67-1.5 3.37-2.43 6.92-2.25 10.85 0 .37.2.75.56.94h.2c3.56 1.87 7.3 3.37 11.42 4.3 3.93.75 8.23 1.12 12.35.56 4.3-.56 8.6-2.25 11.98-5.05s5.8-6.55 7.3-10.48l.2-.2v-.18l.55-5.06v-.2c1.87-1.1 3.74-2.24 5.6-3.73 2.26-1.86 4.3-3.92 5.8-6.54s2.36-5.76 2.18-8.94zm-27.14-116.6c2.43.95 5.05 2.26 7.67 3.75 2.63 1.5 5.06 3 7.5 4.87 1.12.94 2.43 1.68 3.56 2.8.56.57 1.12.95 1.5 1.5l.37.38h-.37c-.75-.2-1.3-.37-2.06-.56-1.3-.56-2.8-1.12-4.12-1.68-2.62-1.3-5.43-2.62-7.86-4.3-2.43-1.68-4.87-3.56-6.92-5.6-.75-.76-1.5-1.5-2.06-2.26l2.8 1.1zM434.36 179.3c-2.62 1.3-5.6 2.25-8.42 3-3 .74-5.8 1.3-8.8 1.5-1.5.18-3 .18-4.5.18-.74 0-1.5 0-2.05-.2h-.57c.2 0 .2-.18.37-.18.56-.37 1.3-.56 1.87-.94 1.3-.56 2.8-.94 4.12-1.5 2.8-.75 5.8-1.5 8.8-2.06 2.98-.56 5.98-.94 8.8-1.12.93 0 1.86 0 2.8-.2-.57.58-1.5.96-2.44 1.52zm134.93 59.9c-1.5 1.3-3.38 2.6-5.06 3.92l-11.6 8.98-11.6 9.17c-3.18 2.62-6.36 5.24-9.54 7.67.2-.2.37-.56.56-.75 1.5-2.06 3-3.93 4.5-5.8 3.17-3.74 6.17-7.67 9.53-11.23 3.36-3.56 6.9-7.1 10.47-10.3 1.87-1.67 3.74-3.17 5.8-4.48l1.68-1.12c1.68 1.3 3.55 2.62 5.24 3.93zm-133.45-.76l-8.8-18.34.94.94c1.86 1.87 3.73 3.74 5.23 5.8 1.5 2.06 2.8 4.3 3.37 6.55.37 1.87.37 3.93-.56 5.6l-.2-.55zm.38 1.12c.56-.56.94-1.3 1.3-2.25.57-1.32.57-2.82.38-4.13-.36-2.8-1.67-5.43-3.36-7.5-2.43-3.17-5.43-5.8-8.8-8.04l-2.06-4.3c-1.3-2.8-2.62-5.6-4.12-8.23 2.8-.75 6.18-1.87 9.92-2.8 3.37 5.42 6.36 11.03 9.17 16.83 3.18 7.3 6.36 14.97 6.92 22.83.2 1.87 0 3.93 0 6 0 2.05 0 4.1.2 6.17.18 2.8.74 5.8 1.3 8.6l-10.84-23.2zm44.54 150.1c-.2.93-.2 1.67-.37 2.42-.56.75-.94 1.3-1.68 1.87-.94.75-1.87 1.12-3 .94-.93-.2-1.67-1.12-2.05-2.06-.37-.93-.75-2.05-.75-3.17-.2-2.25-.2-4.5.37-6.74.36-2.26 1.1-4.3 2.05-6.37.56-.94 1.12-1.87 1.87-2.62.75-.74 1.68-1.3 2.62-1.1.94 0 1.87.93 2.43 1.86.37.56.56 1.12.75 1.68l-2.25 13.3zm15.53-90.78c-.37.37-.37.94-.2 1.3.38.38.95.57 1.32.38-1.3 3.74-2.06 7.5-2.8 11.23-1.13 5.24-2.26 10.48-3.2 15.72-1.1 6.54-2.24 13.1-3.36 19.64-.2-1.3-.56-2.62-.94-3.93-.94-3.55-2.06-6.9-3.18-10.28-2.43-6.74-5.24-13.3-8.6-19.46 2.05 6.92 4.48 13.47 6.9 20.2 1.32 3.38 2.44 6.75 3.57 9.93l1.7 5.04c0 .2.18.56.18.75-.56 2.98-1.12 5.98-1.5 9.16l-2.8 17.03c-.2-.38-.2-.76-.38-1.13-.56-1.12-1.3-2.25-2.8-2.62-1.32-.37-2.63.37-3.75 1.12-.94.75-1.68 1.87-2.43 2.8-1.3 2.07-2.06 4.5-2.43 6.75-.38 2.43-.57 4.87 0 7.3.18 1.12.55 2.43 1.3 3.56.56 1.12 1.68 2.25 3 2.43 1.3.2 2.6-.55 3.36-1.5.37-.36.75-.93 1.12-1.3-1.3 8.8-2.8 17.6-4.12 26.57-1.68.56-3.37.94-5.05 1.12-2.24.36-4.48.55-6.73.74-4.68.2-9.17-.2-13.85-1.3-4.5-.95-9.17-2.44-13.47-4.3-4.12-1.88-8.05-4.3-11.04-7.68 2.82-10.3 6-20.6 9.18-30.88l4.87-15.53 4.68-15.72c3.18-10.48 6.36-20.96 9.36-31.44 1.5-5.25 2.8-10.5 4.3-15.73 1.1-5.43 3.36-10.48 1.67-16.47v-.2c-.2-.18-.37-.18-.37 0-.94.95-1.5 1.7-2.25 2.63-2.06-4.68-4.3-9.17-6.36-13.85-.57-1.68-1.13-3.37-1.5-5.24-.95-3.93-1.7-7.86-1.88-11.8-.2-2.05-.2-3.92-.2-5.98 0-2.06.2-4.12 0-6.18-.74-8.23-3.92-16.1-7.48-23.4-2.8-5.8-6.18-11.22-9.92-16.46 6.18-1.68 12.73-3.37 17.97-4.3.74 1.68 1.67 3.18 2.42 4.87l11.23 22.07c3.74 7.3 7.5 14.6 11.23 21.9l5.6 10.85 2.82 5.43c.75 1.12 1.12 2.43 1.87 3.37l-7.3 6.74c-.2.2-.37.56 0 .94.2.37.75.37.94.2 3.94-2.82 7.87-5.8 11.8-8.8l11.8-9c7.85-5.98 15.52-11.97 23.2-17.96 7.67-6 15.35-12.16 23.02-18.34l.2-.2c4.1 3.94 10.28 9.74 16.83 14.8-2.8 1.5-5.43 2.98-7.86 4.86-3.94 3-7.68 6.36-11.05 10.1-3.37 3.75-6.55 7.5-9.36 11.6-2.07 2.82-3.94 5.8-5.8 9-11.42 9.34-22.65 18.9-33.5 28.8zm87.02 32.38c-.2 1.5-.37 3.18-.75 4.68-.2.94-.37 1.87-.56 2.8l-2.8 1.7c-1.12.74-2.06 1.5-3 3.17 1.7.55 3 .36 4.3 0 .2 0 .2-.2.38-.2-.2.56-.2.94-.37 1.5-1.5 3-3.73 5.6-6.35 7.67-2.62 2.06-5.8 3.37-9.17 4.12-3.37.74-7.1.74-10.67.36-3.36-.37-6.9-.94-10.28-1.87-.37-3 .2-6.37 1.5-9.37 1.3.2 2.43.2 3.74.37.56 0 .94-.2 1.12-.75.2-.56 0-1.3-.75-1.5-.94-.37-1.68-.56-2.62-.94.76-1.3 1.7-2.42 2.63-3.55 1.12-1.12 2.25-2.25 3.37-3.18 2.43 1.5 4.87 2.62 7.67 3.56 3.18.94 6.55 1.3 10.1.94 3.38-.37 6.93-2.06 9.18-4.87 2.06-2.43 3-5.24 3.18-8.23.38 1.14.38 2.45.2 3.57zm9.36-3.18c-.94 2.06-2.43 3.93-4.12 5.6-.75.76-1.68 1.5-2.43 2.07 0-1.68-.2-3.37-.56-5.05-.2-.94-.37-1.68-.75-2.62-.37-.75-.75-1.68-1.68-2.25-.2 0-.37 0-.37.2-1.12 2.8-3 5.24-5.05 6.92-2.06 1.68-4.68 2.43-7.3 2.62s-5.43-.37-8.23-1.12c-2.82-.75-5.62-1.68-8.43-2.62l-.37-.2c-.56-.18-1.3 0-1.68.38-1.5 1.87-2.62 3.56-3.93 5.43-.95 1.5-1.7 2.82-2.44 4.3-3.37-1.3-6.55-2.42-9.92-3.73-4.68-1.87-9.36-3.74-13.66-6-4.5-2.05-8.8-4.48-12.54-7.3-3.74-2.8-7.1-5.8-8.8-9.53v-.2c-.37-.74-.94-1.3-1.68-1.67 0-.37.2-.94.2-1.3.55-4.5 1.3-9 .93-13.67 15.15-10.67 29.93-21.9 44.53-33.5-.2.56-.37 1.12-.56 1.68-.94 2.8-1.3 6-1.3 9.17.18 3.18 1.1 6.74 3.17 9.73 2.06 3 4.87 5.24 7.67 6.55 1.5.75 3 1.3 4.3 1.68l2.26.57 1.87.37c4.87 1.3 9.54 3.18 13.85 5.6 4.3 2.44 8.42 5.44 11.8 8.8s5.98 7.68 6.35 12c.16 3-.22 5.25-1.15 7.12z"/>
    <path fill="#FFF" d="M468.42 371.1c-1.5 2.06-2.62 4.5-3.18 6.92-.37 1.3-.56 2.62-.56 3.74l-.2 3.74c-.36 4.87-.18 10.1 1.32 14.97 1.5 4.87 3.56 9.36 6 13.66-.76-2.43-1.7-4.68-2.44-6.92-.75-2.24-1.5-4.67-2.06-7.1-1.12-4.68-1.12-9.54-.94-14.4l.2-3.75c0-1.12.18-2.43.36-3.56.56-2.26 1.5-4.5 2.62-6.56 1.3-2.06 2.8-3.93 4.68-5.6 1.68-1.7 3.74-3.2 6-4.3-4.7 1.86-9 4.86-11.8 9.16z"/>
</svg>
