<?xml version="1.0" encoding="utf-8"?>
<svg version="1.1" id="logo-markdown-knockout" xmlns="http://www.w3.org/2000/svg" viewBox="0 0 33.5 20.6">
  <path fill="#FFF" d="M31.1,20.6H2.4c-1.3,0-2.4-1.1-2.4-2.4V2.4C0,1.1,1.1,0,2.4,0h28.6c1.3,0,2.4,1.1,2.4,2.4v15.8 C33.4,19.5,32.4,20.6,31.1,20.6z M2.4,1.6C2,1.6,1.6,2,1.6,2.4v15.8C1.6,18.7,2,19,2.4,19h28.6c0.5,0,0.8-0.4,0.8-0.8V2.4 c0-0.5-0.4-0.8-0.8-0.8C31.1,1.6,2.4,1.6,2.4,1.6z M4.8,15.8v-11H8l3.2,4l3.2-4h3.2v11h-3.2V9.5l-3.2,4L8,9.5v6.3L4.8,15.8L4.8,15.8 z M24.9,15.8l-4.8-5.3h3.2V4.8h3.2v5.6h3.2L24.9,15.8z"/>
</svg>
