<?xml version="1.0" encoding="utf-8"?>
<svg version="1.1" id="logo-coffeescript" xmlns="http://www.w3.org/2000/svg" viewBox="0 0 91.585 16.16">
  <path d="M7.21 0.63C7.23 0.72 7.18 0.8 7.02 0.88 6.81 0.76 6.36 0.71 5.98 0.74 5.58 0.78 5.23 0.9 5.28 1.18c0.06 0.28 0.46 0.43 1.15 0.37 1.69-0.15 1.69-1.3 4.18-1.52 1.94-0.17 3.03 0.43 3.18 1.16 0.12 0.57-0.35 1.11-1.76 1.24 -1.25 0.11-1.97-0.22-2.05-0.57 -0.04-0.17 0.07-0.44 0.67-0.51 0.06 0.27 0.41 0.56 1.21 0.49 0.58-0.05 1.08-0.26 1.01-0.58 -0.07-0.34-0.69-0.53-1.66-0.45C9.24 0.98 8.75 2.08 7.06 2.23c-1.2 0.1-2.17-0.33-2.31-0.98C4.7 1.01 4.69 0.43 5.96 0.32 6.63 0.26 7.16 0.37 7.21 0.63zM0.76 7.44c-0.55 0.7-0.8 1.5-0.75 2.3 0.05 0.8 0.45 1.45 1.05 1.95 0.65 0.5 1.35 0.65 2.15 0.5 0.3-0.05 0.65-0.2 0.95-0.3 -0.65 0-1.2-0.2-1.75-0.65 -0.6-0.45-1-1.05-1.1-1.8 -0.15-0.7 0-1.35 0.4-1.9 0.45-0.55 1-0.85 1.75-0.95 0.75-0.05 1.4 0.15 2.05 0.6 -0.15-0.2-0.35-0.35-0.55-0.55C4.3 6.19 3.6 5.99 2.75 6.19 1.95 6.34 1.3 6.74 0.76 7.44zM9.44 3.7c-2.1 0-3.94-0.2-5.29-0.5 -1.45-0.35-2.2-0.75-2.2-1.25 0-0.2 0.1-0.4 0.4-0.6C1.45 1.7 0.95 2 0.95 2.45c0.05 0.5 0.85 1 2.5 1.4 1.55 0.4 3.54 0.6 5.94 0.6 2.45 0 4.39-0.2 5.94-0.6 1.65-0.4 2.45-0.9 2.45-1.4 0-0.35-0.35-0.7-1-0.95 0.15 0.1 0.25 0.25 0.25 0.45 0 0.5-0.75 0.9-2.25 1.25C13.38 3.5 11.59 3.7 9.44 3.7zM15.38 5.1c-1.55 0.35-3.54 0.6-5.94 0.6C6.99 5.69 5 5.44 3.45 5.1c-1.4-0.35-2.15-0.75-2.4-1.15l0 0C1.3 5.69 1.9 7.34 2.7 8.79c0.6 0.9 1.2 1.7 1.8 2.55 0.25 0.5 0.45 1 0.55 1.5 0.4 0.55 0.95 0.9 1.65 1.1 0.85 0.3 1.75 0.45 2.65 0.4h0.1c0.9 0.05 1.85-0.1 2.75-0.4 0.65-0.2 1.2-0.55 1.6-1.1h0.05l0 0c0.1-0.5 0.25-1 0.5-1.5 0.6-0.85 1.2-1.65 1.8-2.55 0.8-1.45 1.35-3.09 1.65-4.84C17.48 4.4 16.73 4.8 15.38 5.1zM32.58 9.98c-0.78 1.97-2.85 2.74-4.19 2.74 -2.18 0-3.22-0.97-3.22-3.62 0-2.66 1.28-7.65 5.13-7.65 1.38 0 2.46 0.54 2.46 1.97 0 0.78-0.28 1.35-1.03 1.35 -0.24 0-0.56-0.06-0.84-0.38 0.35-0.18 0.68-0.79 0.68-1.35 0-0.47-0.24-0.9-0.9-0.9 -1.62 0-3.06 3.87-3.06 6.87 0 1.35 0.35 2.29 1.76 2.29 1.15 0 2.19-0.56 2.87-1.47L32.58 9.98zM37.91 7.35c0.06 0.03 0.12 0.03 0.16 0.03 0.68 0 1.63-0.44 2.26-0.88l0.13 0.4c-0.56 0.6-1.53 1.04-2.6 1.22 -0.24 2.72-1.71 4.43-3.52 4.43 -1.37 0-2.35-0.65-2.35-2.32 0-1.69 1-5.22 4.03-5.22C37.29 5 37.91 5.81 37.91 7.35zM36.64 8.16c-0.31-0.07-0.4-0.32-0.4-0.62 0-0.41 0.19-0.68 0.46-0.79 -0.03-0.62-0.18-0.85-0.56-0.85 -1.04 0-1.96 2.69-1.96 4.13 0 0.97 0.19 1.19 0.75 1.19C35.66 11.22 36.41 9.89 36.64 8.16zM35.58 14.57c0-1.35 1.15-1.78 2.54-2.21l1.76-8.4c0.44-2.1 1.71-2.5 2.68-2.5 0.66 0 1.29 0.35 1.57 0.93 0.59-0.75 1.37-0.93 2.01-0.93 0.9 0 1.74 0.63 1.74 1.59 0 0.24-0.01 0.43-0.04 0.6h-0.69c0.01-0.15 0.03-0.26 0.03-0.4 0-0.34-0.26-0.5-0.56-0.5 -0.32 0-0.78 0.18-1 1.16l-0.26 1.21h1.47L46.7 5.72h-1.46l-1.66 7.94c-0.44 2.1-1.71 2.5-2.68 2.5 -0.84 0-1.35-0.37-1.59-0.93 -0.57 0.75-1.35 0.93-2 0.93C36.42 16.16 35.58 15.53 35.58 14.57zM37.07 14.85c0.31 0 0.68-0.28 0.87-1.15l0.18-0.85c-0.93 0.31-1.63 0.72-1.63 1.52C36.48 14.57 36.74 14.85 37.07 14.85zM40.57 14.85c0.31 0 0.68-0.28 0.87-1.15l0.35-1.68 -1.51 0.28 -0.28 1.35c-0.07 0.34-0.18 0.65-0.28 0.9C39.85 14.79 40.19 14.85 40.57 14.85zM40.35 11.94l1.51-0.26 1.25-5.96h-1.46L40.35 11.94zM43.04 2.76c-0.32 0-0.78 0.18-1 1.16l-0.26 1.21h1.46l0.34-1.54c0.03-0.12 0.03-0.21 0.03-0.32C43.6 2.92 43.33 2.76 43.04 2.76zM49.17 11.34c1.16 0 1.87-0.65 2.6-1.49h0.5c-0.84 1.35-2.09 2.72-4.04 2.72 -1.38 0-2.29-0.68-2.29-2.34 0-1.69 0.96-5.24 3.97-5.24 1.31 0 1.62 0.68 1.62 1.41 0 1.69-1.62 3-3.38 3.1 -0.01 0.21-0.03 0.41-0.03 0.59C48.11 11.1 48.47 11.34 49.17 11.34zM50.02 5.78c-0.75 0-1.47 1.57-1.76 3.03 1.13-0.07 2.13-1.21 2.13-2.43C50.39 6.01 50.3 5.78 50.02 5.78zM54.66 11.17c0.56 0 1.26-0.37 1.74-0.78 -0.31 1.68-1.37 2.18-2.54 2.18 -1.37 0-2.28-0.68-2.28-2.34 0-1.69 0.96-5.24 3.97-5.24 1.31 0 1.62 0.68 1.62 1.41 0 1.71-1.62 3-3.38 3.1 -0.01 0.15-0.03 0.31-0.03 0.44C53.75 10.88 54.14 11.17 54.66 11.17zM55.66 5.78c-0.74 0-1.47 1.63-1.78 3.03 1.15-0.06 2.15-1.19 2.15-2.43C56.02 6.01 55.94 5.78 55.66 5.78zM63.95 4.7c-0.26 0-0.49-0.09-0.68-0.31 0.4-0.24 0.66-0.78 0.66-1.26 0-0.51-0.28-0.99-1.09-0.99 -0.81 0-1.35 0.46-1.35 1.34 0 2.16 3.31 2.46 3.31 5.63 0 2.47-2 3.68-4.13 3.68 -1.68 0-3.12-0.74-3.12-2.53 0-1.59 1.13-2.41 2.16-2.41 0.51 0 1.25 0.21 1.29 0.97 -0.79 0-1.72 0.37-1.72 1.38 0 0.74 0.47 1.41 1.41 1.41 0.99 0 1.71-0.72 1.71-1.96 0-2.51-3.01-3.41-3.01-5.57 0-1.53 1.5-2.63 3.4-2.63 0.69 0 2.37 0.15 2.37 1.76C65.16 4.07 64.69 4.7 63.95 4.7zM69.82 6.38c0-0.37-0.13-0.6-0.41-0.6 -0.93 0-1.88 2.69-1.88 4.32 0 1 0.35 1.24 1.06 1.24 1.16 0 1.87-0.65 2.6-1.49h0.5c-0.84 1.35-2.09 2.72-4.04 2.72 -1.38 0-2.29-0.68-2.29-2.34C65.35 8.53 66.32 5 69.3 5c1.31 0 1.63 0.68 1.63 1.35 0 0.72-0.35 1.07-0.78 1.07 -0.16 0-0.34-0.06-0.51-0.18C69.76 6.92 69.82 6.63 69.82 6.38zM74.3 5.13l-0.19 0.91c0.51-0.44 1.07-0.91 1.78-0.91 0.66 0 1.01 0.54 1.01 1.1 0 0.51-0.34 1.07-1.06 1.07 -0.82 0-0.41-0.97-0.85-0.97 -0.44 0-0.71 0.22-1.07 0.56l-1.18 5.59h-2.12l1.56-7.35H74.3zM79.83 5.13l-1.06 5c-0.04 0.19-0.06 0.34-0.06 0.47 0 0.41 0.19 0.54 0.6 0.54 0.57 0 1.1-0.56 1.32-1.29h0.62c-0.84 2.4-2.29 2.72-3.09 2.72 -0.88 0-1.57-0.53-1.57-1.76 0-0.28 0.04-0.6 0.12-0.96l1-4.72H79.83zM79.17 2c0.65 0 1.18 0.53 1.18 1.18s-0.53 1.16-1.18 1.16c-0.65 0-1.16-0.51-1.16-1.16S78.53 2 79.17 2zM83.88 4.59l-0.24 1.1c0.43-0.37 0.99-0.63 1.72-0.63 1 0 1.79 0.57 1.79 2.32 0 1.99-0.76 5.19-3.62 5.19 -0.74 0-1.09-0.25-1.25-0.53l-0.77 3.59 -2.22 0.53 2.46-11.57H83.88zM85.14 7.34c0-1.13-0.47-1.22-0.74-1.22 -0.32 0-0.74 0.25-1.01 0.72l-0.87 4.12c0.06 0.16 0.22 0.34 0.56 0.34C84.63 11.29 85.14 8.72 85.14 7.34zM89.64 10.13c-0.04 0.18-0.07 0.35-0.07 0.51 0 0.31 0.12 0.53 0.51 0.53 0.1 0 0.27 0 0.38-0.04 -0.41 1.26-1.06 1.44-1.56 1.44 -1.03 0-1.47-0.72-1.47-1.66 0-0.25 0.03-0.51 0.09-0.78l0.94-4.41h-0.49l0.12-0.59h0.49l0.44-2.03 2.18-0.29c0 0-0.22 1-0.5 2.32h0.88l-0.12 0.59h-0.88L89.64 10.13z"/>
</svg>
