<?xml version="1.0" encoding="utf-8"?>
<svg version="1.1" id="logo-coffeescript-knockout-padded" xmlns="http://www.w3.org/2000/svg" viewBox="0 0 121.7 81.3">
  <g fill="#FFF">
    <path d="M20.45,32.84c0.02,0.1-0.03,0.18-0.2,0.26c-0.22-0.13-0.69-0.18-1.09-0.14
      c-0.42,0.04-0.79,0.17-0.73,0.46c0.06,0.29,0.48,0.45,1.2,0.39c1.77-0.16,1.77-1.36,4.38-1.59c2.03-0.18,3.17,0.45,3.33,1.21
      c0.13,0.6-0.37,1.17-1.84,1.29c-1.31,0.12-2.07-0.23-2.15-0.6c-0.04-0.18,0.08-0.46,0.7-0.53c0.06,0.29,0.43,0.59,1.27,0.52
      c0.6-0.05,1.13-0.27,1.05-0.61c-0.08-0.35-0.72-0.56-1.74-0.47c-2.07,0.18-2.57,1.33-4.35,1.49c-1.26,0.11-2.28-0.35-2.42-1.03
      c-0.05-0.25-0.06-0.86,1.27-0.97C19.84,32.46,20.39,32.58,20.45,32.84z"/>
    <path d="M13.69,39.98c-0.58,0.73-0.84,1.57-0.78,2.4c0.05,0.84,0.47,1.52,1.1,2.04c0.68,0.52,1.41,0.68,2.25,0.52
      c0.31-0.05,0.68-0.21,0.99-0.31c-0.68,0-1.25-0.21-1.83-0.68c-0.63-0.47-1.05-1.1-1.15-1.88c-0.16-0.73,0-1.41,0.42-1.99
      c0.47-0.57,1.05-0.89,1.83-0.99c0.78-0.05,1.46,0.16,2.14,0.63c-0.16-0.21-0.37-0.37-0.58-0.57c-0.68-0.47-1.41-0.68-2.3-0.47
      C14.94,38.83,14.26,39.25,13.69,39.98z"/>
    <path d="M22.78,36.06c-2.2,0-4.13-0.21-5.54-0.52c-1.52-0.37-2.3-0.78-2.3-1.31c0-0.21,0.1-0.42,0.42-0.63
      c-0.94,0.37-1.46,0.68-1.46,1.15c0.05,0.52,0.89,1.05,2.61,1.46c1.62,0.42,3.71,0.63,6.22,0.63c2.56,0,4.6-0.21,6.22-0.63
      c1.72-0.42,2.56-0.94,2.56-1.46c0-0.37-0.37-0.73-1.05-0.99c0.16,0.1,0.26,0.26,0.26,0.47c0,0.52-0.78,0.94-2.35,1.31
      C26.91,35.85,25.03,36.06,22.78,36.06z"/>
    <path d="M29.01,37.52c-1.62,0.37-3.71,0.63-6.22,0.63c-2.56,0-4.65-0.26-6.27-0.63c-1.46-0.37-2.25-0.78-2.51-1.2
      l0,0c0.26,1.83,0.89,3.55,1.72,5.07c0.63,0.94,1.25,1.78,1.88,2.67c0.26,0.52,0.47,1.05,0.58,1.57c0.42,0.57,0.99,0.94,1.72,1.15
      c0.89,0.31,1.83,0.47,2.77,0.42h0.1c0.94,0.05,1.93-0.1,2.87-0.42c0.68-0.21,1.25-0.57,1.67-1.15h0.05l0,0
      c0.1-0.52,0.26-1.05,0.52-1.57c0.63-0.89,1.25-1.73,1.88-2.67c0.84-1.52,1.41-3.24,1.72-5.07C31.2,36.79,30.42,37.21,29.01,37.52z"/>
    <path d="M47.02,42.64c-0.82,2.06-2.99,2.86-4.39,2.86c-2.28,0-3.37-1.02-3.37-3.79c0-2.79,1.34-8.01,5.37-8.01
      c1.45,0,2.57,0.57,2.57,2.06c0,0.82-0.29,1.42-1.08,1.42c-0.25,0-0.59-0.06-0.88-0.4c0.37-0.18,0.71-0.83,0.71-1.42
      c0-0.49-0.25-0.94-0.94-0.94c-1.69,0-3.2,4.05-3.2,7.19c0,1.42,0.37,2.4,1.85,2.4c1.2,0,2.29-0.59,3-1.54L47.02,42.64z"/>
    <path d="M52.59,39.89c0.06,0.03,0.12,0.03,0.17,0.03c0.71,0,1.71-0.46,2.37-0.92l0.14,0.42
      c-0.58,0.63-1.6,1.09-2.73,1.28c-0.25,2.85-1.79,4.64-3.68,4.64c-1.43,0-2.46-0.68-2.46-2.43c0-1.77,1.05-5.47,4.22-5.47
      C51.95,37.42,52.59,38.27,52.59,39.89z M51.27,40.73c-0.32-0.08-0.42-0.34-0.42-0.65c0-0.43,0.2-0.71,0.48-0.83
      c-0.03-0.65-0.18-0.89-0.59-0.89c-1.09,0-2.05,2.82-2.05,4.33c0,1.02,0.2,1.25,0.79,1.25C50.24,43.94,51.02,42.55,51.27,40.73z"/>
    <path d="M50.16,47.45c0-1.42,1.2-1.86,2.66-2.31l1.85-8.79c0.46-2.2,1.79-2.62,2.8-2.62
      c0.69,0,1.36,0.37,1.65,0.97c0.62-0.79,1.43-0.97,2.11-0.97c0.94,0,1.82,0.66,1.82,1.66c0,0.25-0.02,0.45-0.05,0.63h-0.72
      c0.02-0.15,0.03-0.28,0.03-0.42c0-0.35-0.28-0.52-0.59-0.52c-0.34,0-0.82,0.18-1.05,1.22l-0.28,1.26h1.54l-0.14,0.62h-1.52
      l-1.74,8.32c-0.46,2.2-1.79,2.62-2.8,2.62c-0.88,0-1.42-0.38-1.66-0.97c-0.6,0.79-1.42,0.97-2.09,0.97 C51.04,49.11,50.16,48.45,50.16,47.45z
      M51.71,47.74c0.32,0,0.71-0.29,0.91-1.2l0.19-0.89c-0.97,0.32-1.71,0.76-1.71,1.59 C51.1,47.45,51.38,47.74,51.71,47.74z
      M55.38,47.74c0.32,0,0.71-0.29,0.91-1.2l0.37-1.75l-1.59,0.29l-0.29,1.42 c-0.08,0.35-0.18,0.68-0.29,0.94C54.62,47.68,54.98,47.74,55.38,47.74z
      M55.15,44.69l1.59-0.28l1.31-6.24h-1.52L55.15,44.69z M57.97,35.08c-0.34,0-0.82,0.18-1.05,1.22l-0.28,1.26h1.52l0.35-1.62c0.03-0.12,0.03-0.22,0.03-0.34
      C58.55,35.25,58.27,35.08,57.97,35.08z"/>
    <path d="M64.39,44.06c1.22,0,1.96-0.68,2.73-1.56h0.52c-0.88,1.42-2.19,2.85-4.24,2.85c-1.45,0-2.4-0.71-2.4-2.45
      c0-1.77,1-5.48,4.16-5.48c1.37,0,1.69,0.71,1.69,1.48c0,1.77-1.69,3.14-3.54,3.25c-0.02,0.22-0.03,0.43-0.03,0.62
      C63.28,43.81,63.65,44.06,64.39,44.06z M65.28,38.24c-0.79,0-1.54,1.65-1.85,3.17c1.19-0.08,2.23-1.26,2.23-2.54
      C65.67,38.48,65.57,38.24,65.28,38.24z"/>
    <path d="M70.13,43.89c0.58,0,1.32-0.38,1.82-0.82c-0.32,1.76-1.43,2.28-2.66,2.28c-1.43,0-2.39-0.71-2.39-2.45
      c0-1.77,1-5.48,4.16-5.48c1.37,0,1.69,0.71,1.69,1.48c0,1.79-1.69,3.14-3.54,3.25c-0.02,0.15-0.03,0.32-0.03,0.46
      C69.18,43.58,69.59,43.89,70.13,43.89z M71.18,38.24c-0.77,0-1.54,1.71-1.86,3.17c1.2-0.06,2.25-1.25,2.25-2.54
      C71.56,38.48,71.47,38.24,71.18,38.24z"/>
    <path d="M79.86,37.11c-0.28,0-0.51-0.09-0.71-0.32c0.42-0.25,0.69-0.82,0.69-1.32c0-0.54-0.29-1.03-1.14-1.03
      c-0.85,0-1.42,0.48-1.42,1.4c0,2.26,3.47,2.57,3.47,5.9c0,2.59-2.09,3.85-4.33,3.85c-1.76,0-3.26-0.77-3.26-2.65
      c0-1.66,1.19-2.53,2.26-2.53c0.54,0,1.31,0.22,1.35,1.02c-0.83,0-1.8,0.39-1.8,1.45c0,0.77,0.49,1.48,1.48,1.48
      c1.03,0,1.79-0.75,1.79-2.05c0-2.63-3.16-3.57-3.16-5.84c0-1.6,1.57-2.76,3.56-2.76c0.72,0,2.48,0.15,2.48,1.85
      C81.13,36.45,80.64,37.11,79.86,37.11z"/>
    <path d="M86.01,38.87c0-0.38-0.14-0.63-0.43-0.63c-0.97,0-1.97,2.82-1.97,4.53c0,1.05,0.37,1.29,1.11,1.29
      c1.22,0,1.96-0.68,2.73-1.56h0.52c-0.88,1.42-2.19,2.85-4.23,2.85c-1.45,0-2.4-0.71-2.4-2.45c0-1.79,1.02-5.48,4.14-5.48
      c1.37,0,1.71,0.71,1.71,1.42c0,0.75-0.37,1.12-0.82,1.12c-0.17,0-0.35-0.06-0.54-0.18C85.95,39.44,86.01,39.13,86.01,38.87z"/>
    <path d="M90.71,37.56l-0.2,0.95c0.54-0.46,1.12-0.95,1.86-0.95c0.69,0,1.06,0.57,1.06,1.15
      c0,0.54-0.35,1.12-1.11,1.12c-0.86,0-0.43-1.02-0.89-1.02c-0.46,0-0.74,0.23-1.12,0.58l-1.23,5.85h-2.22l1.63-7.7H90.71z"/>
    <path d="M96.5,37.56l-1.11,5.24c-0.05,0.2-0.06,0.35-0.06,0.49c0,0.43,0.2,0.57,0.63,0.57
      c0.6,0,1.15-0.59,1.39-1.36h0.65c-0.88,2.51-2.4,2.85-3.23,2.85c-0.92,0-1.65-0.55-1.65-1.85c0-0.29,0.05-0.63,0.12-1l1.05-4.94 H96.5z
      M95.8,34.28c0.68,0,1.23,0.55,1.23,1.23s-0.55,1.22-1.23,1.22c-0.68,0-1.22-0.54-1.22-1.22S95.13,34.28,95.8,34.28z"/>
    <path d="M100.73,36.99l-0.25,1.15c0.45-0.38,1.03-0.66,1.8-0.66c1.05,0,1.88,0.6,1.88,2.43
      c0,2.08-0.8,5.44-3.79,5.44c-0.77,0-1.14-0.26-1.31-0.55l-0.8,3.76l-2.33,0.55l2.57-12.12H100.73z
      M102.06,39.87 c0-1.19-0.49-1.28-0.77-1.28c-0.34,0-0.77,0.26-1.06,0.75l-0.91,4.31c0.06,0.17,0.23,0.35,0.59,0.35
      C101.52,44.01,102.06,41.32,102.06,39.87z"/>
    <path d="M106.77,42.8c-0.05,0.18-0.08,0.37-0.08,0.54c0,0.32,0.12,0.55,0.54,0.55c0.11,0,0.28,0,0.4-0.05
      c-0.43,1.32-1.11,1.51-1.63,1.51c-1.08,0-1.54-0.76-1.54-1.74c0-0.26,0.03-0.54,0.09-0.82l0.99-4.62h-0.51l0.12-0.62h0.51
      l0.46-2.13l2.28-0.31c0,0-0.23,1.05-0.52,2.43h0.92l-0.12,0.62h-0.92L106.77,42.8z"/>
  </g>
</svg>
